<svg xmlns="http://www.w3.org/2000/svg" width="38.765" height="32.214"><path d="M38.285 17.681c.039-.059.078-.117.113-.18.037-.066.069-.133.102-.201.018-.037.039-.072.055-.109.008-.021.012-.043.021-.063.028-.072.051-.146.073-.221.018-.061.036-.121.05-.182.017-.072.026-.146.038-.22.008-.063.018-.125.023-.188.006-.075.005-.151.004-.228 0-.061.001-.121-.004-.182-.005-.078-.017-.155-.028-.233-.009-.059-.017-.116-.03-.175a2.401 2.401 0 00-.063-.227c-.018-.059-.035-.116-.057-.173-.01-.026-.016-.054-.025-.079-.02-.047-.047-.089-.068-.134a2.477 2.477 0 00-.209-.365c-.035-.051-.068-.102-.106-.149a3.1 3.1 0 00-.159-.185c-.025-.028-.047-.059-.074-.086L24.668.831a2.835 2.835 0 00-4.009 4.008l8.435 8.433H2.837A2.83 2.83 0 000 16.107c0 .783.318 1.492.831 2.003a2.825 2.825 0 002.006.832v-.002h26.255l-8.434 8.434a2.835 2.835 0 004.01 4.012L37.94 18.111c.028-.029.05-.061.077-.09.053-.057.104-.115.152-.178.042-.052.079-.107.116-.162z"/></svg>