<svg xmlns="http://www.w3.org/2000/svg" width="60.897" height="60.897"><path d="M40.491 18.842c.01.048.02.097.033.144a1.9 1.9 0 00.049.151c.01.027.018.055.027.082.008.015.016.027.021.042.021.05.047.098.072.146.021.04.043.078.066.116.027.044.061.086.09.129.029.035.055.07.084.104.033.041.07.077.111.115.029.03.059.061.092.088.039.036.084.069.129.103.033.024.066.05.102.071.047.03.095.056.145.082.038.021.074.04.114.058.018.008.033.019.052.027.032.013.067.021.1.032.042.015.085.029.127.041.053.016.106.025.159.036.043.008.085.018.127.022.057.007.115.01.172.012.025.002.052.006.078.006h13.202a1.993 1.993 0 000-3.987l-8.389.001L60.313 3.404A1.994 1.994 0 1057.492.583l.002.002-13.057 13.057V5.253a1.994 1.994 0 00-3.988 0v13.203c0 .029.006.055.006.083.004.055.006.11.014.164.005.046.012.092.022.139zM20.881 42.054c-.01-.047-.019-.096-.032-.143a1.802 1.802 0 00-.05-.152c-.01-.027-.017-.055-.026-.082-.008-.014-.017-.027-.022-.041-.021-.051-.047-.098-.072-.145a1.674 1.674 0 00-.066-.117c-.027-.043-.06-.086-.09-.129-.028-.035-.054-.07-.083-.104a1.091 1.091 0 00-.111-.115.956.956 0 00-.092-.088c-.04-.037-.085-.07-.13-.104-.033-.023-.066-.049-.102-.07a1.274 1.274 0 00-.144-.082c-.038-.021-.074-.041-.114-.059-.018-.008-.033-.018-.052-.027-.032-.012-.067-.02-.1-.031a1.56 1.56 0 00-.127-.041c-.053-.016-.106-.025-.159-.037-.043-.008-.085-.018-.127-.021-.057-.008-.115-.01-.172-.012-.025-.002-.052-.006-.078-.006H5.729a1.993 1.993 0 000 3.986l8.389-.002L1.06 57.493a1.994 1.994 0 102.821 2.821l-.002-.002 13.058-13.057v8.389a1.994 1.994 0 003.988 0l-.001-13.203c0-.029-.006-.055-.006-.082a2.097 2.097 0 00-.037-.305zM42.055 40.253a1.9 1.9 0 00-.295.082c-.027.01-.055.018-.082.027-.014.008-.027.016-.041.021-.051.021-.098.047-.146.072-.04.021-.078.043-.116.066-.044.027-.086.061-.129.09-.035.029-.07.055-.104.084-.041.033-.077.07-.115.111-.03.029-.061.059-.088.092-.036.039-.069.084-.103.129-.024.033-.05.066-.071.102-.03.047-.056.095-.082.145-.021.038-.04.074-.058.114-.008.018-.019.033-.027.052-.013.032-.021.067-.032.1a2.08 2.08 0 00-.041.127c-.016.053-.025.106-.036.159-.008.043-.018.085-.022.127-.007.057-.01.115-.012.172-.002.025-.006.052-.006.078v13.202a1.994 1.994 0 003.987 0l-.002-8.389 13.059 13.059a1.994 1.994 0 102.821-2.821l-.002.002-13.057-13.057h8.389a1.994 1.994 0 000-3.988H42.441c-.029 0-.055.006-.083.006-.056.004-.11.006-.164.014a1.74 1.74 0 00-.139.022zM18.843 20.644c.047-.01.096-.02.143-.033a1.8 1.8 0 00.152-.049c.027-.01.055-.018.082-.027.014-.008.027-.016.041-.021.051-.021.098-.047.145-.072.041-.021.078-.043.117-.066.043-.027.086-.061.129-.09.035-.029.07-.055.104-.084a1 1 0 00.115-.111.956.956 0 00.088-.092c.037-.039.07-.084.104-.129.023-.033.049-.066.07-.102.031-.047.057-.094.082-.145.021-.037.041-.074.059-.113.008-.018.018-.033.027-.053.012-.031.02-.066.031-.1.016-.041.029-.084.041-.127.016-.053.025-.105.037-.158.008-.043.018-.086.021-.127.008-.057.01-.115.012-.172.002-.025.006-.053.006-.078V5.492a1.993 1.993 0 00-3.986 0l.002 8.39L3.404.822A1.994 1.994 0 10.583 3.643l.002-.002 13.057 13.058H5.253a1.994 1.994 0 000 3.988h13.203c.029 0 .055-.006.082-.006.057-.004.111-.006.164-.014a1.38 1.38 0 00.141-.023z"/></svg>