<svg xmlns="http://www.w3.org/2000/svg" width="100" height="60"><path d="M29.8 27.1c.1.1.1.2.1.4v4.6c0 .1 0 .3-.1.3-.1.1-.2.1-.4.1-.1 0-.2 0-.3-.1-.1-.1-.1-.2-.1-.3v-1.9h-2.6v1.9c0 .1-.1.3-.2.3-.1.1-.2.1-.4.1-.1 0-.3 0-.4-.1-.1-.1-.1-.2-.1-.3v-4.6c0-.1 0-.3.1-.3.1-.1.2-.1.4-.1.1 0 .2 0 .3.1.1.1.1.2.1.3v1.8h2.6v-1.8c0-.1.1-.3.2-.3.1-.1.2-.1.4-.1.1-.1.3-.1.4 0zM34.7 30.7c-.1.1-.2.1-.3.1h-2.6c.1.3.2.6.4.7s.5.3.8.3c.2 0 .4 0 .5-.1s.2-.1.3-.1c.1 0 .1-.1.1-.1.1 0 .2-.1.3-.1.1 0 .2 0 .3.1.1.1.1.2.1.3 0 .1-.1.3-.2.4-.1.1-.3.2-.6.3-.3.1-.5.1-.8.1-.4 0-.8-.1-1.2-.3-.3-.2-.6-.4-.8-.8-.2-.3-.3-.7-.3-1.1 0-.5.1-.9.3-1.2s.4-.6.8-.8c.3-.2.7-.3 1-.3.4 0 .7.1 1 .3.3.2.6.5.7.8.2.3.3.7.3 1.1 0 .2 0 .3-.1.4zm-3-.7h2.1v-.1c0-.2-.1-.4-.3-.6-.2-.2-.4-.2-.7-.2-.6 0-1 .3-1.1.9zM39.5 28.4c.1.1.1.2.1.4v3.4c0 .1 0 .3-.1.3-.1.1-.2.1-.3.1s-.3 0-.3-.1-.1-.2-.1-.3c-.1.2-.3.3-.5.4s-.5.2-.7.2c-.4 0-.7-.1-1-.3-.3-.2-.5-.5-.7-.8-.2-.3-.3-.7-.3-1.1 0-.4.1-.8.3-1.1.2-.3.4-.6.7-.8.3-.2.6-.3 1-.3.3 0 .5 0 .7.1.2.1.4.2.6.4 0-.1 0-.3.1-.3.1-.1.2-.1.3-.1s.1-.2.2-.1zm-1.1 3c.2-.3.3-.6.3-1s-.1-.7-.3-1c-.2-.3-.5-.4-.8-.4-.3 0-.6.1-.8.4-.2.3-.3.6-.3 1s.1.7.3 1c.2.3.5.4.8.4s.6-.1.8-.4zM44.5 26.8c.1.1.1.2.1.4v4.9c0 .1 0 .3-.1.3-.1.1-.2.1-.3.1s-.3 0-.3-.1-.1-.2-.1-.3c-.1.2-.3.3-.5.4s-.5.2-.7.2c-.4 0-.7-.1-1-.3-.3-.2-.5-.5-.7-.8-.2-.3-.3-.7-.3-1.1 0-.4.1-.8.3-1.1.2-.3.4-.6.7-.8.3-.2.6-.3 1-.3.3 0 .5 0 .7.1.2.1.4.2.6.4v-1.6c0-.1 0-.3.1-.3.1-.1.2-.1.3-.1s.1-.1.2 0zm-1.1 4.6c.2-.3.3-.6.3-1s-.1-.7-.3-1c-.2-.3-.5-.4-.8-.4-.3 0-.6.1-.8.4-.2.3-.3.6-.3 1s.1.7.3 1c.2.3.5.4.8.4s.5-.1.8-.4zM45.7 27.7c-.1-.1-.1-.2-.1-.3v-.2c0-.1 0-.3.1-.3s.2-.1.4-.1.3 0 .4.1.1.2.1.3v.2c0 .2 0 .3-.1.3-.1.1-.2.1-.4.1s-.3 0-.4-.1zm.7 4.8c-.1.1-.2.1-.3.1s-.3 0-.3-.1c-.1-.1-.1-.2-.1-.3v-3.3c0-.1 0-.3.1-.3.1-.1.2-.1.3-.1s.3 0 .3.1c.1.1.1.2.1.3v3.3c.1.1 0 .2-.1.3zM51 28.7c.2.3.3.8.3 1.3v2c0 .1 0 .3-.1.3s-.2.1-.3.1-.3 0-.3-.1-.1-.2-.1-.3v-2c0-.3-.1-.5-.2-.7s-.3-.3-.6-.3-.6.1-.7.3c-.2.2-.3.4-.3.7v2c0 .1 0 .3-.1.3-.1.1-.2.1-.3.1s-.3 0-.3-.1c-.1-.1-.1-.2-.1-.3v-3.3c0-.1 0-.3.1-.3.1-.1.2-.1.3-.1s.3 0 .3.1c.1.1.1.2.1.3v.1c.1-.2.3-.4.6-.5s.5-.2.8-.2c.3.1.6.3.9.6zM56.2 28.4c.1.1.1.2.1.4v3.6c0 .7-.2 1.1-.6 1.4-.4.3-.9.5-1.5.5-.2 0-.4 0-.7-.1-.3-.1-.5-.1-.6-.2-.3-.1-.4-.3-.4-.5v-.1c0-.1.1-.2.2-.3.1-.1.2-.1.3-.1h.2s.2.1.4.1c.2.1.5.1.7.1.4 0 .7-.1.9-.2.2-.2.3-.4.3-.7V32c-.1.2-.3.3-.5.4-.2.1-.5.2-.8.2-.4 0-.7-.1-1-.3-.3-.2-.5-.5-.7-.8-.2-.3-.3-.7-.3-1.1 0-.4.1-.8.3-1.1.2-.3.4-.6.7-.8.3-.2.6-.3 1-.3.3 0 .5.1.8.2.2.1.4.2.6.4v-.1c0-.1 0-.3.1-.3.1-.1.2-.1.3-.1s.1 0 .2.1zm-1.1 3c.2-.3.3-.6.3-1s-.1-.7-.3-1c-.2-.3-.5-.4-.9-.4s-.6.1-.9.4c-.2.3-.3.6-.3 1s.1.7.3 1c.2.3.5.4.9.4.3 0 .6-.1.9-.4zM63.7 27.1c.1.1.1.2.1.3 0 .1 0 .2-.1.3-.1.1-.2.1-.4.1H62V32c0 .1-.1.3-.2.3s-.2.1-.4.1-.3 0-.4-.1-.1-.2-.1-.3v-4.2h-1.3c-.1 0-.3 0-.4-.1-.1-.1-.1-.2-.1-.3 0-.1 0-.2.1-.3.1-.1.2-.1.3-.1h3.6c.4 0 .5 0 .6.1zM67.3 30.7c-.1.1-.2.1-.3.1h-2.6c.1.3.2.6.4.7s.5.3.8.3c.2 0 .4 0 .5-.1s.2-.1.3-.1c.1 0 .1-.1.1-.1.1 0 .2-.1.3-.1.1 0 .2 0 .3.1.1.1.1.2.1.3 0 .1-.1.3-.2.4-.1.1-.3.2-.6.3s-.5.1-.8.1c-.4 0-.8-.1-1.2-.3-.3-.2-.6-.4-.8-.8-.2-.3-.3-.7-.3-1.1 0-.5.1-.9.3-1.2.2-.3.4-.6.8-.8s.7-.3 1-.3c.4 0 .7.1 1 .3.3.2.6.5.7.8s.3.7.3 1.1c.1.2 0 .3-.1.4zm-2.9-.7h2.1v-.1c0-.2-.1-.4-.3-.6-.2-.2-.4-.2-.7-.2-.6 0-1 .3-1.1.9zM71.6 32.1c0 .1-.1.2-.2.3s-.2.1-.3.1c-.2 0-.3-.1-.4-.2l-1-1.2-.9 1.2c0 .1-.1.1-.2.1s-.1.1-.2.1-.2 0-.3-.1c-.1-.1-.2-.2-.2-.3 0-.1 0-.2.1-.3l1.1-1.4-1.1-1.3c-.1-.1-.1-.2-.1-.3 0-.1 0-.2.1-.3.1-.1.2-.1.3-.1.2 0 .3.1.4.2l1 1.2.9-1.2c.1-.1.2-.2.4-.2.1 0 .2 0 .3.1.1.1.1.2.1.3 0 .1 0 .2-.1.3l-1.1 1.3 1.2 1.4c.1.1.2.2.2.3zM74.9 31.8c.1.1.1.2.1.3 0 .1-.1.3-.2.4s-.3.1-.5.1c-.3 0-.6-.1-.8-.2-.4-.1-.5-.4-.5-.9v-2.2h-.4c-.1 0-.2 0-.3-.1-.1-.1-.1-.2-.1-.3 0-.1 0-.2.1-.3.1-.1.2-.1.3-.1h.4V28c0-.1 0-.3.1-.3.1-.1.2-.1.3-.1.1 0 .2 0 .3.1s.1.2.1.3v.5h.6c.1 0 .2 0 .3.1.1.1.1.2.1.3 0 .1 0 .2-.1.3-.1.1-.2.1-.3.1H74v2.2c0 .1 0 .2.1.2.1.1.1.1.2.1h.4c0-.1.1-.1.2 0z"/><g><path d="M15.1 37.3v.2h-.9-.1V36v-.1h.2V37.3H15.1zM16.6 37.3c-.1.1-.1.2-.2.2-.1.1-.2.1-.3.1-.1 0-.2 0-.3-.1-.1-.1-.2-.1-.2-.2-.1-.1-.1-.2-.1-.4 0-.1 0-.3.1-.4.1-.1.1-.2.2-.2.1-.1.2-.1.3-.1.1 0 .2 0 .3.1.1.1.2.1.2.2.1.1.1.2.1.4s0 .3-.1.4zm-.2-.6c0-.1-.1-.1-.1-.1-.1 0-.1-.1-.2-.1s-.1 0-.2.1c-.1 0-.1.1-.1.1 0 .1-.1.1-.1.2s0 .2.1.2c0 .1.1.1.1.1.1 0 .1.1.2.1s.1 0 .2-.1c.1 0 .1-.1.1-.1 0-.1.1-.1.1-.2-.1-.1-.1-.1-.1-.2zM17.8 36.3c.1.2 0 .2 0 .2h-.1-.1-.1-.1l-.1.1v.9h-.1-.1v-1.1-.1h.2v.1c0-.1.1-.1.2-.2s.1-.1.2-.1c0 .1 0 .1.1.2zM19.1 37h-.9c0 .1.1.2.1.2.1.1.2.1.2.1h.5v.1s0 .1-.1.1c0 0-.1.1-.2.1h-.2c-.1 0-.3 0-.4-.1-.1-.1-.2-.1-.2-.2s-.1-.2-.1-.3c0-.1 0-.3.1-.4.1-.1.1-.2.2-.2.1-.1.2-.1.3-.1.1 0 .2 0 .3.1.1.1.2.1.2.2.3.1.3.2.2.4.1-.1.1 0 0 0zm-.9-.2h.7c0-.1 0-.1-.1-.2-.1 0-.1-.1-.2-.1-.2 0-.4.1-.4.3zM21.3 36.4c.1.1.1.2.1.4v.7h-.1-.1v-.7c0-.1 0-.2-.1-.2 0-.1-.1-.1-.2-.1s-.2 0-.2.1c-.1.1-.1.1-.1.2v.7h-.1-.1v-.7c0-.1 0-.2-.1-.2 0-.1-.1-.1-.2-.1s-.2 0-.2.1c-.1.1-.1.1-.1.2v.7h-.1-.1v-1.1-.1h.2v.1c0-.1.1-.1.2-.2.1 0 .1-.1.2-.1.2 0 .3.1.4.3 0-.1.1-.1.2-.2s.2-.1.3-.1c0 .1.2.2.2.3zM22.5 36.1c-.1-.1-.1-.1 0 0V36v-.1h.2v.2h-.2zm.2 1.4h-.1-.1v-1.1-.1h.2V37.5zM24 36.3c.1.1.2.1.2.2.1.1.1.2.1.4 0 .1 0 .3-.1.4-.1.1-.1.2-.2.2-.1.1-.2.1-.3.1h-.2s-.1-.1-.2-.1v.6h-.1-.1v-1.6-.1h.2v.1s.1-.1.2-.1.1-.1.2-.1c.1-.1.2 0 .3 0zm-.1.9c.1-.1.1-.2.1-.3s0-.2-.1-.3c-.1-.1-.2-.1-.3-.1s-.2 0-.3.1c-.1.1-.1.2-.1.3s0 .2.1.3c.1.1.2.1.3.1.2 0 .3 0 .3-.1zM24.5 37.3s0-.1.1-.1h.2c.1.1.1.1.2.1h.2c.1 0 .2-.1.2-.1s0-.1-.1-.1c0 0-.1 0-.2-.1-.1 0-.2-.1-.2-.1-.1 0-.1-.1-.2-.1 0-.1-.1-.1-.1-.2s0-.2.1-.2c0-.1.1-.1.2-.1h.5c.1 0 .2.1.2.1v.2h-.1-.1l-.1-.1h-.2c-.1 0-.2 0-.2.1v.1s.1 0 .1.1h.2c.1 0 .2.1.2.1s.1.1.2.1c0 .1.1.1.1.2s0 .2-.1.2-.1.1-.2.1h-.2c-.1 0-.2 0-.3-.1-.3.1-.3.1-.4-.1 0 .1 0 0 0 0zM26.9 36.3v.7c0 .2 0 .3-.1.4s-.2.2-.4.2-.3-.1-.4-.2c-.1-.1-.1-.2-.1-.4v-.6-.1h.2v.7c0 .1 0 .2.1.2 0 0 .1.1.2.1s.2 0 .2-.1c0 0 .1-.1.1-.2v-.6-.1h.1c0-.1.1 0 .1 0zM29.1 36.4c.1.1.1.2.1.4v.7h-.1-.1v-.7c0-.1 0-.2-.1-.2 0-.1-.1-.1-.2-.1s-.2 0-.2.1c-.1.1-.1.1-.1.2v.7h-.1-.1v-.7c0-.1 0-.2-.1-.2 0-.1-.1-.1-.2-.1s-.2 0-.2.1c-.1.1-.1.1-.1.2v.7h-.1-.1v-1.1-.1h.2v.1c0-.1.1-.1.2-.2.1 0 .1-.1.2-.1.2 0 .3.1.4.3 0-.1.1-.1.2-.2s.2-.1.3-.1c.1.1.2.2.2.3zM31.5 35.8V37.5h-.1-.1v-.1s-.1.1-.2.1-.1.1-.2.1-.2 0-.3-.1-.2-.1-.2-.2c-.1-.1-.1-.2-.1-.4 0-.1 0-.3.1-.4.1-.1.1-.2.2-.2s.2-.1.3-.1h.2s.1.1.2.1v-.5-.1h.1s0 .1.1.1zm-.4 1.4c.1-.1.1-.2.1-.3s0-.2-.1-.3c-.1-.1-.2-.1-.3-.1-.1 0-.2 0-.3.1-.1.1-.1.2-.1.3s0 .2.1.3c.1.1.2.1.3.1.2 0 .2 0 .3-.1zM33 37.3c-.1.1-.1.2-.2.2-.1.1-.2.1-.3.1-.1 0-.2 0-.3-.1-.1-.1-.2-.1-.2-.2-.1-.1-.1-.2-.1-.4 0-.1 0-.3.1-.4.1-.1.1-.2.2-.2.1-.1.2-.1.3-.1.1 0 .2 0 .3.1.1.1.2.1.2.2.1.1.1.2.1.4s0 .3-.1.4zm-.2-.6c0-.1-.1-.1-.1-.1-.1 0-.1-.1-.2-.1s-.1 0-.2.1c-.1 0-.1.1-.1.1 0 .1-.1.1-.1.2s0 .2.1.2c0 .1.1.1.1.1.1 0 .1.1.2.1s.1 0 .2-.1c.1 0 .1-.1.1-.1 0-.1.1-.1.1-.2-.1-.1-.1-.1-.1-.2zM33.6 37.5h-.1-.1v-1.6-.1h.2v1.6c.1.1.1.1 0 .1zM35.2 37.3c-.1.1-.1.2-.2.2-.1.1-.2.1-.3.1-.1 0-.2 0-.3-.1-.1-.1-.2-.1-.2-.2-.1-.1-.1-.2-.1-.4 0-.1 0-.3.1-.4.1-.1.1-.2.2-.2.1-.1.2-.1.3-.1.1 0 .2 0 .3.1.1.1.2.1.2.2.1.1.1.2.1.4s0 .3-.1.4zm-.3-.6c0-.1-.1-.1-.1-.1-.1 0-.1-.1-.2-.1s-.1 0-.2.1c-.1 0-.1.1-.1.1 0 .1-.1.1-.1.2s0 .2.1.2c0 .1.1.1.1.1.1 0 .1.1.2.1s.1 0 .2-.1c.1 0 .1-.1.1-.1 0-.1.1-.1.1-.2s0-.1-.1-.2zM36.4 36.3c.1.2 0 .2 0 .2h-.1-.1-.1-.1l-.1.1v.9h-.1-.1v-1.1-.1h.2v.1c0-.1.1-.1.2-.2s.1-.1.2-.1c0 .1 0 .1.1.2zM37.2 37.3s0-.1.1-.1h.2c.1.1.1.1.2.1h.2c.1 0 .2-.1.2-.1s0-.1-.1-.1c0 0-.1 0-.2-.1-.1 0-.2-.1-.2-.1-.1 0-.1-.1-.2-.1 0-.1-.1-.1-.1-.2s0-.2.1-.2c0-.1.1-.1.2-.1h.5c.1 0 .2.1.2.1v.2h-.1-.1l-.1-.1h-.2c-.1 0-.2 0-.2.1v.1s.1 0 .1.1h.2c.1 0 .2.1.2.1s.1.1.2.1c0 .1.1.1.1.2s0 .2-.1.2-.1.1-.2.1h-.2c-.1 0-.2 0-.3-.1-.2.1-.3.1-.4-.1 0 .1 0 0 0 0zM38.5 36.1c0-.1 0-.1 0 0V36v-.1h.2v.2h-.1-.1zm.3 1.4h-.1-.1v-1.1-.1h.2V37.5zM39.8 37.3c.1.1.1.1 0 0v.2h-.2c-.1 0-.2 0-.3-.1-.1 0-.1-.1-.1-.3v-.7h-.1-.1v-.1-.1h.2V36v-.1h.2V36.2H39.7v.2H39.4V37.2h.2c.1.1.2.1.2.1zM42 36.3V37.6h-.1-.1v-.1s-.1.1-.2.1-.1.1-.2.1-.2 0-.3-.1-.2-.1-.2-.2c-.1-.1-.1-.2-.1-.4 0-.1 0-.3.1-.4.1-.1.1-.2.2-.2s.2-.1.3-.1h.2s.1.1.2.1v-.1h.1c.1-.1.1-.1.1 0zm-.3.9c.1-.1.1-.2.1-.3s0-.2-.1-.3c-.1-.1-.2-.1-.3-.1-.1 0-.2 0-.3.1-.1.1-.1.2-.1.3s0 .2.1.3c.1.1.2.1.3.1.1 0 .2 0 .3-.1zM44.3 36.4c.1.1.1.2.1.4v.7h-.1-.1v-.7c0-.1 0-.2-.1-.2 0-.1-.1-.1-.2-.1s-.2 0-.2.1c-.1.1-.1.1-.1.2v.7h-.1-.1v-.7c0-.1 0-.2-.1-.2 0-.1-.1-.1-.2-.1s-.2 0-.2.1c-.1.1-.1.1-.1.2v.7h-.1-.1v-1.1-.1h.2v.1c0-.1.1-.1.2-.2.1 0 .1-.1.2-.1.2 0 .3.1.4.3 0-.1.1-.1.2-.2s.2-.1.3-.1c0 .1.1.2.2.3zM45.9 37H45c0 .1.1.2.1.2.1.1.2.1.2.1h.5v.1s0 .1-.1.1c0 0-.1.1-.2.1h-.2c-.1 0-.3 0-.4-.1-.1-.1-.2-.1-.2-.2s-.1-.2-.1-.3c0-.1 0-.3.1-.4.1-.1.1-.2.2-.2.1-.1.2-.1.3-.1.1 0 .2 0 .3.1.1.1.2.1.2.2.2.1.2.2.2.4 0-.1 0 0 0 0zm-1-.2h.7c0-.1 0-.1-.1-.2-.1 0-.1-.1-.2-.1-.2 0-.3.1-.4.3zM46.9 37.3c0 .1 0 .1 0 0v.2h-.2c-.1 0-.2 0-.3-.1-.1 0-.1-.1-.1-.3v-.7h-.1-.1v-.1-.1h.2V36v-.1h.2V36.2H46.8v.2H46.5V37.2h.2c.1.1.1.1.2.1-.1 0-.1 0 0 0zM47.5 37.7c0 .1-.1.1-.1.2l-.1.1h-.1v-.1-.1c0-.1 0 0 0 0l.1-.1h-.2v-.1-.1l.1-.1h.1c.1 0 .1 0 .2.1s.1.1.1.2c0-.1-.1 0-.1 0zM49.7 37h-.9c0 .1.1.2.1.2.1.1.2.1.2.1h.5v.1s0 .1-.1.1c0 0-.1.1-.2.1h-.2c-.1 0-.3 0-.4-.1-.1-.1-.2-.1-.2-.2s-.1-.2-.1-.3c0-.1 0-.3.1-.4.1-.1.1-.2.2-.2.1-.1.2-.1.3-.1.1 0 .2 0 .3.1.1.1.2.1.2.2.2.1.3.2.2.4.1-.1.1 0 0 0zm-.9-.2h.7c0-.1 0-.1-.1-.2-.1 0-.1-.1-.2-.1-.3 0-.4.1-.4.3zM51.1 36.4c.1.1.1.2.1.4v.7h-.1-.1v-.7c0-.1 0-.2-.1-.2 0-.1-.1-.1-.2-.1s-.2 0-.2.1c-.1.1-.1.1-.1.2v.7h-.1-.1v-1.1-.1h.2v.1c0-.1.1-.1.2-.2.1 0 .2-.1.2-.1l.3.3zM51.5 36.1c0-.1 0-.1 0 0V36v-.1h.2v.2h-.1-.1zm.3 1.4h-.1-.1v-1.1-.1h.2V37.5zM54 36.4c.1.1.1.2.1.4v.7H54h-.1v-.7c0-.1 0-.2-.1-.2 0-.1-.1-.1-.2-.1s-.2 0-.2.1c-.1.1-.1.1-.1.2v.7h-.1-.1v-.7c0-.1 0-.2-.1-.2 0-.1-.1-.1-.2-.1s-.2 0-.2.1c-.1.1-.1.1-.1.2v.7h-.1-.1v-1.1-.1h.2v.1c0-.1.1-.1.2-.2.1 0 .1-.1.2-.1.2 0 .3.1.4.3 0-.1.1-.1.2-.2s.2-.1.3-.1c0 .1.1.2.2.3zM56.3 36.3V37.6h-.1-.1v-.1s-.1.1-.2.1-.1.1-.2.1-.2 0-.3-.1c-.1-.1-.2-.1-.2-.2-.1-.1-.1-.2-.1-.4 0-.1 0-.3.1-.4.1-.1.1-.2.2-.2.1-.1.2-.1.3-.1h.2c.1 0 .1.1.2.1v-.1h.1c0-.1.1-.1.1 0zm-.4.9c.1-.1.1-.2.1-.3s0-.2-.1-.3c-.1-.1-.2-.1-.3-.1-.1 0-.2 0-.3.1-.1.1-.1.2-.1.3s0 .2.1.3.2.1.3.1.3 0 .3-.1zM57.6 36.3c.1 0 .1.1.1.2v.1h-.1-.1-.2c-.1 0-.2 0-.3.1-.1.1-.1.2-.1.3 0 .1 0 .2.1.3.1.1.2.1.3.1h.4v.1s0 .1-.1.1c0 0-.1.1-.2.1h-.2c-.1 0-.2 0-.3-.1-.1-.1-.2-.1-.2-.2-.1-.1-.1-.2-.1-.4 0-.1 0-.3.1-.4.1-.1.1-.2.2-.2.1-.1.2-.1.3-.1.2-.1.3-.1.4 0zM59.8 36.3V38h-.1-.1v-.6s-.1.1-.2.1-.1.1-.2.1-.2 0-.3-.1c-.1-.1-.2-.1-.2-.2-.1-.1-.1-.2-.1-.4 0-.1 0-.3.1-.4.1-.1.1-.2.2-.2.1-.1.2-.1.3-.1h.2s.1.1.2.1v-.1h.1c.1 0 .1.1.1.1zm-.3.9c.1-.1.1-.2.1-.3s0-.2-.1-.3c-.1-.1-.2-.1-.3-.1-.1 0-.2 0-.3.1-.1.1-.1.2-.1.3s0 .2.1.3.2.1.3.1.2 0 .3-.1zM61.3 36.3v.7c0 .2 0 .3-.1.4s-.2.2-.4.2-.3-.1-.4-.2c-.1-.1-.1-.2-.1-.4v-.6-.1h.2v.7c0 .1 0 .2.1.2 0 0 .1.1.2.1s.2 0 .2-.1c0 0 .1-.1.1-.2v-.6-.1h.1c0-.1.1 0 .1 0zM61.7 36.1c0-.1 0-.1 0 0V36v-.1h.2v.2h-.1-.1zm.2 1.4h-.1-.1v-1.1-.1h.2v1.1c.1.1 0 .1 0 .1zM62.2 37.3s0-.1.1-.1h.2c0 .1.1.1.2.1h.2c.1 0 .2-.1.2-.1s0-.1-.1-.1c0 0-.1 0-.2-.1-.1 0-.2-.1-.2-.1-.1 0-.1-.1-.2-.1 0-.1-.1-.1-.1-.2s0-.2.1-.2c0-.1.1-.1.2-.1h.5c.1 0 .2.1.2.1v.2h-.1-.1l-.1-.1h-.2c-.1 0-.2 0-.2.1v.1s.1 0 .1.1h.2c.1 0 .2.1.2.1.1 0 .1.1.2.1 0 .1.1.1.1.2s0 .2-.1.2c0 .1-.1.1-.2.1h-.2c-.1 0-.2 0-.3-.1-.3.1-.4.1-.4-.1 0 .1 0 0 0 0zM64.5 37.5h-.1-.1v-1.6-.1h.2V37.5zM66 37h-1c0 .1.1.2.1.2.1.1.2.1.2.1h.5v.1s0 .1-.1.1c0 0-.1.1-.2.1h-.2c-.1 0-.3 0-.4-.1-.1-.1-.2-.1-.2-.2s-.1-.2-.1-.3c0-.1 0-.3.1-.4.1-.1.1-.2.2-.2s.2-.1.3-.1c.1 0 .2 0 .3.1.1.1.2.1.2.2.3.1.3.2.3.4 0-.1 0 0 0 0zm-1-.2h.7c0-.1 0-.1-.1-.2-.1 0-.1-.1-.2-.1-.2 0-.3.1-.4.3zM67.2 36.3c.1 0 .1.1.1.2v.1h-.1-.1-.2c-.1 0-.2 0-.3.1-.1.1-.1.2-.1.3 0 .1 0 .2.1.3.1.1.2.1.3.1h.4v.1s0 .1-.1.1c0 0-.1.1-.2.1h-.2c-.1 0-.2 0-.3-.1-.1-.1-.2-.1-.2-.2-.1-.1-.1-.2-.1-.4 0-.1 0-.3.1-.4.1-.1.1-.2.2-.2.1-.1.2-.1.3-.1.2-.1.3-.1.4 0zM68.3 37.3c0 .1 0 .1 0 0v.2h-.2c-.1 0-.2 0-.3-.1-.1 0-.1-.1-.1-.3v-.7h-.1-.1v-.1-.1h.2V36v-.1h.2V36.2H68.2v.2H68V37.2h.2c0 .1 0 .1.1.1-.1 0-.1 0 0 0zM69.7 36.3v.7c0 .2 0 .3-.1.4s-.2.2-.4.2-.3-.1-.4-.2c-.1-.1-.1-.2-.1-.4v-.6-.1h.2v.7c0 .1 0 .2.1.2 0 0 .1.1.2.1s.2 0 .2-.1c0 0 .1-.1.1-.2v-.6-.1h.1c0-.1.1 0 .1 0zM69.9 37.3s0-.1.1-.1h.2c0 .1.1.1.2.1h.2c.1 0 .2-.1.2-.1s0-.1-.1-.1c0 0-.1 0-.2-.1-.1 0-.2-.1-.2-.1-.1 0-.1-.1-.2-.1 0-.1-.1-.1-.1-.2s0-.2.1-.2c0-.1.1-.1.2-.1h.5c.1 0 .2.1.2.1v.2h-.1-.1l-.1-.1h-.2c-.1 0-.2 0-.2.1v.1s.1 0 .1.1h.2c.1 0 .2.1.2.1.1 0 .1.1.2.1 0 .1.1.1.1.2s0 .2-.1.2c0 .1-.1.1-.2.1h-.2c-.1 0-.2 0-.3-.1-.2.1-.3.1-.4-.1.1.1 0 0 0 0zM72 36.1c-.1-.1-.1-.1 0 0V36v-.1h.2v.2h-.1-.1zm.2 1.4h-.1-.1v-1.1-.1h.2V37.5zM73.6 36.4c.1.1.1.2.1.4v.7h-.1-.1v-.7c0-.1 0-.2-.1-.2 0-.1-.1-.1-.2-.1s-.2 0-.2.1c-.1.1-.1.1-.1.2v.7h-.1-.1v-1.1-.1h.2v.1c0-.1.1-.1.2-.2.1 0 .2-.1.2-.1l.3.3zM74.4 37.7c0 .1-.1.1-.1.2l-.1.1h-.1v-.1-.1l.1-.1H74v-.1-.1l.1-.1h.1c.1 0 .1 0 .2.1 0 0 .1.1.1.2-.1-.1-.1 0-.1 0zM76.4 36.3c.1.1.2.1.2.2.1.1.1.2.1.4 0 .1 0 .3-.1.4-.1.1-.1.2-.2.2-.1.1-.2.1-.3.1h-.2c-.1 0-.1-.1-.2-.1v.6h-.1-.1v-1.6-.1h.2v.1s.1-.1.2-.1.1-.1.2-.1c.1-.1.2 0 .3 0zm-.1.9c.1-.1.1-.2.1-.3s0-.2-.1-.3-.2-.1-.3-.1-.2 0-.3.1-.1.2-.1.3 0 .2.1.3.2.1.3.1c.2 0 .3 0 .3-.1zM78 36.4c.1.1.1.2.1.4v.7H78h-.1v-.7c0-.1 0-.2-.1-.2 0-.1-.1-.1-.2-.1s-.2 0-.2.1c-.1.1-.1.1-.1.2v.7h-.1-.1v-1.6-.1h.2v.7c0-.1.1-.1.2-.2.1 0 .1-.1.2-.1s.3.1.3.2zM79.6 36.3V37.6h-.1-.1v-.1s-.1.1-.2.1-.1.1-.2.1-.2 0-.3-.1c-.1-.1-.2-.1-.2-.2-.1-.1-.1-.2-.1-.4 0-.1 0-.3.1-.4.1-.1.1-.2.2-.2.1-.1.2-.1.3-.1h.2c.1 0 .1.1.2.1v-.1h.1c.1-.1.1-.1.1 0zm-.3.9c.1-.1.1-.2.1-.3s0-.2-.1-.3c-.1-.1-.2-.1-.3-.1-.1 0-.2 0-.3.1-.1.1-.1.2-.1.3s0 .2.1.3.2.1.3.1.2 0 .3-.1zM80.8 36.3c.1 0 .1 0 0 0 .1.2 0 .2 0 .2h-.1-.1-.1-.1l-.1.1v.9h-.1-.1v-1.1-.1h.2v.1c0-.1.1-.1.2-.2.1 0 .1-.1.2-.1 0 .1.1.1.1.2zM82.2 37h-.9c0 .1.1.2.1.2.1.1.2.1.2.1h.5v.1s0 .1-.1.1c0 0-.1.1-.2.1h-.2c-.1 0-.3 0-.4-.1-.1-.1-.2-.1-.2-.2v-.4c0-.1 0-.3.1-.4.1-.1.1-.2.2-.2s.2-.1.3-.1c.1 0 .2 0 .3.1.1.1.2.1.2.2.1.2.1.3.1.5 0-.1 0 0 0 0zm-.9-.2h.7c0-.1 0-.1-.1-.2-.1 0-.1-.1-.2-.1-.3 0-.4.1-.4.3zM83.2 37.3c0 .1 0 .1 0 0v.2H83c-.1 0-.2 0-.3-.1-.1 0-.1-.1-.1-.3v-.7h-.1-.1v-.1-.1h.2V36v-.1h.2V36.2H83.1v.2H82.8V37.2h.2c.1.1.1.1.2.1-.1 0 0 0 0 0zM84.3 36.3c.1 0 .1 0 0 0 .1.2 0 .2 0 .2h-.1-.1-.1-.1l-.1.1v.9h-.1-.1v-1.1-.1h.2v.1c0-.1.1-.1.2-.2.1 0 .1-.1.2-.1 0 .1.1.1.1.2zM85.7 36.3V37.6h-.1-.1v-.1s-.1.1-.2.1-.1.1-.2.1-.2 0-.3-.1c-.1-.1-.2-.1-.2-.2-.1-.1-.1-.2-.1-.4 0-.1 0-.3.1-.4.1-.1.1-.2.2-.2.1-.1.2-.1.3-.1h.2c.1 0 .1.1.2.1v-.1h.1c.1-.1.1-.1.1 0zm-.3.9c.1-.1.1-.2.1-.3s0-.2-.1-.3c-.1-.1-.2-.1-.3-.1-.1 0-.2 0-.3.1-.1.1-.1.2-.1.3s0 .2.1.3.2.1.3.1.2 0 .3-.1zM33.7 40.5h-.1-.1v-1.6-.1h.2v1.6c.1.1 0 .1 0 .1zM35.3 40.3c-.1.1-.1.2-.2.2-.1.1-.2.1-.3.1-.1 0-.2 0-.3-.1-.1-.1-.2-.1-.2-.2-.3-.1-.3-.2-.3-.4 0-.1 0-.3.1-.4.1-.1.1-.2.2-.2.1-.1.2-.1.3-.1.1 0 .2 0 .3.1.1.1.2.1.2.2.1.1.1.2.1.4.2.2.1.3.1.4zm-.3-.6c0-.1-.1-.1-.1-.1-.1 0-.1-.1-.2-.1s-.1 0-.2.1c-.1 0-.1.1-.1.1 0 .1-.1.1-.1.2s0 .2.1.2c0 .1.1.1.1.1.1 0 .1.1.2.1s.1 0 .2-.1c.1 0 .1-.1.1-.1 0-.1.1-.1.1-.2s0-.1-.1-.2zM36.4 39.3c.1 0 .1 0 0 0 .1.2 0 .2 0 .2h-.1-.1-.1-.1v1h-.1-.1v-1.1-.1h.2v.1c0-.1.1-.1.2-.2s.1-.1.2-.1v.2zM37.8 40h-.9c0 .1.1.2.1.2.1.1.2.1.2.1h.5v.1s0 .1-.1.1c0 0-.1.1-.2.1h-.2c-.1 0-.3 0-.4-.1-.1-.1-.2-.1-.2-.2s-.1-.2-.1-.3c0-.1 0-.3.1-.4.1-.1.1-.2.2-.2.1-.1.2-.1.3-.1.1 0 .2 0 .3.1.1.1.2.1.2.2.2.1.2.2.2.4 0-.1 0 0 0 0zm-.9-.2h.7c0-.1 0-.1-.1-.2-.1 0-.1-.1-.2-.1-.3 0-.4.1-.4.3zM40 39.4c.1.1.1.2.1.4v.7H40h-.1v-.7c0-.1 0-.2-.1-.2 0-.1-.1-.1-.2-.1s-.2 0-.2.1c-.1.1-.1.1-.1.2v.7h-.1-.1v-.7c0-.1 0-.2-.1-.2 0-.1-.1-.1-.2-.1s-.2 0-.2.1c-.1.1-.1.1-.1.2v.7h-.1-.1v-1.1-.1h.2v.1c0-.1.1-.1.2-.2.1 0 .1-.1.2-.1.2 0 .3.1.4.3 0-.1.1-.1.2-.2s.2-.1.3-.1c0 .1.1.2.2.3zM41 40.3s0-.1.1-.1h.2c.1.1.1.1.2.1h.2c.1 0 .2-.1.2-.1s0-.1-.1-.1c0 0-.1 0-.2-.1-.1 0-.2-.1-.2-.1-.1 0-.1-.1-.2-.1 0-.1-.1-.1-.1-.2s0-.2.1-.2c0-.1.1-.1.2-.1h.5c.1 0 .2.1.2.1v.2H42h-.1l-.1-.1h-.2c-.1 0-.2 0-.2.1v.1s.1 0 .1.1h.2c.1 0 .2.1.2.1s.1 0 .1.1.1.1.1.2 0 .2-.1.2-.1.1-.2.1h-.2c-.1 0-.2 0-.3-.1-.1.1-.2.1-.3-.1 0 .1 0 0 0 0zM43.5 40.3c-.1.1-.1.2-.2.2-.1.1-.2.1-.3.1-.1 0-.2 0-.3-.1-.1-.1-.2-.1-.2-.2-.1-.1-.1-.2-.1-.4 0-.1 0-.3.1-.4.1-.1.1-.2.2-.2.1-.1.2-.1.3-.1.1 0 .2 0 .3.1.1.1.2.1.2.2.1.1.1.2.1.4s0 .3-.1.4zm-.3-.6c0-.1-.1-.1-.1-.1-.1 0-.1-.1-.2-.1s-.1 0-.2.1c-.1 0-.1.1-.1.1 0 .1-.1.1-.1.2s0 .2.1.2c0 .1.1.1.1.1.1 0 .1.1.2.1s.1 0 .2-.1c.1 0 .1-.1.1-.1 0-.1.1-.1.1-.2s0-.1-.1-.2zM45 38.8V40.5h-.1-.1v-.1s-.1.1-.2.1-.1.1-.2.1-.2 0-.3-.1-.2-.1-.2-.2c-.1-.1-.1-.2-.1-.4 0-.1 0-.3.1-.4.1-.1.1-.2.2-.2s.2-.1.3-.1h.2s.1.1.2.1v-.5-.1h.1c.1 0 .1.1.1.1zm-.3 1.4c.1-.1.1-.2.1-.3s0-.2-.1-.3c-.1-.1-.2-.1-.3-.1-.1 0-.2 0-.3.1-.1.1-.1.2-.1.3s0 .2.1.3c.1.1.2.1.3.1.1 0 .2 0 .3-.1zM46.6 39.3V40.6h-.1-.1v-.1s-.1.1-.2.1-.1.1-.2.1-.2 0-.3-.1-.2-.1-.2-.2c-.1-.1-.1-.2-.1-.4 0-.1 0-.3.1-.4.1-.1.1-.2.2-.2s.2-.1.3-.1h.2s.1.1.2.1v-.1h.1c0-.1.1-.1.1 0zm-.4.9c.1-.1.1-.2.1-.3s0-.2-.1-.3c-.1-.1-.2-.1-.3-.1-.1 0-.2 0-.3.1-.1.1-.1.2-.1.3s0 .2.1.3c.1.1.2.1.3.1.2 0 .3 0 .3-.1zM47.2 40.5h-.1-.1v-1.6-.1h.2v1.6c.1.1.1.1 0 .1zM48.8 40h-.9c0 .1.1.2.1.2.1.1.2.1.2.1h.5v.1s0 .1-.1.1c0 0-.1.1-.2.1h-.2c-.1 0-.3 0-.4-.1-.1-.1-.2-.1-.2-.2s-.1-.2-.1-.3c0-.1 0-.3.1-.4.1-.1.1-.2.2-.2.1-.1.2-.1.3-.1.1 0 .2 0 .3.1.1.1.2.1.2.2.2.1.2.2.2.4 0-.1 0 0 0 0zm-1-.2h.7c0-.1 0-.1-.1-.2-.1 0-.1-.1-.2-.1-.2 0-.3.1-.4.3zM49 40.3s0-.1.1-.1h.2c.1.1.1.1.2.1h.2c.1 0 .2-.1.2-.1s0-.1-.1-.1c0 0-.1 0-.2-.1-.1 0-.2-.1-.2-.1-.1 0-.1-.1-.2-.1 0-.1-.1-.1-.1-.2s0-.2.1-.2c0-.1.1-.1.2-.1h.5c.1 0 .2.1.2.1v.2H50h-.1l-.1-.1h-.2c-.1 0-.2 0-.2.1v.1s.1 0 .1.1h.2c.1 0 .2.1.2.1s.1.1.2.1c0 .1.1.1.1.2s0 .2-.1.2-.1.1-.2.1h-.2c-.1 0-.2 0-.3-.1-.3.1-.4.1-.4-.1 0 .1 0 0 0 0zM52.8 39.4c.1.1.1.2.1.4v.7h-.1-.1v-.7c0-.1 0-.2-.1-.2 0-.1-.1-.1-.2-.1s-.2 0-.2.1c-.1.1-.1.1-.1.2v.7H52h-.1v-.7c0-.1 0-.2-.1-.2 0-.1-.1-.1-.2-.1s-.2 0-.2.1c-.1.1-.1.1-.1.2v.7h-.1-.1v-1.1-.1h.2v.1c0-.1.1-.1.2-.2.1 0 .1-.1.2-.1.2 0 .3.1.4.3 0-.1.1-.1.2-.2s.2-.1.3-.1c.1.1.2.2.2.3zM54.4 40h-.9c0 .1.1.2.1.2.1.1.2.1.2.1h.5v.1s0 .1-.1.1c0 0-.1.1-.2.1h-.2c-.1 0-.3 0-.4-.1-.1-.1-.2-.1-.2-.2s-.1-.2-.1-.3c0-.1 0-.3.1-.4.1-.1.1-.2.2-.2s.2-.1.3-.1c.1 0 .2 0 .3.1.1.1.2.1.2.2.2.1.3.2.2.4.1-.1.1 0 0 0zm-.9-.2h.7c0-.1 0-.1-.1-.2-.1 0-.1-.1-.2-.1-.3 0-.4.1-.4.3zM55.4 40.3c0 .1.1.1 0 0v.2h-.2c-.1 0-.2 0-.3-.1-.1 0-.1-.1-.1-.3v-.7h-.1-.1v-.1-.1h.2V39v-.1h.2V39.2H55.3v.2H55V40.2h.2c.1.1.1.1.2.1zM56.8 39.3v.7c0 .2 0 .3-.1.4s-.2.2-.4.2-.3-.1-.4-.2c-.1-.1-.1-.2-.1-.4v-.6-.1h.2v.7c0 .1 0 .2.1.2 0 0 .1.1.2.1s.2 0 .2-.1c0 0 .1-.1.1-.2v-.6-.1h.1c.1-.1.1 0 .1 0zM57.1 40.3s0-.1.1-.1h.2c0 .1.1.1.2.1h.2c.1 0 .2-.1.2-.1s0-.1-.1-.1c0 0-.1 0-.2-.1-.1 0-.2-.1-.2-.1-.1 0-.1-.1-.2-.1 0-.1-.1-.1-.1-.2s0-.2.1-.2c0-.1.1-.1.2-.1h.5c.1 0 .2.1.2.1v.2h-.1-.1l-.1-.1h-.2c-.1 0-.2 0-.2.1v.1s.1 0 .1.1h.2c.1 0 .2.1.2.1.1 0 .1.1.2.1 0 .1.1.1.1.2s0 .2-.1.2c0 .1-.1.1-.2.1h-.2c-.1 0-.2 0-.3-.1-.2.1-.3.1-.4-.1 0 .1 0 0 0 0zM59.8 40.3c0 .1.1.1 0 0v.2h-.2c-.1 0-.2 0-.3-.1-.1 0-.1-.1-.1-.3v-.7h-.1-.1v-.1-.1h.2V39v-.1h.2V39.2H59.7v.2H59.4V40.2h.2c.1.1.1.1.2.1zM61.3 40.3c-.1.1-.1.2-.2.2-.1.1-.2.1-.3.1-.1 0-.2 0-.3-.1-.1-.1-.2-.1-.2-.2-.1-.1-.1-.2-.1-.4 0-.1 0-.3.1-.4.1-.1.1-.2.2-.2.1-.1.2-.1.3-.1.1 0 .2 0 .3.1s.2.1.2.2c.1.1.1.2.1.4s0 .3-.1.4zm-.2-.6c0-.1-.1-.1-.1-.1-.1 0-.1-.1-.2-.1s-.1 0-.2.1c-.1 0-.1.1-.1.1 0 .1-.1.1-.1.2s0 .2.1.2c0 .1.1.1.1.1.1 0 .1.1.2.1s.1 0 .2-.1c.1 0 .1-.1.1-.1 0-.1.1-.1.1-.2-.1-.1-.1-.1-.1-.2zM62.5 39.3c.1.2 0 .2 0 .2h-.1-.1-.1-.1l-.1.1v.9h-.1-.1v-1.1-.1h.2v.1c0-.1.1-.1.2-.2.1 0 .1-.1.2-.1 0 .1 0 .1.1.2zM63.5 40.3c0 .1 0 .1 0 0v.2h-.2c-.1 0-.2 0-.3-.1-.1 0-.1-.1-.1-.3v-.7h-.1-.1v-.1-.1h.2V39v-.1h.2V39.2H63.4v.2H63.1V40.2h.2c.1.1.1.1.2.1-.1 0-.1 0 0 0zM64.9 40.3c-.1.1-.1.2-.2.2-.1.1-.2.1-.3.1-.1 0-.2 0-.3-.1-.1-.1-.2-.1-.2-.2-.1-.1-.1-.2-.1-.4 0-.1 0-.3.1-.4.1-.1.1-.2.2-.2.1-.1.2-.1.3-.1.1 0 .2 0 .3.1s.2.1.2.2c.1.1.1.2.1.4s0 .3-.1.4zm-.2-.6c0-.1-.1-.1-.1-.1-.1 0-.1-.1-.2-.1s-.1 0-.2.1c-.1 0-.1.1-.1.1 0 .1-.1.1-.1.2s0 .2.1.2c0 .1.1.1.1.1.1 0 .1.1.2.1s.1 0 .2-.1c.1 0 .1-.1.1-.1 0-.1.1-.1.1-.2-.1-.1-.1-.1-.1-.2zM66.1 39.3s.1 0 0 0c.1.2 0 .2 0 .2H66h-.1-.1-.1l-.1.1v.9h-.1-.1v-1.1-.1h.2v.1c0-.1.1-.1.2-.2.1 0 .1-.1.2-.1 0 .1.1.1.1.2zM66.1 40.5v-.1-.1h.2v.2h-.1c0 .1-.1.1-.1 0z"/></g><path d="M58.2 53H41.8c-2.2 0-4-1.8-4-4v0c0-2.2 1.8-4 4-4h16.5c2.2 0 4 1.8 4 4v0c0 2.2-1.9 4-4.1 4z" fill="none" stroke="#000" stroke-width=".75" stroke-miterlimit="10"/><g><path d="M43.4 49v.6c0 .1 0 .1-.1.1-.1.2-.3.3-.5.3s-.3 0-.5-.1c-.1-.1-.3-.2-.3-.3-.1-.1-.1-.3-.1-.5s0-.3.1-.5l.3-.3c.1-.1.3-.1.5-.1s.3 0 .4.1l.1.1v.2h-.1-.1c-.1 0-.2-.1-.3-.1-.1 0-.2 0-.3.1-.1.1-.2.1-.2.2s-.1.2-.1.3 0 .2.1.3.1.2.2.2c.1.1.2.1.3.1h.2v-.3h-.2-.1v-.1-.1h.5c.1-.2.1-.2.2-.2zM44.8 49.7v.2h-.9-.1v-1.5-.1h1v.2H44v.4h.7v.2H44v.5h.7c0 .1.1.1.1.1zM46.4 48.2v.2h-.5V49.8h-.1-.1V48.4h-.4-.1v-.1-.1H46.4c-.1 0 0 0 0 0zM47.7 49.9c-.1 0-.2-.1-.3-.2l-.1-.1v-.1h.2c.1.1.1.1.2.1h.2c.1 0 .2 0 .2-.1.1 0 .1-.1.1-.2s0-.1-.1-.2c-.1 0-.2-.1-.3-.1-.4-.1-.5-.2-.5-.5 0-.1 0-.2.1-.3l.2-.2c.1 0 .2-.1.3-.1h.3c.1 0 .2.1.2.1l.1.1v.1h-.1-.1s-.1-.1-.2-.1h-.2c-.1 0-.2 0-.2.1s-.1.1-.1.2 0 .1.1.2c.1 0 .2.1.3.1.1 0 .3.1.3.1.1 0 .2.1.2.2s.1.2.1.3c0 .1 0 .2-.1.3l-.2.2c-.1.2-.2.2-.3.2-.1 0-.3 0-.3-.1zM50.2 48.2v.2h-.5V49.8h-.1-.1V48.4h-.4-.1v-.1-.1H50.2c-.1 0-.1 0 0 0zM51.7 49.8v.1h-.1-.1l-.1-.1-.1-.3h-.7l-.1.3s0 .1-.1.1h-.1-.1v-.1l.6-1.5s0-.1.1-.1h.2l.1.1.5 1.5zm-1-.5h.5l-.3-.6-.2.6zM53.4 49.8v.1h-.1-.1c-.1-.1-.2-.2-.2-.4 0-.1 0-.1-.1-.1 0 0-.1-.1-.2-.1h-.5v.6h-.1-.1l-.1-.1v-1.4-.1H52.7c.1 0 .2 0 .2.1.1 0 .1.1.2.2 0 .1.1.2.1.3 0 .1 0 .2-.1.2s-.1.1-.2.2c.1.1.2.2.2.3v.2c.2-.1.2-.1.3 0-.1-.1-.1-.1 0 0zm-.5-.8l.1-.1v-.2-.1s0-.1-.1-.1h-.6v.6l.6-.1c-.1.1 0 0 0 0zM54.9 48.2v.2h-.5V49.8h-.1-.1V48.4h-.4-.1v-.1-.1H54.9c-.1 0-.1 0 0 0zM56.3 49.7v.2h-.9-.1v-1.5-.1h1v.2H55.5v.4h.7v.2h-.7v.5h.7c0 .1.1.1.1.1zM57.8 48.3l.3.3c.1.1.1.3.1.4s0 .3-.1.4c-.1.1-.1.2-.3.3-.1.1-.2.1-.4.1h-.6-.1v-1.5-.1h.7c.1 0 .3 0 .4.1zm-.1 1.2c.1-.1.1-.3.1-.4s0-.3-.1-.4c-.1-.1-.2-.2-.3-.2H57v1.2h.4c.1 0 .2-.1.3-.2z"/></g></svg>