<svg xmlns="http://www.w3.org/2000/svg" viewBox="0 0 100 100"><path d="M50 100C22.4 100 0 77.6 0 50S22.4 0 50 0s50 22.4 50 50-22.4 50-50 50zm0-93.4C26 6.6 6.6 26 6.6 50S26 93.4 50 93.4 93.4 74 93.4 50 74 6.6 50 6.6z"/><path d="M54.4 50l14.1-14.1c1.2-1.2 1.2-3.1 0-4.2l-.4-.4c-1.2-1.2-3.1-1.2-4.2 0L49.8 45.4 35.7 31.3c-1.2-1.2-3.1-1.2-4.2 0l-.4.4c-1.2 1.2-1.2 3.1 0 4.2L45.2 50 31.1 64.1c-1.2 1.2-1.2 3.1 0 4.2l.4.4c1.2 1.2 3.1 1.2 4.2 0l14.1-14.1 14.1 14.1c1.2 1.2 3.1 1.2 4.2 0l.4-.4c1.2-1.2 1.2-3.1 0-4.2L54.4 50z"/></svg>