<svg xmlns="http://www.w3.org/2000/svg" xmlns:xlink="http://www.w3.org/1999/xlink" width="100" height="60"><path d="M29.392 11.003a.507.507 0 00-.352.14.45.45 0 00-.152.348v1.84h-2.552v-1.84a.457.457 0 00-.148-.348.482.482 0 00-.34-.14.508.508 0 00-.368.14.465.465 0 00-.144.348v4.624c0 .139.045.254.136.348.091.094.211.14.36.14.133 0 .25-.046.352-.14a.454.454 0 00.152-.348v-1.864h2.552v1.864c0 .139.049.254.148.348.099.094.212.14.34.14a.502.502 0 00.372-.14.473.473 0 00.14-.348v-4.624a.477.477 0 00-.136-.348.481.481 0 00-.36-.14zM34.24 12.872a2.105 2.105 0 00-.644-.46 1.821 1.821 0 00-.772-.168c-.352 0-.686.091-1 .272s-.569.441-.764.78c-.194.339-.292.748-.292 1.228 0 .411.089.779.268 1.104.179.326.435.583.768.772.333.189.727.284 1.18.284.267 0 .525-.044.776-.132.25-.088.445-.191.584-.308.149-.117.224-.248.224-.392 0-.106-.039-.2-.116-.28a.39.39 0 00-.292-.12.611.611 0 00-.272.072 3.774 3.774 0 00-.196.116 1.077 1.077 0 01-.284.116 1.86 1.86 0 01-.472.048 1.236 1.236 0 01-1.068-.612 1.22 1.22 0 01-.142-.396h2.634c.128 0 .24-.04.336-.12a.413.413 0 00.152-.312c0-.288-.055-.56-.164-.816a2.253 2.253 0 00-.444-.676zm-2.224.531a.867.867 0 01.36-.216 1.54 1.54 0 01.448-.064 1.076 1.076 0 01.836.4.73.73 0 01.164.416v.056h-2.09c.013-.063.023-.13.042-.184.058-.17.139-.306.24-.408zM39.144 12.244a.457.457 0 00-.344.14.479.479 0 00-.136.348v.034c-.053-.052-.089-.104-.156-.154a1.858 1.858 0 00-1.132-.368c-.357 0-.683.095-.976.284-.293.189-.527.451-.7.784s-.26.719-.26 1.156c0 .432.087.815.26 1.148.173.333.409.595.708.784a1.83 1.83 0 001 .284c.203 0 .391-.034.564-.1s.324-.148.452-.244c.101-.076.172-.153.24-.23v.007c0 .139.045.254.136.348.09.094.205.14.344.14s.253-.046.344-.14a.481.481 0 00.136-.348v-3.384a.476.476 0 00-.136-.352.462.462 0 00-.344-.137zm-1 3.383a1.079 1.079 0 01-.616.176c-.229 0-.432-.059-.608-.176a1.187 1.187 0 01-.412-.48 1.528 1.528 0 01-.148-.68c0-.256.049-.485.148-.688.099-.203.236-.362.412-.48.176-.117.379-.176.608-.176.234 0 .44.059.616.176.176.118.313.277.412.48.099.203.148.432.148.688 0 .251-.049.478-.148.68s-.236.363-.412.48zM44.128 10.684a.46.46 0 00-.344.14.477.477 0 00-.136.348v1.594c-.053-.052-.089-.104-.156-.154a1.858 1.858 0 00-1.132-.368c-.357 0-.683.095-.976.284-.293.189-.527.451-.7.784s-.26.719-.26 1.156c0 .432.087.815.26 1.148.173.333.409.595.708.784a1.83 1.83 0 001 .284c.203 0 .391-.034.564-.1s.324-.148.452-.244c.101-.076.172-.153.24-.23v.007c0 .139.045.254.136.348.09.094.205.14.344.14s.253-.046.344-.14a.481.481 0 00.136-.348v-4.944a.476.476 0 00-.136-.352.462.462 0 00-.344-.137zm-1 4.943a1.079 1.079 0 01-.616.176c-.229 0-.432-.059-.608-.176a1.187 1.187 0 01-.412-.48 1.528 1.528 0 01-.148-.68c0-.256.049-.485.148-.688.099-.203.236-.362.412-.48.176-.117.379-.176.608-.176.234 0 .44.059.616.176.176.118.313.277.412.48.099.203.148.432.148.688 0 .251-.049.478-.148.68s-.236.363-.412.48zM46.072 12.324a.457.457 0 00-.344.14.479.479 0 00-.136.348v3.304c0 .139.045.254.136.348.09.094.205.14.344.14s.253-.046.344-.14a.481.481 0 00.136-.348v-3.304a.479.479 0 00-.136-.348.458.458 0 00-.344-.14zM46.072 10.852c-.17 0-.297.028-.38.084s-.124.161-.124.316v.152c0 .149.037.253.112.312.075.059.203.088.384.088s.312-.028.392-.084c.08-.056.12-.162.12-.316v-.152c0-.149-.038-.253-.112-.312s-.205-.088-.392-.088zM50.724 12.492c-.205-.166-.506-.248-.9-.248-.182 0-.35.028-.504.084a1.616 1.616 0 00-.416.22 2.011 2.011 0 00-.32.292c-.039.044-.057.082-.088.124v-.151a.479.479 0 00-.136-.348c-.091-.093-.206-.14-.344-.14s-.253.046-.344.14a.483.483 0 00-.136.348v3.304c0 .139.045.254.136.348.091.094.206.14.344.14s.253-.046.344-.14a.481.481 0 00.136-.348v-2.048a.98.98 0 01.116-.476.877.877 0 01.336-.34 1.06 1.06 0 01.54-.128c.218 0 .386.043.504.128a.658.658 0 01.244.34c.046.142.068.3.068.476v2.048c0 .139.045.254.136.348.091.094.205.14.344.14s.254-.046.345-.14a.481.481 0 00.136-.348v-2.048a3.39 3.39 0 00-.116-.916 1.27 1.27 0 00-.425-.661zM55.848 12.244a.458.458 0 00-.345.14.479.479 0 00-.136.348v.111c-.067-.077-.131-.155-.228-.231-.137-.106-.298-.194-.484-.264s-.392-.104-.616-.104c-.368 0-.701.095-1 .284-.299.189-.536.451-.712.784s-.264.719-.264 1.156c0 .432.088.815.264 1.148.176.333.416.595.72.784.305.189.646.284 1.024.284.192 0 .373-.034.544-.1s.318-.148.444-.244c.125-.096.224-.193.296-.292.008-.011.005-.017.012-.027v.399c0 .283-.096.504-.288.664s-.488.24-.888.24c-.112 0-.241-.02-.389-.06a3.975 3.975 0 01-.403-.132 3.86 3.86 0 00-.265-.096.398.398 0 00-.336.02c-.106.056-.184.161-.231.316a.395.395 0 00.036.332c.061.104.172.19.332.26.08.032.197.067.352.104.154.038.317.069.488.096.171.026.309.04.416.04.373 0 .723-.063 1.048-.188.325-.125.588-.328.788-.608.2-.28.3-.652.3-1.116v-3.56a.464.464 0 00-.479-.488zm-.593 2.903a1.184 1.184 0 01-.424.48 1.149 1.149 0 01-.64.176 1.14 1.14 0 01-1.057-.656 1.503 1.503 0 01-.151-.68c0-.256.051-.485.151-.688a1.14 1.14 0 011.057-.656c.245 0 .458.059.64.176.182.118.323.277.424.48.102.203.152.432.152.688a1.5 1.5 0 01-.152.68zM63.715 11.799a.42.42 0 00.14-.332.433.433 0 00-.14-.336.498.498 0 00-.348-.128h-3.553a.51.51 0 00-.348.124c-.093.083-.14.193-.14.332s.047.251.14.336a.498.498 0 00.348.128h1.257v4.192c0 .139.048.254.144.348.096.094.219.14.368.14a.53.53 0 00.38-.14.457.457 0 00.148-.348v-4.192h1.256a.505.505 0 00.348-.124zM66.895 12.872a2.105 2.105 0 00-.644-.46 1.821 1.821 0 00-.772-.168c-.352 0-.686.091-1 .272s-.569.441-.764.78c-.195.339-.292.748-.292 1.228 0 .411.089.779.268 1.104.179.326.435.583.769.772.333.189.727.284 1.18.284.267 0 .525-.044.776-.132.25-.088.444-.191.584-.308.148-.117.224-.248.224-.392 0-.106-.039-.2-.116-.28a.39.39 0 00-.292-.12.604.604 0 00-.271.072c-.06.032-.124.071-.196.116s-.167.084-.284.116a1.854 1.854 0 01-.472.048 1.233 1.233 0 01-1.068-.612 1.243 1.243 0 01-.142-.396h2.634c.128 0 .24-.04.336-.12a.413.413 0 00.152-.312c0-.288-.055-.56-.164-.816a2.297 2.297 0 00-.446-.676zm-2.224.531a.864.864 0 01.359-.216 1.54 1.54 0 01.448-.064 1.067 1.067 0 01.836.4.73.73 0 01.164.416v.056h-2.09c.013-.063.023-.13.042-.184.059-.17.139-.306.241-.408zM70.303 14.413l1.104-1.345c.043-.048.072-.099.088-.152s.024-.106.024-.16a.41.41 0 00-.133-.3.438.438 0 00-.323-.132c-.149 0-.277.072-.384.216l-.911 1.208-.985-1.224a.49.49 0 00-.733-.064.446.446 0 00-.147.344c0 .106.034.203.104.288l1.153 1.433-1.113 1.359a.47.47 0 00-.12.304c0 .117.053.217.156.3a.464.464 0 00.7-.076l.939-1.188.957 1.188a.476.476 0 00.392.208.48.48 0 00.336-.144.456.456 0 00.048-.632l-1.152-1.431zM74.662 15.7a.444.444 0 00-.184.036.428.428 0 01-.177.036.424.424 0 01-.164-.032.246.246 0 01-.119-.104.341.341 0 01-.044-.184v-2.168h.567a.445.445 0 00.32-.124.414.414 0 00.128-.308.435.435 0 00-.448-.448h-.567v-.512c0-.139-.045-.255-.133-.348s-.201-.14-.34-.14-.255.047-.348.14a.47.47 0 00-.141.348v.512h-.367a.444.444 0 00-.32.124.414.414 0 00-.128.308.435.435 0 00.448.448h.367v2.208c0 .261.04.467.12.616.08.149.181.26.301.332a.983.983 0 00.384.136c.136.019.26.028.372.028.187 0 .361-.048.523-.144.163-.096.244-.219.244-.368 0-.123-.03-.218-.092-.288s-.128-.104-.202-.104z"/><g><path d="M20.802 24.585c.043 0 .08-.014.109-.041a.14.14 0 00.044-.104.14.14 0 00-.044-.106.154.154 0 00-.109-.041h-.652v-1.305a.143.143 0 00-.046-.108.15.15 0 00-.106-.044.158.158 0 00-.115.044.144.144 0 00-.045.108v1.445c0 .043.015.08.044.108a.147.147 0 00.108.044h.812zM22.166 23.311a.678.678 0 00-.344-.088.67.67 0 00-.68.694c0 .136.03.257.091.361a.66.66 0 00.589.331.69.69 0 00.344-.087.652.652 0 00.245-.244c.061-.104.091-.225.091-.361s-.03-.257-.091-.361a.677.677 0 00-.245-.245zm-.016.825a.364.364 0 01-.328.199.364.364 0 01-.328-.199.451.451 0 01-.051-.219c0-.085.017-.159.051-.221a.36.36 0 01.328-.198.367.367 0 01.328.198.454.454 0 01.051.221.428.428 0 01-.051.219zM22.902 24.585a.143.143 0 00.107-.044.15.15 0 00.042-.108v-.593c0-.06.008-.112.024-.156a.35.35 0 01.063-.111c.026-.03.054-.052.085-.066a.219.219 0 01.18-.003.197.197 0 00.086.018.143.143 0 00.093-.036c.028-.024.042-.064.042-.119 0-.038-.017-.071-.051-.1s-.076-.042-.126-.042a.534.534 0 00-.242.061.416.416 0 00-.099.078.415.415 0 00-.054.08V23.4a.152.152 0 00-.042-.109c-.028-.029-.064-.043-.107-.043s-.079.015-.107.043a.15.15 0 00-.042.109v1.033a.148.148 0 00.148.152zM24.792 23.419c-.058-.061-.125-.109-.201-.144s-.156-.052-.241-.052a.644.644 0 00-.552.329.758.758 0 00-.091.384c0 .128.028.243.084.345a.611.611 0 00.24.241c.104.06.227.089.369.089a.742.742 0 00.426-.137c.046-.037.07-.078.07-.123a.119.119 0 00-.036-.087.122.122 0 00-.091-.038.189.189 0 00-.085.022.87.87 0 00-.061.036.342.342 0 01-.089.036.582.582 0 01-.147.015.38.38 0 01-.334-.192c-.021-.034-.021-.082-.03-.124h.809a.16.16 0 00.105-.038.127.127 0 00.047-.098.645.645 0 00-.192-.464zm-.695.166a.263.263 0 01.112-.067.451.451 0 01.14-.02.342.342 0 01.261.125.224.224 0 01.051.13v.018h-.648c.004-.018.003-.042.008-.058a.333.333 0 01.076-.128zM26.114 24.541a.143.143 0 00.107.044.143.143 0 00.107-.044.15.15 0 00.043-.108v-.64a.32.32 0 01.034-.149.251.251 0 01.101-.106.31.31 0 01.163-.04c.065 0 .115.013.15.04a.199.199 0 01.072.106c.014.044.02.094.02.149v.64a.148.148 0 00.15.152.143.143 0 00.107-.044.15.15 0 00.042-.108v-.64c0-.105-.012-.2-.035-.286s-.066-.155-.129-.207a.423.423 0 00-.273-.077.423.423 0 00-.199.046.543.543 0 00-.151.113.54.54 0 00-.092.124l-.004.009a.479.479 0 00-.098-.195c-.063-.064-.162-.096-.295-.096a.447.447 0 00-.28.095.574.574 0 00-.098.091c-.011.013-.016.024-.025.037V23.4a.152.152 0 00-.042-.109c-.028-.029-.064-.043-.107-.043s-.079.015-.107.043a.15.15 0 00-.042.109v1.033a.148.148 0 00.149.152.143.143 0 00.107-.044.15.15 0 00.042-.108v-.64a.32.32 0 01.034-.149.254.254 0 01.102-.106.309.309 0 01.162-.04c.065 0 .115.013.15.04a.199.199 0 01.072.106c.013.044.02.094.02.149v.64a.154.154 0 00.043.108zM28.52 24.433V23.4a.152.152 0 00-.042-.109c-.028-.029-.064-.043-.107-.043s-.079.015-.107.043a.15.15 0 00-.042.109v1.033a.148.148 0 00.149.152.143.143 0 00.107-.044.154.154 0 00.042-.108zM28.367 23.085c.057 0 .098-.009.123-.026s.038-.05.038-.099v-.047c0-.047-.012-.079-.035-.098-.023-.018-.064-.027-.123-.027a.221.221 0 00-.119.026c-.026.018-.039.051-.039.099v.047c0 .047.011.079.035.098.024.018.064.027.12.027zM29.127 24.933v-.499c.02.021.035.041.062.061a.55.55 0 00.342.115.543.543 0 00.306-.089.631.631 0 00.217-.245c.054-.104.082-.225.082-.361s-.027-.257-.082-.36a.62.62 0 00-.22-.244.572.572 0 00-.48-.058.53.53 0 00-.226.161V23.4a.152.152 0 00-.042-.109c-.028-.029-.064-.043-.107-.043s-.079.015-.107.043a.15.15 0 00-.042.109v1.533c0 .045.014.082.042.11s.064.042.107.042.079-.015.107-.044a.153.153 0 00.041-.108zm.163-1.381c.055-.037.119-.055.192-.055s.137.018.191.055c.054.037.097.086.127.149s.046.134.046.214a.504.504 0 01-.046.214c-.031.064-.073.114-.127.151s-.118.055-.191.055a.343.343 0 01-.321-.206.486.486 0 01-.046-.214c0-.08.015-.151.046-.214s.073-.112.129-.149zM31.077 24.563a.478.478 0 00.188-.136.327.327 0 00.075-.217.373.373 0 00-.04-.181.355.355 0 00-.105-.116.621.621 0 00-.143-.073 2.637 2.637 0 00-.152-.048 1.864 1.864 0 01-.137-.042c-.042-.014-.076-.032-.101-.055s-.038-.053-.038-.091c0-.042.011-.072.033-.091.021-.019.047-.032.076-.038a.401.401 0 01.245.024.315.315 0 01.114.087c.021.02.049.031.083.034a.12.12 0 00.087-.026c.035-.028.051-.06.047-.095s-.014-.065-.032-.09a.403.403 0 00-.13-.109.73.73 0 00-.325-.079c-.082 0-.16.016-.234.047s-.135.077-.181.135a.329.329 0 00-.07.213c0 .073.014.134.042.182a.34.34 0 00.11.116.674.674 0 00.148.071c.054.019.107.035.159.05.05.013.095.027.136.042a.309.309 0 01.099.055.111.111 0 01.038.088c0 .043-.011.075-.034.096a.161.161 0 01-.079.04.456.456 0 01-.283-.029.587.587 0 01-.153-.113.144.144 0 00-.087-.046.137.137 0 00-.085.021c-.042.027-.063.059-.065.095s.006.066.022.09a.504.504 0 00.245.181.898.898 0 00.295.051.518.518 0 00.232-.043zM32.16 24.61c.185 0 .327-.052.425-.155a.588.588 0 00.147-.42V23.4a.152.152 0 00-.042-.109.143.143 0 00-.108-.043.146.146 0 00-.107.043.15.15 0 00-.042.109v.635c0 .102-.022.177-.067.226s-.113.074-.205.074c-.09 0-.157-.024-.203-.074-.045-.049-.067-.125-.067-.226V23.4a.152.152 0 00-.042-.109c-.028-.029-.064-.043-.107-.043s-.079.015-.107.043a.15.15 0 00-.042.109v.635c0 .176.049.316.146.42.094.103.236.155.421.155zM33.207 24.585a.143.143 0 00.107-.044.15.15 0 00.042-.108v-.64a.32.32 0 01.034-.149.254.254 0 01.102-.106.309.309 0 01.162-.04c.065 0 .115.013.15.04a.199.199 0 01.072.106c.013.044.02.094.02.149v.64a.148.148 0 00.149.152.143.143 0 00.107-.044.15.15 0 00.043-.108v-.64a.32.32 0 01.034-.149.251.251 0 01.101-.106.31.31 0 01.163-.04c.065 0 .115.013.15.04a.199.199 0 01.072.106c.014.044.02.094.02.149v.64a.148.148 0 00.15.152.143.143 0 00.107-.044.15.15 0 00.042-.108v-.64c0-.105-.012-.2-.035-.286s-.066-.155-.129-.207a.423.423 0 00-.273-.077.423.423 0 00-.199.046.543.543 0 00-.151.113.54.54 0 00-.092.124l-.004.009a.479.479 0 00-.098-.195c-.063-.064-.162-.096-.295-.096a.447.447 0 00-.28.095.574.574 0 00-.098.091c-.011.013-.016.024-.025.037V23.4a.152.152 0 00-.042-.109c-.028-.029-.064-.043-.107-.043s-.079.015-.107.043a.15.15 0 00-.042.109v1.033a.148.148 0 00.15.152zM36.29 24.521a.563.563 0 00.489.058.59.59 0 00.141-.076.432.432 0 00.075-.072v.002a.148.148 0 00.149.152.143.143 0 00.107-.044.15.15 0 00.042-.108v-1.545c0-.045-.014-.082-.042-.11s-.064-.042-.107-.042-.079.015-.107.044-.042.065-.042.109v.498c-.017-.016-.028-.033-.049-.048a.596.596 0 00-.659-.027.635.635 0 00-.219.245.775.775 0 00-.082.361.76.76 0 00.082.359.64.64 0 00.222.244zm.031-.818a.383.383 0 01.128-.15.334.334 0 01.19-.055c.073 0 .137.018.192.055a.368.368 0 01.128.15.482.482 0 01.046.215.475.475 0 01-.046.212.383.383 0 01-.128.15.335.335 0 01-.192.055.339.339 0 01-.318-.205.492.492 0 01-.046-.212c0-.081.016-.152.046-.215zM37.881 24.522a.677.677 0 00.344.087.69.69 0 00.344-.087.652.652 0 00.245-.244c.061-.104.091-.225.091-.361s-.03-.257-.091-.361a.67.67 0 00-.589-.333.67.67 0 00-.68.694c0 .136.03.257.091.361s.143.186.245.244zm.015-.826a.36.36 0 01.328-.198.367.367 0 01.328.198.454.454 0 01.051.221c0 .083-.017.156-.051.219s-.08.111-.137.146a.364.364 0 01-.191.053.364.364 0 01-.328-.199.451.451 0 01-.051-.219.46.46 0 01.051-.221zM39.328 24.585a.15.15 0 00.152-.152v-1.545c0-.043-.014-.08-.041-.109s-.063-.044-.106-.044a.145.145 0 00-.108.044.148.148 0 00-.044.109v1.545a.148.148 0 00.147.152zM40.069 24.522a.677.677 0 00.344.087.69.69 0 00.344-.087.652.652 0 00.245-.244c.061-.104.091-.225.091-.361s-.03-.257-.091-.361a.67.67 0 00-.589-.333.67.67 0 00-.68.694c0 .136.03.257.091.361s.142.186.245.244zm.015-.826a.36.36 0 01.328-.198.367.367 0 01.328.198.454.454 0 01.051.221c0 .083-.017.156-.051.219s-.08.111-.137.146a.364.364 0 01-.191.053.364.364 0 01-.328-.199.451.451 0 01-.051-.219.46.46 0 01.051-.221zM41.493 24.585a.143.143 0 00.107-.044.15.15 0 00.042-.108v-.593c0-.06.008-.112.024-.156a.35.35 0 01.063-.111c.026-.03.054-.052.085-.066a.219.219 0 01.18-.003.197.197 0 00.086.018.143.143 0 00.093-.036c.028-.024.042-.064.042-.119 0-.038-.017-.071-.051-.1s-.076-.042-.126-.042a.534.534 0 00-.242.061.416.416 0 00-.099.078.415.415 0 00-.054.08V23.4a.152.152 0 00-.042-.109c-.028-.029-.064-.043-.107-.043s-.079.015-.107.043a.15.15 0 00-.042.109v1.033a.148.148 0 00.148.152zM44.083 24.21a.373.373 0 00-.04-.181.355.355 0 00-.105-.116.621.621 0 00-.143-.073 2.169 2.169 0 00-.152-.047 1.864 1.864 0 01-.137-.042c-.042-.014-.076-.032-.101-.055s-.038-.053-.038-.091c0-.042.011-.072.033-.091.021-.019.047-.032.076-.038a.401.401 0 01.245.024.315.315 0 01.114.087c.021.02.049.031.083.034a.12.12 0 00.087-.026c.035-.028.051-.06.047-.095s-.014-.065-.032-.09a.403.403 0 00-.13-.109.73.73 0 00-.325-.079c-.082 0-.16.016-.234.047s-.135.077-.181.135a.329.329 0 00-.07.213c0 .073.014.134.042.182a.34.34 0 00.11.116.674.674 0 00.148.071c.054.019.107.035.159.05.05.013.095.027.136.042a.309.309 0 01.099.055.111.111 0 01.038.088c0 .043-.011.075-.034.096a.161.161 0 01-.079.04.456.456 0 01-.283-.029.587.587 0 01-.153-.113.144.144 0 00-.087-.046.137.137 0 00-.085.021c-.042.027-.063.059-.065.095s.006.066.022.09a.504.504 0 00.245.181.898.898 0 00.295.051.598.598 0 00.23-.046.478.478 0 00.188-.136.308.308 0 00.077-.215zM44.463 23.085c.057 0 .098-.009.123-.026s.038-.05.038-.099v-.047c0-.047-.012-.079-.035-.098-.023-.018-.064-.027-.123-.027a.221.221 0 00-.119.026c-.026.018-.039.051-.039.099v.047c0 .047.011.079.035.098.023.018.063.027.12.027zM44.465 23.248a.146.146 0 00-.107.043.15.15 0 00-.042.109v1.033a.148.148 0 00.149.152.143.143 0 00.107-.044.15.15 0 00.042-.108V23.4a.152.152 0 00-.042-.109.14.14 0 00-.107-.043zM45.53 23.547c.04 0 .073-.013.1-.039a.131.131 0 00.04-.096.139.139 0 00-.04-.1.135.135 0 00-.1-.04h-.178v-.16a.151.151 0 00-.041-.108.14.14 0 00-.106-.044.145.145 0 00-.108.044.147.147 0 00-.044.108v.16h-.115a.136.136 0 00-.1.039.128.128 0 00-.04.096c0 .04.013.074.04.1.026.027.06.04.1.04h.115v.69c0 .082.013.146.038.193a.266.266 0 00.214.146c.042.005.081.009.116.009a.319.319 0 00.164-.045c.051-.03.076-.068.076-.115a.128.128 0 00-.029-.09c-.019-.021-.04-.033-.063-.033a.15.15 0 00-.058.011.126.126 0 01-.055.012.125.125 0 01-.051-.01.08.08 0 01-.037-.033.11.11 0 01-.014-.057v-.678h.176zM46.873 24.521a.563.563 0 00.489.058.59.59 0 00.141-.076.432.432 0 00.075-.072v.002a.148.148 0 00.149.152.143.143 0 00.107-.044.15.15 0 00.042-.108v-1.058c0-.045-.014-.082-.042-.11s-.064-.042-.107-.042a.146.146 0 00-.107.043.15.15 0 00-.042.109v.011c-.017-.016-.028-.033-.049-.048a.596.596 0 00-.659-.027.635.635 0 00-.219.245.775.775 0 00-.082.361.76.76 0 00.082.359.635.635 0 00.222.245zm.031-.818a.383.383 0 01.128-.15.334.334 0 01.19-.055c.073 0 .137.018.192.055a.368.368 0 01.128.15.482.482 0 01.046.215.475.475 0 01-.046.212.383.383 0 01-.128.15.335.335 0 01-.192.055.339.339 0 01-.318-.205.492.492 0 01-.046-.212c0-.081.016-.152.046-.215zM48.353 24.585a.143.143 0 00.107-.044.15.15 0 00.042-.108v-.64a.32.32 0 01.034-.149.254.254 0 01.102-.106.309.309 0 01.162-.04c.065 0 .115.013.15.04a.199.199 0 01.072.106c.013.044.02.094.02.149v.64a.148.148 0 00.149.152.143.143 0 00.107-.044.15.15 0 00.043-.108v-.64a.32.32 0 01.034-.149.251.251 0 01.101-.106.31.31 0 01.163-.04c.065 0 .115.013.15.04a.199.199 0 01.072.106c.014.044.02.094.02.149v.64a.148.148 0 00.15.152.145.145 0 00.107-.044.154.154 0 00.043-.108v-.64c0-.105-.012-.2-.035-.286s-.066-.155-.129-.207a.426.426 0 00-.274-.077.423.423 0 00-.199.046.543.543 0 00-.151.113.54.54 0 00-.092.124l-.004.009a.479.479 0 00-.098-.195c-.063-.064-.162-.096-.295-.096a.447.447 0 00-.28.095.574.574 0 00-.098.091c-.01.013-.016.024-.025.037V23.4a.152.152 0 00-.042-.109c-.028-.029-.064-.043-.107-.043s-.079.015-.107.043a.15.15 0 00-.042.109v1.033a.148.148 0 00.15.152zM50.757 24.521c.104.06.228.089.369.089a.737.737 0 00.425-.137c.047-.037.07-.078.07-.123a.12.12 0 00-.037-.087.12.12 0 00-.091-.038.192.192 0 00-.085.022l-.062.036a.342.342 0 01-.089.036.577.577 0 01-.147.015.38.38 0 01-.333-.192c-.021-.034-.021-.082-.03-.124h.809a.16.16 0 00.105-.038.133.133 0 00.047-.098c0-.09-.017-.175-.051-.255a.704.704 0 00-.34-.355.614.614 0 00-.554.033c-.099.057-.179.138-.239.244s-.091.234-.091.384c0 .128.027.243.083.345a.606.606 0 00.241.243zm.066-.936a.257.257 0 01.112-.067c.044-.014.09-.02.141-.02s.1.011.146.034.084.053.115.091a.232.232 0 01.052.13v.018h-.649c.004-.018.003-.042.008-.058a.344.344 0 01.075-.128zM51.974 23.547h.115v.69c0 .082.012.146.037.193a.273.273 0 00.214.146.829.829 0 00.116.009.319.319 0 00.164-.045c.051-.03.076-.068.076-.115a.133.133 0 00-.029-.09c-.019-.021-.04-.033-.063-.033a.154.154 0 00-.058.011.126.126 0 01-.055.012c-.019 0-.036-.003-.052-.01s-.028-.018-.037-.033a.1.1 0 01-.014-.057v-.678h.177c.04 0 .074-.013.101-.039s.04-.058.04-.096c0-.04-.014-.073-.04-.1s-.061-.04-.101-.04h-.177v-.16a.148.148 0 00-.147-.152.148.148 0 00-.152.152v.16h-.115a.142.142 0 00-.101.039.131.131 0 00-.04.096.137.137 0 00.141.14zM53.337 24.666a.29.29 0 00.024-.101c0-.086-.021-.152-.064-.197a.224.224 0 00-.171-.068.292.292 0 00-.2.092.137.137 0 00-.037.097c0 .029.006.049.019.062a.174.174 0 00.044.031.092.092 0 01.035-.014c.013-.002.024-.004.034-.004.028 0 .052.007.069.021s.026.03.026.048a.092.092 0 01-.02.059.153.153 0 01-.051.041l-.062.022c-.025.008-.036.032-.036.07 0 .037.012.063.035.077a.154.154 0 00.085.022.178.178 0 00.11-.04.502.502 0 00.094-.1.445.445 0 00.066-.118zM54.617 24.521c.104.06.228.089.369.089a.737.737 0 00.425-.137c.047-.037.07-.078.07-.123a.12.12 0 00-.037-.087.12.12 0 00-.091-.038.192.192 0 00-.085.022l-.062.036a.342.342 0 01-.089.036.577.577 0 01-.147.015.38.38 0 01-.333-.192c-.021-.034-.021-.082-.03-.124h.809a.16.16 0 00.105-.038.133.133 0 00.047-.098c0-.09-.017-.175-.051-.255a.704.704 0 00-.34-.355.614.614 0 00-.554.033c-.099.057-.179.138-.239.244s-.091.234-.091.384c0 .128.027.243.083.345a.619.619 0 00.241.243zm.067-.936a.257.257 0 01.112-.067c.044-.014.09-.02.141-.02s.1.011.146.034.084.053.115.091a.232.232 0 01.052.13v.018h-.648c.004-.018.003-.042.008-.058a.307.307 0 01.074-.128zM55.969 24.585a.143.143 0 00.107-.044.15.15 0 00.043-.108v-.64a.31.31 0 01.036-.149.265.265 0 01.104-.106.33.33 0 01.169-.04.26.26 0 01.157.04.195.195 0 01.076.106.463.463 0 01.021.149v.64a.149.149 0 00.15.152.143.143 0 00.107-.044.15.15 0 00.042-.108v-.64c0-.105-.012-.2-.036-.286s-.068-.155-.132-.207a.444.444 0 00-.281-.077.476.476 0 00-.288.095.677.677 0 00-.1.091c-.012.014-.018.025-.027.038V23.4a.153.153 0 00-.043-.109c-.028-.029-.064-.043-.107-.043a.146.146 0 00-.15.152v1.033a.149.149 0 00.152.152zM57.441 23.248a.146.146 0 00-.15.152v1.033a.149.149 0 00.15.152.143.143 0 00.107-.044.15.15 0 00.043-.108V23.4a.153.153 0 00-.043-.109.14.14 0 00-.107-.043zM57.439 23.085c.057 0 .097-.009.122-.026s.037-.05.037-.099v-.047c0-.047-.012-.079-.034-.098-.023-.018-.064-.027-.123-.027a.219.219 0 00-.119.026c-.025.018-.038.051-.038.099v.047c0 .047.012.079.035.098.024.018.063.027.12.027zM58.739 23.792v.64a.148.148 0 00.149.152.142.142 0 00.107-.044.15.15 0 00.043-.108v-.64c0-.055.011-.104.033-.149a.254.254 0 01.102-.106c.045-.027.1-.04.162-.04.065 0 .115.013.15.04.035.026.06.062.072.106a.492.492 0 01.021.149v.64a.148.148 0 00.149.152.142.142 0 00.107-.044.15.15 0 00.043-.108v-.64c0-.105-.012-.2-.035-.286s-.066-.155-.129-.207a.423.423 0 00-.273-.077.423.423 0 00-.199.046.538.538 0 00-.15.113.547.547 0 00-.093.124l-.005.009a.455.455 0 00-.098-.195c-.063-.064-.162-.096-.295-.096a.433.433 0 00-.152.026.541.541 0 00-.226.16c-.011.013-.016.023-.024.036V23.4a.153.153 0 00-.043-.109c-.028-.029-.064-.043-.107-.043a.146.146 0 00-.15.152v1.033a.149.149 0 00.15.152.143.143 0 00.107-.044.15.15 0 00.043-.108v-.64c0-.055.011-.104.033-.149a.254.254 0 01.102-.106.309.309 0 01.162-.04c.065 0 .115.013.15.04a.199.199 0 01.072.106.456.456 0 01.022.148zM61.131 24.521a.568.568 0 00.49.058.57.57 0 00.141-.076.431.431 0 00.075-.072v.002a.149.149 0 00.15.152.143.143 0 00.107-.044.15.15 0 00.042-.108v-1.058c0-.045-.014-.082-.042-.11s-.064-.042-.107-.042a.145.145 0 00-.107.043.15.15 0 00-.043.109v.011c-.017-.016-.027-.033-.049-.048a.594.594 0 00-.658-.027.635.635 0 00-.219.245.762.762 0 00-.081.361.76.76 0 00.081.359.615.615 0 00.22.245zm.031-.818a.378.378 0 01.129-.15.334.334 0 01.19-.055c.073 0 .138.018.192.055a.378.378 0 01.129.15c.03.063.046.135.046.215a.488.488 0 01-.046.212c-.031.063-.074.113-.129.15s-.119.055-.192.055a.339.339 0 01-.19-.055.371.371 0 01-.129-.15.488.488 0 01-.046-.212c0-.081.016-.152.046-.215zM63.031 24.61a.91.91 0 00.246-.031.542.542 0 00.184-.083c.047-.034.07-.072.07-.114 0-.04-.012-.074-.035-.101s-.057-.042-.1-.042a.13.13 0 00-.083.023.383.383 0 01-.063.042.27.27 0 01-.074.022.674.674 0 01-.108.007.366.366 0 01-.333-.203.453.453 0 01-.049-.214c0-.082.016-.154.047-.216a.365.365 0 01.137-.149.401.401 0 01.292-.046c.034.006.06.014.077.023.018.01.034.021.047.033a.186.186 0 00.047.029.173.173 0 00.065.011.1.1 0 00.088-.044.167.167 0 00-.029-.222.413.413 0 00-.165-.084.923.923 0 00-.249-.03.657.657 0 00-.342.088.629.629 0 00-.232.245.751.751 0 00-.083.361c0 .13.025.248.078.353a.613.613 0 00.567.342zM65.681 23.4c0-.045-.014-.082-.042-.11s-.064-.042-.107-.042a.145.145 0 00-.107.043.156.156 0 00-.039.099c-.018-.018-.029-.035-.053-.052a.594.594 0 00-.658-.027.635.635 0 00-.219.245.762.762 0 00-.081.361.76.76 0 00.081.359.625.625 0 00.221.245.568.568 0 00.49.058.57.57 0 00.141-.076.431.431 0 00.075-.072v.502a.149.149 0 00.15.152.143.143 0 00.107-.044.15.15 0 00.042-.108V23.4zm-.462.88a.335.335 0 01-.192.055.339.339 0 01-.19-.055.371.371 0 01-.129-.15.488.488 0 01-.046-.212c0-.08.016-.152.046-.215a.378.378 0 01.129-.15.334.334 0 01.19-.055c.073 0 .138.018.192.055a.378.378 0 01.129.15c.03.063.046.135.046.215a.488.488 0 01-.046.212.394.394 0 01-.129.15zM67.148 23.4a.152.152 0 00-.042-.109.142.142 0 00-.107-.043.145.145 0 00-.107.043.15.15 0 00-.043.109v.635c0 .102-.022.177-.067.226s-.113.074-.205.074c-.09 0-.157-.024-.202-.074s-.067-.125-.067-.226V23.4a.153.153 0 00-.043-.109c-.028-.029-.064-.043-.107-.043a.146.146 0 00-.15.152v.635c0 .176.049.316.146.42.098.103.239.155.424.155.186 0 .327-.052.425-.155a.583.583 0 00.147-.42V23.4zM67.604 23.085c.057 0 .097-.009.122-.026s.037-.05.037-.099v-.047c0-.047-.012-.079-.034-.098-.023-.018-.064-.027-.123-.027a.219.219 0 00-.119.026c-.025.018-.038.051-.038.099v.047c0 .047.012.079.035.098.024.018.063.027.12.027zM67.606 23.248a.146.146 0 00-.15.152v1.033a.149.149 0 00.15.152.143.143 0 00.107-.044.15.15 0 00.043-.108V23.4a.153.153 0 00-.043-.109.14.14 0 00-.107-.043zM69.019 24.21a.362.362 0 00-.04-.181.352.352 0 00-.104-.116.642.642 0 00-.143-.073 2.169 2.169 0 00-.152-.047 1.864 1.864 0 01-.137-.042.277.277 0 01-.101-.055.116.116 0 01-.038-.091c0-.042.011-.072.032-.091a.17.17 0 01.077-.038.394.394 0 01.244.024.29.29 0 01.114.087c.021.02.049.031.082.034s.063-.006.088-.026c.035-.028.051-.06.048-.095a.188.188 0 00-.033-.09c-.035-.045-.078-.082-.13-.109a.672.672 0 00-.325-.079c-.081 0-.159.016-.233.047s-.135.077-.182.135a.334.334 0 00-.069.213c0 .073.014.134.042.182s.065.087.11.116a.674.674 0 00.148.071c.055.019.107.035.159.05.05.013.095.027.136.042a.309.309 0 01.099.055.111.111 0 01.038.088c0 .043-.012.075-.034.096a.158.158 0 01-.078.04.456.456 0 01-.283-.029.583.583 0 01-.152-.113.146.146 0 00-.087-.046.135.135 0 00-.085.021c-.042.027-.063.059-.065.095s.006.066.022.09c.065.087.146.147.245.181s.196.051.295.051a.598.598 0 00.23-.046.492.492 0 00.188-.136.32.32 0 00.074-.215zM70.146 22.735c-.043 0-.079.015-.108.044s-.044.065-.044.109v1.545c0 .043.014.08.043.108a.14.14 0 00.104.044c.043 0 .08-.015.108-.044a.147.147 0 00.044-.108v-1.545c0-.043-.014-.08-.041-.109s-.062-.044-.106-.044zM71.632 23.419a.675.675 0 00-.201-.144.614.614 0 00-.554.033c-.099.057-.179.138-.239.244s-.091.234-.091.384c0 .128.027.243.083.345a.618.618 0 00.24.241c.104.06.228.089.369.089a.737.737 0 00.425-.137c.047-.037.07-.078.07-.123a.12.12 0 00-.037-.087.12.12 0 00-.091-.038.192.192 0 00-.085.022l-.062.036a.342.342 0 01-.089.036.577.577 0 01-.147.015.38.38 0 01-.333-.192c-.021-.034-.021-.082-.03-.124h.809a.16.16 0 00.105-.038.133.133 0 00.047-.098c0-.09-.017-.175-.051-.255s-.081-.149-.138-.209zm-.695.166a.257.257 0 01.112-.067c.044-.014.09-.02.141-.02s.1.011.146.034.084.053.115.091a.232.232 0 01.052.13v.018h-.648c.004-.018.003-.042.008-.058a.307.307 0 01.074-.128zM72.299 24.519a.63.63 0 00.343.091.91.91 0 00.246-.031.542.542 0 00.184-.083c.047-.034.07-.072.07-.114 0-.04-.012-.074-.035-.101s-.057-.042-.1-.042a.13.13 0 00-.083.023.383.383 0 01-.063.042.27.27 0 01-.074.022.674.674 0 01-.108.007.366.366 0 01-.333-.203.453.453 0 01-.049-.214c0-.082.016-.154.047-.216a.365.365 0 01.137-.149.401.401 0 01.292-.046c.034.006.06.014.077.023.018.01.034.021.047.033a.186.186 0 00.047.029.173.173 0 00.065.011.1.1 0 00.088-.044.167.167 0 00-.029-.222.413.413 0 00-.165-.084.923.923 0 00-.249-.03.657.657 0 00-.342.088.629.629 0 00-.232.245.751.751 0 00-.083.361c0 .13.025.248.078.353s.127.19.224.251zM73.966 23.547c.04 0 .074-.013.101-.039s.04-.058.04-.096c0-.04-.014-.073-.04-.1s-.061-.04-.101-.04h-.177v-.16a.148.148 0 00-.147-.152.148.148 0 00-.152.152v.16h-.115a.142.142 0 00-.101.039.131.131 0 00-.04.096.137.137 0 00.141.14h.115v.69c0 .082.012.146.037.193a.273.273 0 00.214.146.829.829 0 00.116.009.319.319 0 00.164-.045c.051-.03.076-.068.076-.115a.133.133 0 00-.029-.09c-.019-.021-.04-.033-.063-.033a.154.154 0 00-.058.011.126.126 0 01-.055.012c-.019 0-.036-.003-.052-.01s-.028-.018-.037-.033a.1.1 0 01-.014-.057v-.678h.177zM75.376 24.455a.583.583 0 00.147-.42V23.4a.152.152 0 00-.042-.109.142.142 0 00-.107-.043.145.145 0 00-.107.043.15.15 0 00-.043.109v.635c0 .102-.022.177-.067.226s-.113.074-.205.074c-.09 0-.157-.024-.202-.074s-.067-.125-.067-.226V23.4a.153.153 0 00-.043-.109c-.028-.029-.064-.043-.107-.043a.146.146 0 00-.15.152v.635c0 .176.049.316.146.42.098.103.239.155.424.155.184 0 .325-.052.423-.155zM76.659 23.913a.642.642 0 00-.143-.073 2.169 2.169 0 00-.152-.047 1.864 1.864 0 01-.137-.042.277.277 0 01-.101-.055.116.116 0 01-.038-.091c0-.042.011-.072.032-.091a.17.17 0 01.077-.038.394.394 0 01.244.024.29.29 0 01.114.087c.021.02.049.031.082.034s.063-.006.088-.026c.035-.028.051-.06.048-.095a.188.188 0 00-.033-.09c-.035-.045-.078-.082-.13-.109a.672.672 0 00-.325-.079c-.081 0-.159.016-.233.047s-.135.077-.182.135a.334.334 0 00-.069.213c0 .073.014.134.042.182s.065.087.11.116a.674.674 0 00.148.071c.055.019.107.035.159.05.05.013.095.027.136.042a.309.309 0 01.099.055.111.111 0 01.038.088c0 .043-.012.075-.034.096a.158.158 0 01-.078.04.456.456 0 01-.283-.029.583.583 0 01-.152-.113.146.146 0 00-.087-.046.135.135 0 00-.085.021c-.042.027-.063.059-.065.095s.006.066.022.09c.065.087.146.147.245.181s.196.051.295.051a.598.598 0 00.23-.046.492.492 0 00.188-.136.327.327 0 00.074-.217.362.362 0 00-.04-.181.335.335 0 00-.104-.114zM77.887 23.248a.146.146 0 00-.15.152v1.033a.149.149 0 00.15.152.143.143 0 00.107-.044.15.15 0 00.043-.108V23.4a.153.153 0 00-.043-.109.142.142 0 00-.107-.043zM77.885 23.085c.057 0 .097-.009.122-.026s.037-.05.037-.099v-.047c0-.047-.012-.079-.034-.098-.023-.018-.064-.027-.123-.027a.219.219 0 00-.119.026c-.025.018-.038.051-.038.099v.047c0 .047.012.079.035.098.023.018.062.027.12.027zM78.494 24.585a.143.143 0 00.107-.044.15.15 0 00.043-.108v-.64a.31.31 0 01.036-.149.265.265 0 01.104-.106.33.33 0 01.169-.04.26.26 0 01.157.04.195.195 0 01.076.106.463.463 0 01.021.149v.64a.149.149 0 00.15.152.143.143 0 00.107-.044.15.15 0 00.042-.108v-.64c0-.105-.012-.2-.036-.286s-.068-.155-.132-.207a.444.444 0 00-.281-.077.476.476 0 00-.288.095.677.677 0 00-.1.091c-.012.014-.018.025-.027.038V23.4a.153.153 0 00-.043-.109c-.028-.029-.064-.043-.107-.043a.146.146 0 00-.15.152v1.033a.149.149 0 00.152.152zM80.126 24.788a.572.572 0 00.064-.122.29.29 0 00.024-.101c0-.086-.021-.152-.064-.197a.224.224 0 00-.171-.068.292.292 0 00-.2.092.137.137 0 00-.037.097c0 .029.006.049.019.062a.174.174 0 00.044.031.092.092 0 01.035-.014c.013-.002.024-.004.034-.004.028 0 .052.007.069.021s.026.03.026.048a.092.092 0 01-.02.059.153.153 0 01-.051.041l-.062.022c-.025.008-.036.032-.036.07 0 .037.012.063.035.077a.154.154 0 00.085.022.178.178 0 00.11-.04.35.35 0 00.096-.096zM18.038 26.311a.572.572 0 00-.48-.058.53.53 0 00-.226.161V26.4a.152.152 0 00-.042-.109c-.028-.029-.064-.043-.107-.043s-.079.015-.107.043a.15.15 0 00-.042.109v1.533c0 .045.014.082.042.11s.064.042.107.042.079-.015.107-.044a.15.15 0 00.042-.108v-.499c.019.021.035.041.062.061a.55.55 0 00.342.115.543.543 0 00.306-.089.631.631 0 00.217-.245c.054-.104.082-.225.082-.361s-.027-.257-.082-.36a.652.652 0 00-.221-.244zm-.033.818c-.031.064-.073.114-.127.151s-.118.055-.191.055a.343.343 0 01-.321-.206.486.486 0 01-.046-.214c0-.08.015-.151.046-.214s.074-.112.129-.149c.055-.037.119-.055.192-.055s.137.018.191.055c.054.037.097.086.127.149s.046.134.046.214a.476.476 0 01-.046.214zM19.565 26.3a.425.425 0 00-.273-.077.447.447 0 00-.28.095.574.574 0 00-.098.091c-.011.013-.016.024-.025.037v-.558c0-.043-.014-.08-.042-.109s-.064-.044-.107-.044-.079.015-.107.044-.042.065-.042.109v1.545a.148.148 0 00.149.152.143.143 0 00.107-.044.15.15 0 00.042-.108v-.64a.32.32 0 01.034-.149.254.254 0 01.102-.106.309.309 0 01.162-.04c.065 0 .115.013.15.04a.199.199 0 01.072.106c.013.044.02.094.02.149v.64a.148.148 0 00.149.152.143.143 0 00.107-.044.15.15 0 00.043-.108v-.64c0-.105-.012-.2-.035-.286s-.065-.155-.128-.207zM21.137 26.223a.146.146 0 00-.107.043.15.15 0 00-.042.109v.011c-.017-.016-.028-.033-.049-.048a.596.596 0 00-.659-.027.635.635 0 00-.219.245.775.775 0 00-.082.361.76.76 0 00.082.359.625.625 0 00.221.245.563.563 0 00.489.058.59.59 0 00.141-.076.432.432 0 00.075-.072v.002a.148.148 0 00.149.152.143.143 0 00.107-.044.15.15 0 00.042-.108v-1.058a.143.143 0 00-.148-.152zm-.313 1.057a.335.335 0 01-.192.055.339.339 0 01-.318-.205.492.492 0 01-.046-.212c0-.08.016-.152.046-.215a.383.383 0 01.128-.15.334.334 0 01.19-.055c.073 0 .137.018.192.055a.368.368 0 01.128.15.482.482 0 01.046.215.475.475 0 01-.046.212.368.368 0 01-.128.15zM22.307 26.223a.534.534 0 00-.242.061.374.374 0 00-.153.158V26.4a.152.152 0 00-.042-.109c-.028-.029-.064-.043-.107-.043s-.079.015-.107.043a.15.15 0 00-.042.109v1.033a.148.148 0 00.149.152.143.143 0 00.107-.044.15.15 0 00.042-.108v-.593c0-.06.008-.112.024-.156a.35.35 0 01.063-.111c.026-.03.054-.052.085-.066a.219.219 0 01.18-.003.197.197 0 00.086.018.143.143 0 00.093-.036c.028-.024.042-.064.042-.119 0-.038-.017-.071-.051-.1s-.077-.044-.127-.044zM23.651 26.419c-.058-.061-.125-.109-.201-.144s-.156-.052-.241-.052a.644.644 0 00-.552.329.758.758 0 00-.091.384c0 .128.028.243.084.345a.611.611 0 00.24.241c.104.06.227.089.369.089a.742.742 0 00.426-.137c.046-.037.07-.078.07-.123a.119.119 0 00-.036-.087.122.122 0 00-.091-.038.189.189 0 00-.085.022.87.87 0 00-.061.036.342.342 0 01-.089.036.582.582 0 01-.147.015.38.38 0 01-.334-.192c-.021-.034-.021-.082-.03-.124h.809a.16.16 0 00.105-.038.127.127 0 00.047-.098.645.645 0 00-.192-.464zm-.694.166a.263.263 0 01.112-.067.451.451 0 01.14-.02.342.342 0 01.261.125.224.224 0 01.051.13v.018h-.648c.004-.018.002-.042.008-.058a.333.333 0 01.076-.128zM24.699 26.547c.04 0 .073-.013.1-.039a.131.131 0 00.04-.096.139.139 0 00-.04-.1.135.135 0 00-.1-.04h-.178v-.16a.151.151 0 00-.041-.108.14.14 0 00-.106-.044.145.145 0 00-.108.044.147.147 0 00-.044.108v.16h-.115a.136.136 0 00-.1.039.128.128 0 00-.04.096c0 .04.013.074.04.1.026.027.06.04.1.04h.115v.69c0 .082.013.146.038.193a.266.266 0 00.214.146c.042.005.081.009.116.009a.319.319 0 00.164-.045c.051-.03.076-.068.076-.115a.128.128 0 00-.029-.09c-.019-.021-.04-.033-.063-.033a.15.15 0 00-.058.011.126.126 0 01-.055.012.125.125 0 01-.051-.01.08.08 0 01-.037-.033.11.11 0 01-.014-.057v-.678h.176zM25.809 26.223a.534.534 0 00-.242.061.416.416 0 00-.099.078.415.415 0 00-.054.08V26.4a.152.152 0 00-.042-.109c-.028-.029-.064-.043-.107-.043s-.079.015-.107.043a.15.15 0 00-.042.109v1.033a.148.148 0 00.149.152.143.143 0 00.107-.044.15.15 0 00.042-.108v-.593c0-.06.008-.112.024-.156a.35.35 0 01.063-.111c.026-.03.054-.052.085-.066a.219.219 0 01.18-.003.197.197 0 00.086.018.143.143 0 00.093-.036c.028-.024.042-.064.042-.119 0-.038-.017-.071-.051-.1s-.077-.044-.127-.044zM27.254 26.223a.146.146 0 00-.107.043.15.15 0 00-.042.109v.011c-.017-.016-.028-.033-.049-.048a.596.596 0 00-.659-.027.635.635 0 00-.219.245.775.775 0 00-.082.361.76.76 0 00.082.359.625.625 0 00.221.245.563.563 0 00.489.058.59.59 0 00.141-.076.432.432 0 00.075-.072v.002a.148.148 0 00.149.152.143.143 0 00.107-.044.15.15 0 00.042-.108v-1.058a.143.143 0 00-.148-.152zm-.312 1.057a.335.335 0 01-.192.055.339.339 0 01-.318-.205.492.492 0 01-.046-.212c0-.08.016-.152.046-.215a.383.383 0 01.128-.15.334.334 0 01.19-.055c.073 0 .137.018.192.055a.368.368 0 01.128.15.482.482 0 01.046.215.475.475 0 01-.046.212.368.368 0 01-.128.15zM28.607 25.735a.145.145 0 00-.108.044.148.148 0 00-.044.109v1.545a.148.148 0 00.147.152.15.15 0 00.152-.152v-1.545c0-.043-.014-.08-.041-.109s-.063-.044-.106-.044zM30.026 26.311a.678.678 0 00-.344-.088.67.67 0 00-.68.694c0 .136.03.257.091.361a.66.66 0 00.589.331.69.69 0 00.344-.087.652.652 0 00.245-.244c.061-.104.091-.225.091-.361s-.03-.257-.091-.361a.677.677 0 00-.245-.245zm-.015.825a.364.364 0 01-.328.199.364.364 0 01-.328-.199.451.451 0 01-.051-.219c0-.085.017-.159.051-.221a.36.36 0 01.328-.198.367.367 0 01.328.198.454.454 0 01.051.221.449.449 0 01-.051.219zM31.307 26.223a.534.534 0 00-.242.061.416.416 0 00-.099.078.415.415 0 00-.054.08V26.4a.152.152 0 00-.042-.109c-.028-.029-.064-.043-.107-.043s-.079.015-.107.043a.15.15 0 00-.042.109v1.033a.148.148 0 00.149.152.143.143 0 00.107-.044.15.15 0 00.042-.108v-.593c0-.06.008-.112.024-.156a.35.35 0 01.063-.111c.026-.03.054-.052.085-.066a.219.219 0 01.18-.003.197.197 0 00.086.018.143.143 0 00.093-.036c.028-.024.042-.064.042-.119 0-.038-.017-.071-.051-.1s-.077-.044-.127-.044zM32.652 26.419c-.058-.061-.125-.109-.201-.144s-.156-.052-.241-.052a.644.644 0 00-.552.329.758.758 0 00-.091.384c0 .128.028.243.084.345a.611.611 0 00.24.241c.104.06.227.089.369.089a.742.742 0 00.426-.137c.046-.037.07-.078.07-.123a.119.119 0 00-.036-.087.122.122 0 00-.091-.038.189.189 0 00-.085.022.87.87 0 00-.061.036.342.342 0 01-.089.036.582.582 0 01-.147.015.38.38 0 01-.334-.192c-.021-.034-.021-.082-.03-.124h.809a.16.16 0 00.105-.038.127.127 0 00.047-.098.645.645 0 00-.192-.464zm-.695.166a.263.263 0 01.112-.067.451.451 0 01.14-.02.342.342 0 01.261.125.224.224 0 01.051.13v.018h-.648c.004-.018.003-.042.008-.058a.333.333 0 01.076-.128zM34.908 26.3a.423.423 0 00-.273-.077.423.423 0 00-.199.046.543.543 0 00-.151.113.54.54 0 00-.092.124l-.004.009a.479.479 0 00-.098-.195c-.063-.064-.162-.096-.295-.096a.447.447 0 00-.28.095.574.574 0 00-.098.091c-.011.013-.016.024-.025.037V26.4a.152.152 0 00-.042-.109c-.028-.029-.064-.043-.107-.043s-.079.015-.107.043a.15.15 0 00-.042.109v1.033a.148.148 0 00.149.152.143.143 0 00.107-.044.15.15 0 00.042-.108v-.64a.32.32 0 01.034-.149.254.254 0 01.102-.106.309.309 0 01.162-.04c.065 0 .115.013.15.04a.199.199 0 01.072.106c.013.044.02.094.02.149v.64a.148.148 0 00.149.152.143.143 0 00.107-.044.15.15 0 00.043-.108v-.64a.32.32 0 01.034-.149.251.251 0 01.101-.106.31.31 0 01.163-.04c.065 0 .115.013.15.04a.199.199 0 01.072.106c.014.044.02.094.02.149v.64a.148.148 0 00.15.152.143.143 0 00.107-.044.15.15 0 00.042-.108v-.64c0-.105-.012-.2-.035-.286s-.065-.155-.128-.207zM36.908 26.913a.621.621 0 00-.143-.073 2.169 2.169 0 00-.152-.047 1.864 1.864 0 01-.137-.042c-.042-.014-.076-.032-.101-.055s-.038-.053-.038-.091c0-.042.011-.072.033-.091.021-.019.047-.032.076-.038a.401.401 0 01.245.024.315.315 0 01.114.087c.021.02.049.031.083.034a.12.12 0 00.087-.026c.035-.028.051-.06.047-.095s-.014-.065-.032-.09a.403.403 0 00-.13-.109.73.73 0 00-.325-.079c-.082 0-.16.016-.234.047s-.135.077-.181.135a.329.329 0 00-.07.213c0 .073.014.134.042.182a.34.34 0 00.11.116.674.674 0 00.148.071c.054.019.107.035.159.05.05.013.095.027.136.042a.309.309 0 01.099.055.111.111 0 01.038.088c0 .043-.011.075-.034.096a.161.161 0 01-.079.04.456.456 0 01-.283-.029.587.587 0 01-.153-.113.144.144 0 00-.087-.046.137.137 0 00-.085.021c-.042.027-.063.059-.065.095s.006.066.022.09a.504.504 0 00.245.181.898.898 0 00.295.051.598.598 0 00.23-.046.478.478 0 00.188-.136.327.327 0 00.075-.217.373.373 0 00-.04-.181.323.323 0 00-.103-.114zM37.319 27.279a.66.66 0 00.589.331.69.69 0 00.344-.087.652.652 0 00.245-.244c.061-.104.091-.225.091-.361s-.03-.257-.091-.361a.67.67 0 00-.589-.333.67.67 0 00-.68.694c0 .136.03.257.091.361zm.26-.583a.36.36 0 01.328-.198.367.367 0 01.328.198.454.454 0 01.051.221c0 .083-.017.156-.051.219s-.08.111-.137.146a.364.364 0 01-.191.053.364.364 0 01-.328-.199.451.451 0 01-.051-.219.46.46 0 01.051-.221zM38.763 26.917a.76.76 0 00.082.359.625.625 0 00.221.245.563.563 0 00.489.058.59.59 0 00.141-.076.432.432 0 00.075-.072v.002a.148.148 0 00.149.152.143.143 0 00.107-.044.15.15 0 00.042-.108v-1.545c0-.045-.014-.082-.042-.11s-.064-.042-.107-.042-.079.015-.107.044-.042.065-.042.109v.498c-.017-.016-.028-.033-.049-.048a.596.596 0 00-.659-.027.635.635 0 00-.219.245.767.767 0 00-.081.36zm.334-.214a.383.383 0 01.128-.15.334.334 0 01.19-.055c.073 0 .137.018.192.055a.368.368 0 01.128.15.482.482 0 01.046.215.475.475 0 01-.046.212.383.383 0 01-.128.15.335.335 0 01-.192.055.339.339 0 01-.318-.205.492.492 0 01-.046-.212.466.466 0 01.046-.215zM40.621 26.311a.635.635 0 00-.219.245.775.775 0 00-.082.361.76.76 0 00.082.359.625.625 0 00.221.245.563.563 0 00.489.058.59.59 0 00.141-.076.432.432 0 00.075-.072v.002a.148.148 0 00.149.152.143.143 0 00.107-.044.15.15 0 00.042-.108v-1.058c0-.045-.014-.082-.042-.11s-.064-.042-.107-.042a.146.146 0 00-.107.043.15.15 0 00-.042.109v.011c-.017-.016-.028-.033-.049-.048a.596.596 0 00-.658-.027zm.545.241a.368.368 0 01.128.15.482.482 0 01.046.215.475.475 0 01-.046.212.383.383 0 01-.128.15.335.335 0 01-.192.055.339.339 0 01-.318-.205.492.492 0 01-.046-.212c0-.08.016-.152.046-.215a.383.383 0 01.128-.15.356.356 0 01.382 0zM42.13 25.735a.145.145 0 00-.108.044.148.148 0 00-.044.109v1.545a.148.148 0 00.147.152.15.15 0 00.152-.152v-1.545c0-.043-.014-.08-.041-.109s-.062-.044-.106-.044zM43.615 26.419c-.058-.061-.125-.109-.201-.144s-.156-.052-.241-.052a.644.644 0 00-.552.329.758.758 0 00-.091.384c0 .128.028.243.084.345a.611.611 0 00.24.241c.104.06.227.089.369.089a.742.742 0 00.426-.137c.046-.037.07-.078.07-.123a.119.119 0 00-.036-.087.122.122 0 00-.091-.038.189.189 0 00-.085.022.87.87 0 00-.061.036.342.342 0 01-.089.036.582.582 0 01-.147.015.38.38 0 01-.334-.192c-.021-.034-.021-.082-.03-.124h.809a.16.16 0 00.105-.038.127.127 0 00.047-.098.645.645 0 00-.192-.464zm-.695.166a.263.263 0 01.112-.067.451.451 0 01.14-.02.342.342 0 01.261.125.224.224 0 01.051.13v.018h-.648c.004-.018.002-.042.008-.058a.36.36 0 01.076-.128zM44.223 27.559a.898.898 0 00.295.051.598.598 0 00.23-.046.478.478 0 00.188-.136.327.327 0 00.075-.217.373.373 0 00-.04-.181.355.355 0 00-.105-.116.621.621 0 00-.143-.073 2.169 2.169 0 00-.152-.047 1.864 1.864 0 01-.137-.042c-.042-.014-.076-.032-.101-.055s-.038-.053-.038-.091c0-.042.011-.072.033-.091.021-.019.047-.032.076-.038a.401.401 0 01.245.024.315.315 0 01.114.087c.021.02.049.031.083.034a.12.12 0 00.087-.026c.035-.028.051-.06.047-.095s-.014-.065-.032-.09a.403.403 0 00-.13-.109.73.73 0 00-.325-.079c-.082 0-.16.016-.234.047s-.135.077-.181.135a.329.329 0 00-.07.213c0 .073.014.134.042.182a.34.34 0 00.11.116.674.674 0 00.148.071c.054.019.107.035.159.05.05.013.095.027.136.042a.309.309 0 01.099.055.111.111 0 01.038.088c0 .043-.011.075-.034.096a.161.161 0 01-.079.04.456.456 0 01-.283-.029.587.587 0 01-.153-.113.144.144 0 00-.087-.046.137.137 0 00-.085.021c-.042.027-.063.059-.065.095s.006.066.022.09a.527.527 0 00.247.183zM47.058 27.541a.15.15 0 00.043-.108v-.64a.32.32 0 01.034-.149.251.251 0 01.101-.106.31.31 0 01.163-.04c.065 0 .115.013.15.04a.199.199 0 01.072.106c.014.044.02.094.02.149v.64a.148.148 0 00.15.152.143.143 0 00.107-.044.15.15 0 00.042-.108v-.64c0-.105-.012-.2-.035-.286s-.066-.155-.129-.207a.423.423 0 00-.273-.077.423.423 0 00-.199.046.543.543 0 00-.151.113.54.54 0 00-.092.124l-.004.009a.479.479 0 00-.098-.195c-.063-.064-.162-.096-.295-.096a.447.447 0 00-.28.095.574.574 0 00-.098.091c-.01.013-.016.024-.025.037V26.4a.152.152 0 00-.042-.109c-.028-.029-.064-.043-.107-.043s-.079.015-.107.043a.15.15 0 00-.042.109v1.033a.148.148 0 00.149.152.143.143 0 00.107-.044.15.15 0 00.042-.108v-.64a.32.32 0 01.034-.149.254.254 0 01.102-.106.309.309 0 01.162-.04c.065 0 .115.013.15.04a.199.199 0 01.072.106c.013.044.02.094.02.149v.64a.148.148 0 00.149.152c.044 0 .08-.015.108-.044zM48.883 27.61a.742.742 0 00.426-.137c.046-.037.07-.078.07-.123a.119.119 0 00-.036-.087.122.122 0 00-.091-.038.189.189 0 00-.085.022.87.87 0 00-.061.036.342.342 0 01-.089.036.582.582 0 01-.147.015.38.38 0 01-.334-.192c-.021-.034-.021-.082-.03-.124h.809a.16.16 0 00.105-.038.127.127 0 00.047-.098.685.685 0 00-.391-.61.617.617 0 00-.554.033c-.099.057-.178.138-.239.244s-.091.234-.091.384c0 .128.028.243.084.345a.611.611 0 00.24.241.7.7 0 00.367.091zm-.302-1.025a.263.263 0 01.112-.067.451.451 0 01.14-.02.342.342 0 01.261.125.224.224 0 01.051.13v.018h-.648c.004-.018.003-.042.008-.058a.333.333 0 01.076-.128zM49.846 27.237c0 .082.013.146.038.193a.266.266 0 00.214.146c.043.005.081.009.116.009a.315.315 0 00.163-.045c.051-.03.076-.068.076-.115a.133.133 0 00-.028-.09c-.019-.021-.04-.033-.063-.033a.154.154 0 00-.058.011.128.128 0 01-.056.012c-.018 0-.035-.003-.051-.01s-.028-.018-.037-.033a.1.1 0 01-.014-.057v-.678h.178a.141.141 0 00.1-.039.131.131 0 00.04-.096.136.136 0 00-.14-.14h-.178v-.16a.151.151 0 00-.041-.108.14.14 0 00-.107-.044.145.145 0 00-.108.044.147.147 0 00-.044.108v.16h-.115a.136.136 0 00-.1.039.128.128 0 00-.04.096c0 .04.013.074.04.1.026.027.06.04.1.04h.115v.69zM51.581 26.4v.635c0 .102-.022.177-.067.226s-.113.074-.205.074c-.09 0-.157-.024-.202-.074s-.067-.125-.067-.226V26.4a.153.153 0 00-.043-.109c-.028-.029-.064-.043-.107-.043a.146.146 0 00-.15.152v.635c0 .176.049.316.146.42.098.103.239.155.424.155.186 0 .327-.052.425-.155a.583.583 0 00.147-.42V26.4a.152.152 0 00-.042-.109.142.142 0 00-.107-.043.145.145 0 00-.107.043.145.145 0 00-.045.109zM53.017 26.913a.642.642 0 00-.143-.073 2.169 2.169 0 00-.152-.047 1.864 1.864 0 01-.137-.042.277.277 0 01-.101-.055.116.116 0 01-.038-.091c0-.042.011-.072.032-.091a.17.17 0 01.077-.038.394.394 0 01.244.024.29.29 0 01.114.087c.021.02.049.031.082.034s.063-.006.088-.026c.035-.028.051-.06.048-.095a.188.188 0 00-.033-.09c-.035-.045-.078-.082-.13-.109a.672.672 0 00-.325-.079c-.081 0-.159.016-.233.047s-.135.077-.182.135a.334.334 0 00-.069.213c0 .073.014.134.042.182s.065.087.11.116a.674.674 0 00.148.071c.055.019.107.035.159.05.05.013.095.027.136.042a.309.309 0 01.099.055.111.111 0 01.038.088c0 .043-.012.075-.034.096a.158.158 0 01-.078.04.456.456 0 01-.283-.029.583.583 0 01-.152-.113.146.146 0 00-.087-.046.135.135 0 00-.085.021c-.042.027-.063.059-.065.095s.006.066.022.09c.065.087.146.147.245.181s.196.051.295.051a.598.598 0 00.23-.046.492.492 0 00.188-.136.327.327 0 00.074-.217.362.362 0 00-.04-.181.335.335 0 00-.104-.114zM54.85 27.425a.133.133 0 00-.029-.09c-.019-.021-.04-.033-.063-.033a.154.154 0 00-.058.011.126.126 0 01-.055.012c-.019 0-.036-.003-.052-.01s-.028-.018-.037-.033a.1.1 0 01-.014-.057v-.678h.177c.04 0 .074-.013.101-.039s.04-.058.04-.096c0-.04-.014-.073-.04-.1s-.061-.04-.101-.04h-.177v-.16a.148.148 0 00-.147-.152.148.148 0 00-.152.152v.16h-.115a.142.142 0 00-.101.039.131.131 0 00-.04.096.137.137 0 00.141.14h.115v.69c0 .082.012.146.037.193a.273.273 0 00.214.146.829.829 0 00.116.009.319.319 0 00.164-.045c.05-.03.076-.068.076-.115zM55.141 26.556c-.061.104-.091.225-.091.361s.03.257.091.361a.66.66 0 00.589.331.687.687 0 00.344-.087.652.652 0 00.245-.244c.061-.104.091-.225.091-.361s-.03-.257-.091-.361a.677.677 0 00-.245-.245c-.103-.059-.217-.088-.344-.088s-.241.029-.344.088a.662.662 0 00-.245.245zm.397-.006c.058-.035.121-.052.191-.052a.367.367 0 01.329.198.454.454 0 01.051.221c0 .083-.017.156-.051.219a.374.374 0 01-.52.146c-.058-.035-.104-.083-.138-.146s-.051-.135-.051-.219c0-.085.017-.159.051-.221s.08-.111.138-.146zM57.222 26.485c.034 0 .063.006.089.018a.205.205 0 00.087.018.14.14 0 00.092-.036c.028-.024.043-.064.043-.119 0-.038-.018-.071-.052-.1s-.076-.042-.126-.042a.534.534 0 00-.242.061.374.374 0 00-.153.158V26.4a.153.153 0 00-.043-.109c-.028-.029-.064-.043-.107-.043a.146.146 0 00-.15.152v1.033a.149.149 0 00.15.152.143.143 0 00.107-.044.15.15 0 00.043-.108v-.593c0-.06.008-.112.023-.156a.332.332 0 01.063-.111.24.24 0 01.176-.088zM58.406 27.54c.051-.03.076-.068.076-.115a.133.133 0 00-.029-.09c-.019-.021-.04-.033-.063-.033a.154.154 0 00-.058.011.126.126 0 01-.055.012c-.019 0-.036-.003-.052-.01s-.028-.018-.037-.033a.1.1 0 01-.014-.057v-.678h.177c.04 0 .074-.013.101-.039s.04-.058.04-.096c0-.04-.014-.073-.04-.1s-.061-.04-.101-.04h-.177v-.16a.148.148 0 00-.147-.152.148.148 0 00-.152.152v.16h-.115a.142.142 0 00-.101.039.131.131 0 00-.04.096.137.137 0 00.141.14h.115v.69c0 .082.012.146.037.193a.273.273 0 00.214.146.829.829 0 00.116.009.319.319 0 00.164-.045zM59.706 26.311c-.103-.059-.217-.088-.344-.088s-.241.029-.344.088c-.103.06-.185.141-.245.245s-.091.225-.091.361.03.257.091.361a.66.66 0 00.589.331.687.687 0 00.344-.087.652.652 0 00.245-.244c.061-.104.091-.225.091-.361s-.03-.257-.091-.361a.67.67 0 00-.245-.245zm-.015.825a.374.374 0 01-.52.146c-.058-.035-.104-.083-.138-.146s-.051-.135-.051-.219c0-.085.017-.159.051-.221s.08-.111.138-.146c.058-.035.121-.052.191-.052a.367.367 0 01.329.198.454.454 0 01.051.221.438.438 0 01-.051.219zM60.442 27.585a.143.143 0 00.107-.044.15.15 0 00.043-.108v-.593c0-.06.008-.112.023-.156a.332.332 0 01.063-.111.24.24 0 01.176-.087c.034 0 .063.006.089.018a.205.205 0 00.087.018.14.14 0 00.092-.036c.028-.024.043-.064.043-.119 0-.038-.018-.071-.052-.1s-.076-.042-.126-.042a.534.534 0 00-.242.061.374.374 0 00-.153.158V26.4a.153.153 0 00-.043-.109c-.028-.029-.064-.043-.107-.043a.146.146 0 00-.15.152v1.033a.149.149 0 00.15.152zM61.442 27.735l-.062.022c-.025.008-.036.032-.036.07 0 .037.012.063.035.077a.154.154 0 00.085.022.178.178 0 00.11-.04.502.502 0 00.182-.323c0-.086-.021-.152-.064-.197a.224.224 0 00-.171-.068.292.292 0 00-.2.092.137.137 0 00-.037.097c0 .029.006.049.019.062a.174.174 0 00.044.031.092.092 0 01.035-.014c.013-.002.024-.004.034-.004.028 0 .052.007.069.021s.026.03.026.048a.092.092 0 01-.02.059.113.113 0 01-.049.045zM63.46 26.223a.534.534 0 00-.242.061.374.374 0 00-.153.158V26.4a.153.153 0 00-.043-.109c-.028-.029-.064-.043-.107-.043a.146.146 0 00-.15.152v1.033a.149.149 0 00.15.152.143.143 0 00.107-.044.15.15 0 00.043-.108v-.593c0-.06.008-.112.023-.156a.332.332 0 01.063-.111.24.24 0 01.176-.087c.034 0 .063.006.089.018a.205.205 0 00.087.018.14.14 0 00.092-.036c.028-.024.043-.064.043-.119 0-.038-.018-.071-.052-.1s-.076-.044-.126-.044zM63.982 25.788a.219.219 0 00-.119.026c-.025.018-.038.051-.038.099v.047c0 .047.012.079.035.098.023.018.063.027.12.027.057 0 .097-.009.122-.026s.037-.05.037-.099v-.047c0-.047-.012-.079-.034-.098-.023-.018-.064-.027-.123-.027zM63.982 26.248a.146.146 0 00-.15.152v1.033a.149.149 0 00.15.152.143.143 0 00.107-.044.15.15 0 00.043-.108V26.4a.153.153 0 00-.043-.109.14.14 0 00-.107-.043zM65.25 26.913a.642.642 0 00-.143-.073 2.169 2.169 0 00-.152-.047 1.864 1.864 0 01-.137-.042.277.277 0 01-.101-.055.116.116 0 01-.038-.091c0-.042.011-.072.032-.091a.17.17 0 01.077-.038.394.394 0 01.244.024.29.29 0 01.114.087c.021.02.049.031.082.034s.063-.006.088-.026c.035-.028.051-.06.048-.095a.188.188 0 00-.033-.09c-.035-.045-.078-.082-.13-.109a.672.672 0 00-.325-.079c-.081 0-.159.016-.233.047s-.135.077-.182.135a.334.334 0 00-.069.213c0 .073.014.134.042.182s.065.087.11.116a.674.674 0 00.148.071c.055.019.107.035.159.05.05.013.095.027.136.042a.309.309 0 01.099.055.111.111 0 01.038.088c0 .043-.012.075-.034.096a.158.158 0 01-.078.04.456.456 0 01-.283-.029.583.583 0 01-.152-.113.146.146 0 00-.087-.046.135.135 0 00-.085.021c-.042.027-.063.059-.065.095s.006.066.022.09c.065.087.146.147.245.181s.196.051.295.051a.598.598 0 00.23-.046.492.492 0 00.188-.136.327.327 0 00.074-.217.362.362 0 00-.04-.181.335.335 0 00-.104-.114zM66.638 26.248a.145.145 0 00-.107.043.15.15 0 00-.043.109v.635c0 .102-.022.177-.067.226s-.113.074-.205.074c-.09 0-.157-.024-.202-.074s-.067-.125-.067-.226V26.4a.153.153 0 00-.043-.109c-.028-.029-.064-.043-.107-.043a.146.146 0 00-.15.152v.635c0 .176.049.316.146.42.098.103.239.155.424.155.186 0 .327-.052.425-.155a.583.583 0 00.147-.42V26.4a.152.152 0 00-.042-.109.15.15 0 00-.109-.043zM67.923 26.913a.642.642 0 00-.143-.073 2.169 2.169 0 00-.152-.047 1.864 1.864 0 01-.137-.042.277.277 0 01-.101-.055.116.116 0 01-.038-.091c0-.042.011-.072.032-.091a.17.17 0 01.077-.038.394.394 0 01.244.024.29.29 0 01.114.087c.021.02.049.031.082.034s.063-.006.088-.026c.035-.028.051-.06.048-.095a.188.188 0 00-.033-.09c-.035-.045-.078-.082-.13-.109a.672.672 0 00-.325-.079c-.081 0-.159.016-.233.047s-.135.077-.182.135a.334.334 0 00-.069.213c0 .073.014.134.042.182s.065.087.11.116a.674.674 0 00.148.071c.055.019.107.035.159.05.05.013.095.027.136.042a.309.309 0 01.099.055.111.111 0 01.038.088c0 .043-.012.075-.034.096a.158.158 0 01-.078.04.456.456 0 01-.283-.029.583.583 0 01-.152-.113.146.146 0 00-.087-.046.135.135 0 00-.085.021c-.042.027-.063.059-.065.095s.006.066.022.09c.065.087.146.147.245.181s.196.051.295.051a.598.598 0 00.23-.046.492.492 0 00.188-.136.327.327 0 00.074-.217.362.362 0 00-.04-.181.335.335 0 00-.104-.114zM70.101 25.735c-.044 0-.079.015-.107.044s-.043.065-.043.109v.498c-.017-.016-.027-.033-.049-.048a.594.594 0 00-.658-.027.635.635 0 00-.219.245.762.762 0 00-.081.361.76.76 0 00.081.359.625.625 0 00.221.245.568.568 0 00.49.058.57.57 0 00.141-.076.431.431 0 00.075-.072v.002a.149.149 0 00.15.152.143.143 0 00.107-.044.15.15 0 00.042-.108v-1.545c0-.045-.014-.082-.042-.11s-.065-.043-.108-.043zm-.313 1.545a.335.335 0 01-.192.055.339.339 0 01-.19-.055.371.371 0 01-.129-.15.488.488 0 01-.046-.212c0-.08.016-.152.046-.215a.378.378 0 01.129-.15.334.334 0 01.19-.055c.073 0 .138.018.192.055a.378.378 0 01.129.15c.03.063.046.135.046.215a.488.488 0 01-.046.212.378.378 0 01-.129.15zM71.607 26.248a.145.145 0 00-.107.043.15.15 0 00-.043.109v.635c0 .102-.022.177-.067.226s-.113.074-.205.074c-.09 0-.157-.024-.202-.074s-.067-.125-.067-.226V26.4a.153.153 0 00-.043-.109c-.028-.029-.064-.043-.107-.043a.146.146 0 00-.15.152v.635c0 .176.049.316.146.42.098.103.239.155.424.155.186 0 .327-.052.425-.155a.583.583 0 00.147-.42V26.4a.152.152 0 00-.042-.109.149.149 0 00-.109-.043zM72.215 26.248a.146.146 0 00-.15.152v1.033a.149.149 0 00.15.152.143.143 0 00.107-.044.15.15 0 00.043-.108V26.4a.153.153 0 00-.043-.109.142.142 0 00-.107-.043zM72.215 25.788a.219.219 0 00-.119.026c-.025.018-.038.051-.038.099v.047c0 .047.012.079.035.098.023.018.063.027.12.027.057 0 .097-.009.122-.026s.037-.05.037-.099v-.047c0-.047-.012-.079-.034-.098-.024-.018-.065-.027-.123-.027zM73.482 26.913a.642.642 0 00-.143-.073 2.169 2.169 0 00-.152-.047 1.864 1.864 0 01-.137-.042.277.277 0 01-.101-.055.116.116 0 01-.038-.091c0-.042.011-.072.032-.091a.17.17 0 01.077-.038.394.394 0 01.244.024.29.29 0 01.114.087c.021.02.049.031.082.034s.063-.006.088-.026c.035-.028.051-.06.048-.095a.188.188 0 00-.033-.09c-.035-.045-.078-.082-.13-.109a.672.672 0 00-.325-.079c-.081 0-.159.016-.233.047s-.135.077-.182.135a.334.334 0 00-.069.213c0 .073.014.134.042.182s.065.087.11.116a.674.674 0 00.148.071c.055.019.107.035.159.05.05.013.095.027.136.042a.309.309 0 01.099.055.111.111 0 01.038.088c0 .043-.012.075-.034.096a.158.158 0 01-.078.04.456.456 0 01-.283-.029.583.583 0 01-.152-.113.146.146 0 00-.087-.046.135.135 0 00-.085.021c-.042.027-.063.059-.065.095s.006.066.022.09c.065.087.146.147.245.181s.196.051.295.051a.598.598 0 00.23-.046.492.492 0 00.188-.136.327.327 0 00.074-.217.325.325 0 00-.144-.295zM76.394 26.3a.423.423 0 00-.273-.077.423.423 0 00-.199.046.538.538 0 00-.15.113.547.547 0 00-.093.124l-.005.009a.455.455 0 00-.098-.195c-.063-.064-.162-.096-.295-.096a.433.433 0 00-.152.026.541.541 0 00-.226.16c-.011.013-.016.023-.024.036V26.4a.153.153 0 00-.043-.109c-.028-.029-.064-.043-.107-.043a.146.146 0 00-.15.152v1.033a.149.149 0 00.15.152.143.143 0 00.107-.044.15.15 0 00.043-.108v-.64c0-.055.011-.104.033-.149a.254.254 0 01.102-.106.309.309 0 01.162-.04c.065 0 .115.013.15.04a.199.199 0 01.072.106.492.492 0 01.021.149v.64a.148.148 0 00.149.152.142.142 0 00.107-.044.15.15 0 00.043-.108v-.64c0-.055.011-.104.033-.149a.254.254 0 01.102-.106c.045-.027.1-.04.162-.04.065 0 .115.013.15.04.035.026.06.062.072.106a.492.492 0 01.021.149v.64a.148.148 0 00.149.152.142.142 0 00.107-.044.15.15 0 00.043-.108v-.64c0-.105-.012-.2-.035-.286s-.066-.155-.128-.207zM77.965 26.223a.145.145 0 00-.107.043.15.15 0 00-.043.109v.011c-.017-.016-.027-.033-.049-.048a.594.594 0 00-.658-.027.635.635 0 00-.219.245.762.762 0 00-.081.361.76.76 0 00.081.359.625.625 0 00.221.245.568.568 0 00.49.058.57.57 0 00.141-.076.431.431 0 00.075-.072v.002a.149.149 0 00.15.152.143.143 0 00.107-.044.15.15 0 00.042-.108v-1.058c0-.045-.014-.082-.042-.11s-.065-.042-.108-.042zm-.313 1.057a.335.335 0 01-.192.055.339.339 0 01-.19-.055.371.371 0 01-.129-.15.488.488 0 01-.046-.212c0-.08.016-.152.046-.215a.378.378 0 01.129-.15.334.334 0 01.19-.055c.073 0 .138.018.192.055a.378.378 0 01.129.15c.03.063.046.135.046.215a.488.488 0 01-.046.212.378.378 0 01-.129.15zM79.547 26.223a.146.146 0 00-.107.043.15.15 0 00-.042.109v.035c-.021-.024-.041-.048-.071-.072a.565.565 0 00-.343-.115.573.573 0 00-.313.088c-.094.06-.168.141-.223.245s-.082.225-.082.361a.76.76 0 00.082.359c.055.104.13.186.225.245a.59.59 0 00.32.089c.061 0 .117-.01.17-.031a.556.556 0 00.232-.167c.003-.003.002-.005.004-.009v.125c0 .088-.03.158-.09.208-.061.05-.152.075-.277.075a.455.455 0 01-.122-.019c-.046-.012-.088-.026-.126-.041s-.065-.025-.082-.03c-.037-.013-.072-.011-.105.006s-.058.05-.072.099a.123.123 0 00.011.104c.02.033.054.06.104.081a.89.89 0 00.109.033c.049.012.1.021.152.03a.953.953 0 00.131.013c.116 0 .226-.02.327-.059a.534.534 0 00.246-.19.586.586 0 00.094-.349v-1.112c0-.045-.014-.082-.042-.11s-.066-.044-.11-.044zm-.185.907a.356.356 0 01-.332.205.361.361 0 01-.33-.205.462.462 0 01-.048-.212.47.47 0 01.048-.215.355.355 0 01.33-.205.354.354 0 01.332.205.482.482 0 01.048.215.465.465 0 01-.048.212zM81.019 26.3a.444.444 0 00-.281-.077.476.476 0 00-.288.095.677.677 0 00-.1.091c-.012.014-.018.025-.027.038V26.4a.153.153 0 00-.043-.109c-.028-.029-.064-.043-.107-.043a.146.146 0 00-.15.152v1.033a.149.149 0 00.15.152.143.143 0 00.107-.044.15.15 0 00.043-.108v-.64a.31.31 0 01.036-.149.265.265 0 01.104-.106.33.33 0 01.169-.04.26.26 0 01.157.04.195.195 0 01.076.106.463.463 0 01.021.149v.64a.149.149 0 00.15.152.143.143 0 00.107-.044.15.15 0 00.042-.108v-.64c0-.105-.012-.2-.036-.286s-.067-.155-.13-.207zM81.645 26.248a.146.146 0 00-.15.152v1.033a.149.149 0 00.15.152.143.143 0 00.107-.044.15.15 0 00.043-.108V26.4a.153.153 0 00-.043-.109.142.142 0 00-.107-.043zM81.645 25.788a.219.219 0 00-.119.026c-.025.018-.038.051-.038.099v.047c0 .047.012.079.035.098.023.018.063.027.12.027.057 0 .097-.009.122-.026s.037-.05.037-.099v-.047c0-.047-.012-.079-.034-.098-.024-.018-.065-.027-.123-.027zM83.017 27.029a.352.352 0 00-.104-.116.642.642 0 00-.143-.073 2.169 2.169 0 00-.152-.047 1.864 1.864 0 01-.137-.042.277.277 0 01-.101-.055.116.116 0 01-.038-.091c0-.042.011-.072.032-.091a.17.17 0 01.077-.038.394.394 0 01.244.024.29.29 0 01.114.087c.021.02.049.031.082.034s.063-.006.088-.026c.035-.028.051-.06.048-.095a.188.188 0 00-.033-.09c-.035-.045-.078-.082-.13-.109a.672.672 0 00-.325-.079c-.081 0-.159.016-.233.047s-.135.077-.182.135a.334.334 0 00-.069.213c0 .073.014.134.042.182s.065.087.11.116a.674.674 0 00.148.071c.055.019.107.035.159.05.05.013.095.027.136.042a.309.309 0 01.099.055.111.111 0 01.038.088c0 .043-.012.075-.034.096a.158.158 0 01-.078.04.456.456 0 01-.283-.029.583.583 0 01-.152-.113.146.146 0 00-.087-.046.135.135 0 00-.085.021c-.042.027-.063.059-.065.095s.006.066.022.09c.065.087.146.147.245.181s.196.051.295.051a.598.598 0 00.23-.046.492.492 0 00.188-.136.327.327 0 00.074-.217.36.36 0 00-.04-.179zM38.915 29.3a.423.423 0 00-.273-.077.423.423 0 00-.199.046.543.543 0 00-.151.113.54.54 0 00-.092.124l-.004.009a.479.479 0 00-.098-.195c-.063-.064-.162-.096-.295-.096a.447.447 0 00-.28.095.574.574 0 00-.098.091c-.01.013-.016.024-.025.037V29.4a.152.152 0 00-.042-.109c-.028-.029-.064-.043-.107-.043s-.079.015-.107.043a.15.15 0 00-.042.109v1.033c0 .043.014.079.042.108s.064.044.107.044.079-.015.107-.044.042-.065.042-.108v-.64a.32.32 0 01.034-.149.254.254 0 01.102-.106.309.309 0 01.162-.04c.065 0 .115.013.15.04a.199.199 0 01.072.106c.013.044.02.094.02.149v.64c0 .043.014.079.042.108s.064.044.107.044.079-.015.107-.044.043-.065.043-.108v-.64a.32.32 0 01.034-.149.251.251 0 01.101-.106.31.31 0 01.163-.04c.065 0 .115.013.15.04a.199.199 0 01.072.106c.014.044.02.094.02.149v.64c0 .043.014.079.042.108s.064.044.108.044c.043 0 .079-.015.107-.044s.042-.065.042-.108v-.64c0-.105-.012-.2-.035-.286s-.066-.155-.128-.207zM40.486 29.223a.146.146 0 00-.107.043.15.15 0 00-.042.109v.011c-.017-.016-.028-.033-.049-.048a.596.596 0 00-.659-.027.635.635 0 00-.219.245.775.775 0 00-.082.361.76.76 0 00.082.359.625.625 0 00.221.245.57.57 0 00.489.057.556.556 0 00.141-.076c.032-.023.054-.048.075-.071v.002c0 .043.014.079.042.108s.064.044.107.044.079-.015.107-.044.042-.065.042-.108v-1.058a.143.143 0 00-.148-.152zm-.312 1.056a.336.336 0 01-.192.056.332.332 0 01-.19-.056c-.055-.036-.098-.086-.128-.149s-.046-.134-.046-.212c0-.08.016-.152.046-.215a.383.383 0 01.128-.15.334.334 0 01.19-.055c.073 0 .137.018.192.055a.368.368 0 01.128.15.482.482 0 01.046.215.475.475 0 01-.046.212.366.366 0 01-.128.149zM42.069 29.223a.146.146 0 00-.107.043.15.15 0 00-.042.109v.034c-.021-.024-.041-.048-.071-.072a.565.565 0 00-.343-.115.576.576 0 00-.313.088.653.653 0 00-.223.245.763.763 0 00-.083.361.76.76 0 00.083.359.595.595 0 00.545.333.526.526 0 00.401-.198c.002-.004.001-.006.004-.009v.125c0 .088-.03.158-.09.207-.06.051-.152.076-.277.076a.932.932 0 01-.247-.061.778.778 0 00-.083-.03c-.037-.013-.072-.011-.105.007s-.058.05-.072.099c-.012.036-.008.071.011.104s.054.06.104.081a1.64 1.64 0 00.392.075.91.91 0 00.328-.059c.102-.04.184-.103.246-.19s.094-.203.094-.349v-1.112c0-.045-.014-.082-.042-.11s-.067-.041-.11-.041zm-.185.907a.36.36 0 01-.332.205.35.35 0 01-.197-.056c-.057-.036-.101-.086-.133-.149s-.047-.134-.047-.212c0-.08.016-.152.047-.215a.354.354 0 01.33-.205.355.355 0 01.332.205.469.469 0 01.047.215.465.465 0 01-.047.212zM43.54 29.3a.444.444 0 00-.281-.077.466.466 0 00-.287.095.677.677 0 00-.1.091c-.012.014-.018.026-.028.039V29.4a.152.152 0 00-.042-.109c-.028-.029-.064-.043-.107-.043s-.079.015-.107.043a.15.15 0 00-.042.109v1.033c0 .043.014.079.042.108s.064.044.107.044.079-.015.107-.044.042-.065.042-.108v-.64a.31.31 0 01.036-.149.274.274 0 01.105-.106.33.33 0 01.169-.04c.068 0 .121.013.158.04a.2.2 0 01.076.106.492.492 0 01.021.149v.64c0 .043.014.079.042.108s.064.044.108.044c.043 0 .079-.015.107-.044s.042-.065.042-.108v-.64c0-.105-.012-.2-.037-.286a.385.385 0 00-.131-.207zM45.116 29.223a.146.146 0 00-.107.043.15.15 0 00-.042.109v.011c-.017-.016-.028-.033-.049-.048a.596.596 0 00-.659-.027.635.635 0 00-.219.245.775.775 0 00-.082.361.76.76 0 00.082.359.625.625 0 00.221.245.57.57 0 00.489.057.556.556 0 00.141-.076c.032-.023.054-.048.075-.071v.002c0 .043.014.079.042.108s.064.044.107.044.079-.015.107-.044.042-.065.042-.108v-1.058a.143.143 0 00-.148-.152zm-.312 1.056a.336.336 0 01-.192.056.332.332 0 01-.19-.056c-.055-.036-.098-.086-.128-.149s-.046-.134-.046-.212c0-.08.016-.152.046-.215a.383.383 0 01.128-.15.334.334 0 01.19-.055c.073 0 .137.018.192.055a.368.368 0 01.128.15.482.482 0 01.046.215.475.475 0 01-.046.212.373.373 0 01-.128.149zM46.469 28.735a.145.145 0 00-.108.044.148.148 0 00-.044.109v1.545c0 .043.014.079.042.108s.063.044.105.044a.15.15 0 00.152-.152v-1.545c0-.043-.014-.08-.041-.109s-.063-.044-.106-.044zM48.049 29.223a.146.146 0 00-.107.043.15.15 0 00-.042.109v.011c-.017-.016-.028-.033-.049-.048a.596.596 0 00-.659-.027.635.635 0 00-.219.245.775.775 0 00-.082.361.76.76 0 00.082.359.625.625 0 00.221.245.57.57 0 00.489.057.556.556 0 00.141-.076c.032-.023.054-.048.075-.071v.002c0 .043.014.079.042.108s.064.044.107.044.079-.015.107-.044.042-.065.042-.108v-1.058a.143.143 0 00-.148-.152zm-.313 1.056a.336.336 0 01-.192.056.332.332 0 01-.19-.056c-.055-.036-.098-.086-.128-.149s-.046-.134-.046-.212c0-.08.016-.152.046-.215a.383.383 0 01.128-.15.334.334 0 01.19-.055c.073 0 .137.018.192.055a.368.368 0 01.128.15.482.482 0 01.046.215.475.475 0 01-.046.212.359.359 0 01-.128.149zM49.459 30.24a.137.137 0 00-.083.022.626.626 0 01-.063.042.266.266 0 01-.075.023.81.81 0 01-.107.007.371.371 0 01-.334-.204.46.46 0 01-.048-.213c0-.082.016-.154.047-.216a.368.368 0 01.352-.204.48.48 0 01.152.032c.019.01.034.021.047.033a.199.199 0 00.046.029c.018.007.04.011.066.011a.1.1 0 00.087-.044.167.167 0 00-.029-.222c-.039-.036-.094-.064-.165-.084s-.154-.03-.249-.03a.622.622 0 00-.573.333.752.752 0 00-.084.361c0 .129.026.248.079.352a.613.613 0 00.224.249c.097.062.21.091.342.091a.92.92 0 00.246-.031.551.551 0 00.184-.082c.046-.034.07-.072.07-.113s-.012-.074-.035-.102c-.02-.026-.054-.04-.097-.04zM50.805 29.248a.147.147 0 00-.15.152v.635c0 .102-.023.177-.068.227-.045.049-.113.073-.205.073-.09 0-.156-.024-.203-.073-.045-.05-.066-.125-.066-.227V29.4a.149.149 0 00-.043-.109.14.14 0 00-.107-.043.146.146 0 00-.107.043.15.15 0 00-.042.109v.635c0 .176.049.316.146.42s.238.154.423.154.328-.051.426-.154.146-.244.146-.42V29.4a.155.155 0 00-.041-.109.152.152 0 00-.109-.043zM52.09 29.913a.688.688 0 00-.143-.073c-.053-.018-.104-.034-.152-.047s-.094-.027-.137-.042c-.043-.014-.076-.032-.102-.055s-.037-.053-.037-.091c0-.042.01-.072.031-.091a.178.178 0 01.078-.038.381.381 0 01.244.024.295.295 0 01.113.087c.021.02.049.031.082.034s.063-.006.088-.026c.035-.028.051-.06.049-.095a.198.198 0 00-.033-.09.387.387 0 00-.131-.109.728.728 0 00-.324-.079c-.082 0-.16.016-.234.047s-.135.077-.182.135a.34.34 0 00-.068.213c0 .073.014.134.041.182a.353.353 0 00.111.116.653.653 0 00.148.071c.055.019.107.035.158.05a1.4 1.4 0 01.137.043.293.293 0 01.098.055.11.11 0 01.039.088c0 .043-.012.075-.035.096-.021.021-.049.035-.078.041s-.057.009-.082.011a.464.464 0 01-.201-.04.583.583 0 01-.152-.113.14.14 0 00-.086-.045.132.132 0 00-.086.021c-.041.026-.063.059-.064.095a.149.149 0 00.021.09.509.509 0 00.246.182.889.889 0 00.295.051.601.601 0 00.23-.046.482.482 0 00.188-.136.336.336 0 00.074-.218.362.362 0 00-.041-.181.308.308 0 00-.103-.117zM54.191 29.311a.574.574 0 00-.314-.088.514.514 0 00-.393.191V29.4a.149.149 0 00-.043-.109c-.027-.029-.064-.043-.107-.043s-.078.015-.107.043a.155.155 0 00-.043.109v1.533c0 .045.016.081.043.11.029.027.064.042.107.042s.08-.015.107-.044a.146.146 0 00.043-.108v-.498c.02.021.035.04.061.061a.553.553 0 00.342.114.556.556 0 00.307-.088.638.638 0 00.217-.245c.055-.104.082-.225.082-.361s-.027-.257-.082-.36a.637.637 0 00-.22-.245zm-.033.818a.375.375 0 01-.127.15.335.335 0 01-.191.056.335.335 0 01-.193-.056.365.365 0 01-.129-.15.515.515 0 01-.045-.214c0-.08.016-.151.045-.214a.375.375 0 01.129-.149.336.336 0 01.193-.055c.072 0 .137.018.191.055.053.037.096.086.127.149s.047.134.047.214a.49.49 0 01-.047.214zM55.438 29.223a.522.522 0 00-.242.061.442.442 0 00-.1.078.412.412 0 00-.053.08V29.4a.157.157 0 00-.043-.109c-.029-.029-.064-.043-.107-.043s-.08.015-.107.043a.147.147 0 00-.043.109v1.033c0 .043.014.079.043.108.027.029.064.044.107.044s.078-.015.107-.044a.154.154 0 00.043-.108v-.593c0-.06.008-.112.023-.156a.316.316 0 01.063-.111.236.236 0 01.176-.087c.033 0 .063.006.088.018.027.012.055.018.088.018s.063-.012.092-.036c.027-.024.043-.064.043-.119 0-.038-.018-.071-.053-.1a.184.184 0 00-.125-.044zM56.783 29.419a.688.688 0 00-.201-.144.617.617 0 00-.555.033c-.098.057-.178.138-.238.244s-.092.234-.092.384c0 .128.027.243.084.344a.607.607 0 00.24.242.735.735 0 00.369.088.741.741 0 00.424-.137c.047-.037.07-.078.07-.123a.117.117 0 00-.037-.087.117.117 0 00-.09-.038.198.198 0 00-.086.023c-.018.01-.039.021-.061.035a.317.317 0 01-.09.037.568.568 0 01-.146.015.382.382 0 01-.334-.192c-.021-.034-.021-.082-.031-.124h.811a.162.162 0 00.105-.037.133.133 0 00.047-.098.663.663 0 00-.189-.465zm-.695.166a.254.254 0 01.111-.067c.045-.014.09-.02.141-.02s.1.011.146.034a.342.342 0 01.115.091.231.231 0 01.051.13v.018h-.648c.004-.018.003-.042.008-.058a.345.345 0 01.076-.128zM57.83 29.547a.138.138 0 00.1-.039.128.128 0 00.041-.096.136.136 0 00-.041-.1.133.133 0 00-.1-.04h-.178v-.16a.151.151 0 00-.041-.108.139.139 0 00-.105-.044.146.146 0 00-.109.044.146.146 0 00-.043.108v.16h-.115a.143.143 0 00-.102.039.134.134 0 00-.039.096c0 .04.014.074.039.1.027.027.061.04.102.04h.115v.69c0 .082.012.146.037.192s.057.082.094.104c.037.023.076.037.119.043s.082.009.117.009a.322.322 0 00.164-.045c.051-.03.076-.068.076-.115 0-.038-.01-.068-.029-.09s-.041-.032-.064-.032a.145.145 0 00-.057.011c-.018.008-.035.012-.055.012s-.037-.003-.053-.011c-.016-.006-.027-.018-.037-.032s-.014-.034-.014-.058v-.677h.178zM58.377 28.788a.223.223 0 00-.119.026c-.025.018-.037.051-.037.099v.047c0 .047.012.079.035.098.023.018.063.027.119.027s.098-.009.123-.026.037-.05.037-.099v-.047c0-.047-.012-.079-.035-.098-.023-.018-.064-.027-.123-.027zM58.377 29.248a.148.148 0 00-.107.043.155.155 0 00-.043.109v1.033c0 .043.016.079.043.108.029.029.064.044.107.044s.08-.015.107-.044a.146.146 0 00.043-.108V29.4a.149.149 0 00-.043-.109.14.14 0 00-.107-.043zM59.828 29.248a.147.147 0 00-.15.152v.635c0 .102-.023.177-.068.227-.045.049-.113.073-.205.073-.09 0-.156-.024-.201-.073-.045-.05-.068-.125-.068-.227V29.4a.149.149 0 00-.043-.109c-.027-.029-.064-.043-.107-.043s-.078.015-.107.043a.155.155 0 00-.043.109v.635c0 .176.049.316.146.42s.24.154.424.154c.186 0 .328-.051.426-.154s.146-.244.146-.42V29.4a.155.155 0 00-.041-.109.152.152 0 00-.109-.043zM62.119 29.3a.425.425 0 00-.273-.077.417.417 0 00-.199.046.538.538 0 00-.15.113.526.526 0 00-.094.124l-.004.008a.475.475 0 00-.098-.194c-.064-.064-.162-.096-.295-.096a.425.425 0 00-.152.026.569.569 0 00-.227.16.226.226 0 00-.023.034V29.4a.157.157 0 00-.043-.109c-.029-.029-.064-.043-.107-.043s-.08.015-.107.043a.147.147 0 00-.043.109v1.033c0 .043.014.079.043.108.027.029.064.044.107.044s.078-.015.107-.044a.154.154 0 00.043-.108v-.64a.32.32 0 01.033-.149.248.248 0 01.102-.106c.045-.027.098-.04.162-.04s.115.013.15.04a.199.199 0 01.072.106c.014.044.02.094.02.149v.64c0 .043.014.079.043.108.027.029.064.044.107.044s.078-.015.107-.044a.154.154 0 00.043-.108v-.64a.32.32 0 01.033-.149.248.248 0 01.102-.106c.045-.027.1-.04.162-.04.064 0 .115.013.15.04a.199.199 0 01.072.106c.014.044.02.094.02.149v.64c0 .043.014.079.043.108.027.029.064.044.107.044s.078-.015.107-.044a.154.154 0 00.043-.108v-.64c0-.105-.012-.2-.035-.286s-.065-.155-.128-.207zM62.771 30.24h-.031c-.049 0-.086.013-.111.039a.153.153 0 00-.039.111v.042c0 .048.014.085.039.111.025.025.063.038.111.038h.031c.049 0 .086-.013.111-.038.027-.026.039-.063.039-.111v-.042c0-.049-.012-.086-.039-.111-.025-.026-.062-.039-.111-.039z"/></g><g><defs><path id="a" d="M0 1h100v60H0z"/></defs><clipPath id="b"><use xlink:href="#a" overflow="visible"/></clipPath><path clip-path="url(#b)" fill="none" stroke="#000" stroke-width=".75" stroke-miterlimit="10" d="M58.227 51.041H41.773c-2.221 0-4.038-1.817-4.038-4.038s1.817-4.037 4.038-4.037h16.453c2.221 0 4.037 1.816 4.037 4.037s-1.816 4.038-4.036 4.038z"/></g><g><path d="M43.264 47.001h-.41a.149.149 0 00-.152.15c0 .043.015.079.044.107a.15.15 0 00.108.043h.235v.32a.59.59 0 01-.125.034 1.01 1.01 0 01-.165.015.55.55 0 01-.296-.081.594.594 0 01-.212-.219.588.588 0 01-.079-.3.599.599 0 01.291-.519.551.551 0 01.296-.081.698.698 0 01.279.057.192.192 0 00.083.021.128.128 0 00.103-.048.163.163 0 00.04-.107.132.132 0 00-.019-.068.133.133 0 00-.056-.054.787.787 0 00-.202-.075 1.008 1.008 0 00-.228-.025.926.926 0 00-.841.55c-.048.108-.071.225-.071.35s.023.241.071.35a.927.927 0 00.486.48.965.965 0 00.641.028c.091-.027.174-.064.251-.111a.204.204 0 00.054-.052.136.136 0 00.024-.083v-.53c0-.043-.014-.079-.042-.108s-.065-.044-.108-.044zM44.704 46.483a.16.16 0 00.108-.038.13.13 0 00.044-.102c0-.043-.015-.079-.044-.106s-.065-.041-.108-.041h-.838a.145.145 0 00-.108.044.147.147 0 00-.044.108v1.445c0 .043.015.079.044.108a.147.147 0 00.108.044h.838c.043 0 .079-.014.108-.04s.044-.061.044-.103a.144.144 0 00-.044-.102.15.15 0 00-.108-.043h-.678v-.463h.565c.043 0 .08-.013.109-.039a.128.128 0 00.043-.101c0-.044-.014-.079-.043-.106s-.065-.041-.109-.041h-.565v-.426h.678zM46.294 46.196h-1.11a.158.158 0 00-.109.039c-.029.025-.043.061-.043.104s.014.078.043.104c.029.027.065.04.109.04h.393v1.311c0 .043.015.079.045.108.03.029.068.044.115.044a.168.168 0 00.119-.044.141.141 0 00.046-.108v-1.311h.393c.043 0 .08-.013.109-.038a.134.134 0 00.044-.104c0-.043-.015-.078-.044-.104s-.067-.041-.11-.041zM48.464 47.085a.62.62 0 00-.189-.096 1.961 1.961 0 00-.264-.065 1.335 1.335 0 01-.198-.052c-.055-.019-.097-.045-.126-.077s-.044-.073-.044-.124a.17.17 0 01.038-.109c.025-.032.062-.057.111-.075a.527.527 0 01.321-.006c.05.014.098.031.143.052a.45.45 0 01.107.066c.02.016.042.022.067.022.039 0 .072-.015.1-.045s.042-.063.042-.1c0-.05-.024-.095-.073-.133a.7.7 0 00-.226-.124.913.913 0 00-.301-.049c-.115 0-.22.021-.315.061s-.17.099-.226.175a.457.457 0 00-.084.277c0 .072.012.137.035.194a.406.406 0 00.104.149c.046.043.103.078.171.105s.147.048.237.061c.095.014.173.032.235.057a.336.336 0 01.137.089c.03.035.045.077.045.127a.155.155 0 01-.047.111.326.326 0 01-.125.078.49.49 0 01-.17.028.58.58 0 01-.419-.157.127.127 0 00-.085-.03.145.145 0 00-.127.215.186.186 0 00.05.063c.085.073.174.125.268.154s.198.044.315.044a.789.789 0 00.316-.063.578.578 0 00.236-.181.444.444 0 00.09-.279.562.562 0 00-.038-.217.352.352 0 00-.111-.146zM50.16 46.236a.155.155 0 00-.108-.04h-1.11a.158.158 0 00-.109.039c-.029.025-.043.061-.043.104s.014.078.043.104c.029.027.065.04.109.04h.393v1.311c0 .043.015.079.045.108.03.029.068.044.115.044a.168.168 0 00.119-.044.141.141 0 00.046-.108v-1.311h.393a.158.158 0 00.108-.038.134.134 0 00.045-.104.143.143 0 00-.046-.105zM51.103 46.286a.144.144 0 00-.057-.073.142.142 0 00-.084-.026.131.131 0 00-.089.022.167.167 0 00-.061.077l-.623 1.495a.164.164 0 00-.007.048.14.14 0 00.032.092c.021.025.055.038.1.038.028 0 .055-.009.079-.026s.042-.042.054-.074l.13-.305h.745l.13.303a.18.18 0 00.057.075.13.13 0 00.081.027.142.142 0 00.096-.04.139.139 0 00.044-.107.163.163 0 00-.013-.061l-.614-1.465zm-.404.981l.249-.586.251.586h-.5zM53.271 47.651a.322.322 0 01-.016-.08 1.141 1.141 0 00-.014-.11.376.376 0 00-.103-.236c-.021-.023-.052-.042-.08-.061a.455.455 0 00.214-.245.544.544 0 00-.031-.464c-.047-.081-.107-.145-.184-.19s-.157-.068-.244-.068h-.72c-.043 0-.079.015-.108.044s-.044.065-.044.108v1.445c0 .043.019.079.055.108a.199.199 0 00.125.044c.042 0 .074-.015.098-.044s.035-.065.035-.108v-.485h.468c.038 0 .071.005.1.014.028.01.052.022.07.04s.032.039.042.063a.19.19 0 01.016.079c0 .087.009.157.026.212a.345.345 0 00.153.205c.019.011.042.019.07.024s.057.006.085 0 .052-.02.069-.042a.116.116 0 00.029-.108.143.143 0 00-.069-.094.095.095 0 01-.042-.051zm-.311-.754c-.019.048-.042.085-.07.112s-.058.042-.087.042h-.548v-.568h.548c.045 0 .087.025.126.074s.059.11.059.184a.433.433 0 01-.028.156zM54.775 46.196h-1.11a.154.154 0 00-.108.039c-.029.025-.044.061-.044.104s.015.078.044.104a.15.15 0 00.108.04h.393v1.311c0 .043.015.079.045.108s.068.044.115.044a.164.164 0 00.118-.044.142.142 0 00.047-.108v-1.311h.393a.16.16 0 00.108-.038.134.134 0 00.044-.104c0-.043-.015-.078-.044-.104s-.066-.041-.109-.041zM56.181 46.483a.16.16 0 00.108-.038.13.13 0 00.044-.102c0-.043-.015-.079-.044-.106s-.065-.041-.108-.041h-.838c-.043 0-.079.015-.108.044s-.044.065-.044.108v1.445c0 .043.015.079.044.108s.065.044.108.044h.838c.043 0 .079-.014.108-.04s.044-.061.044-.103a.144.144 0 00-.044-.102.15.15 0 00-.108-.043h-.678v-.463h.565a.156.156 0 00.108-.039.129.129 0 00.044-.101c0-.044-.015-.079-.044-.106s-.065-.041-.108-.041h-.565v-.426h.678zM58.071 46.732a.847.847 0 00-.145-.28.674.674 0 00-.556-.255h-.598c-.043 0-.079.015-.108.044s-.044.065-.044.108v1.445c0 .043.015.079.044.108s.065.044.108.044h.598a.693.693 0 00.409-.117.755.755 0 00.253-.316c.059-.133.088-.279.088-.441a1.14 1.14 0 00-.049-.34zm-.322.63a.467.467 0 01-.146.215.39.39 0 01-.258.082h-.412v-1.176h.412c.079 0 .146.017.203.048s.104.074.14.129a.572.572 0 01.081.188c.018.07.026.146.026.224a.9.9 0 01-.046.29z"/></g><path d="M94.487 54.985c.015-.003.03-.006.046-.011.018-.004.033-.01.049-.016l.025-.008c.006-.002.01-.006.014-.008.016-.006.031-.015.047-.023a.347.347 0 00.037-.021l.04-.028.034-.026c.013-.011.024-.023.037-.036l.027-.029.033-.041c.008-.012.016-.021.023-.033.009-.015.018-.029.025-.045.006-.014.013-.025.019-.037l.009-.017.01-.032a.733.733 0 00.025-.091c.003-.014.006-.026.007-.041a.327.327 0 00.004-.054.21.21 0 00.002-.025V50.15a.636.636 0 10-1.272-.001v2.677l-4.168-4.168a.639.639 0 00-.9 0 .63.63 0 00-.186.451c0 .162.061.326.186.449l4.168 4.168H90.15a.636.636 0 00-.449 1.086.637.637 0 00.449.188h4.215l.025-.003c.018-.001.035-.001.053-.004a.573.573 0 00.044-.008zM5.513 4.015c-.015.003-.03.006-.046.011-.018.004-.033.01-.049.016a.15.15 0 00-.025.007c-.006.002-.01.006-.014.008a.34.34 0 00-.047.023.347.347 0 00-.037.021l-.04.028a.622.622 0 01-.034.026c-.013.011-.025.024-.037.036a.668.668 0 00-.027.029l-.034.042c-.008.011-.016.021-.023.033-.009.015-.018.029-.026.045l-.018.037-.009.017-.01.032a.283.283 0 00-.014.041l-.01.05c-.003.013-.006.026-.007.041a.315.315 0 00-.004.053L5 4.637v4.212a.636.636 0 101.272.001V6.173l4.168 4.168a.639.639 0 00.9 0 .63.63 0 00.186-.451.628.628 0 00-.186-.449L7.172 5.273H9.85A.636.636 0 109.85 4H5.635c-.008 0-.017.003-.026.003-.017.001-.035.001-.052.004a.573.573 0 00-.044.008zM94.985 5.513c-.003-.015-.006-.03-.011-.046-.004-.018-.01-.033-.016-.049l-.008-.025c-.002-.006-.006-.01-.008-.014-.006-.016-.015-.031-.023-.047a.347.347 0 00-.021-.037l-.028-.04-.026-.034c-.011-.013-.023-.024-.036-.037a.668.668 0 00-.029-.027l-.041-.033c-.012-.008-.021-.016-.033-.023-.015-.009-.029-.018-.045-.025-.014-.006-.025-.013-.037-.019l-.017-.009-.032-.01a.733.733 0 00-.091-.025c-.014-.003-.026-.006-.041-.007a.327.327 0 00-.054-.004.21.21 0 00-.025-.002H90.15a.635.635 0 100 1.271h2.676l-4.168 4.168a.639.639 0 000 .9.632.632 0 00.451.186.628.628 0 00.449-.186l4.168-4.168v2.678a.636.636 0 001.086.449.635.635 0 00.188-.449V5.635l-.003-.025c-.001-.018-.001-.035-.004-.053a.573.573 0 00-.008-.044zM5.015 54.487c.003.015.006.03.011.046.004.018.01.033.016.049l.008.025c.002.006.006.01.008.014.006.016.015.031.023.047a.347.347 0 00.021.037l.028.04.026.034c.011.013.023.024.036.037l.029.027.041.033c.012.008.021.016.033.023.015.009.029.018.045.025.014.006.025.013.037.019a.263.263 0 01.017.009l.032.01a.733.733 0 00.091.025c.014.003.026.006.041.007a.327.327 0 00.054.004.21.21 0 00.025.002H9.85a.637.637 0 100-1.272H7.174l4.168-4.168a.64.64 0 000-.9.628.628 0 00-.451-.186.628.628 0 00-.449.186l-4.168 4.168V50.15a.636.636 0 00-1.086-.449.637.637 0 00-.188.449v4.215l.003.025c.001.018.001.035.004.053l.008.044z"/></svg>