<svg xmlns="http://www.w3.org/2000/svg" width="100" height="60"><path d="M8.642 11.003c.128 0 .241.047.34.14a.457.457 0 01.148.348v4.624a.455.455 0 01-.152.348.503.503 0 01-.352.14.476.476 0 01-.36-.14.477.477 0 01-.136-.347v-4.624c0-.139.048-.255.144-.348a.503.503 0 01.368-.141zm-.024 2.329h3.568v.92H8.618v-.92zm3.568-2.329a.48.48 0 01.36.14c.09.093.136.209.136.348v4.624a.47.47 0 01-.14.348.502.502 0 01-.372.14.477.477 0 01-.34-.14.457.457 0 01-.148-.348v-4.624c0-.139.051-.255.152-.348a.504.504 0 01.352-.14zM15.778 16.684c-.454 0-.847-.095-1.18-.284a1.96 1.96 0 01-.768-.772 2.25 2.25 0 01-.268-1.104c0-.48.098-.889.292-1.228.195-.338.45-.599.764-.78s.648-.272 1-.272c.272 0 .529.056.772.168.243.112.458.265.644.46s.334.42.444.676c.109.256.164.528.164.816a.41.41 0 01-.152.312.509.509 0 01-.336.12h-3.056l-.24-.8h2.936l-.176.16v-.216a.73.73 0 00-.164-.416 1.067 1.067 0 00-.836-.4c-.16 0-.309.021-.448.064a.86.86 0 00-.36.216 1.066 1.066 0 00-.24.408 2.016 2.016 0 00-.088.648c0 .288.06.532.18.732a1.229 1.229 0 001.068.612c.197 0 .354-.016.472-.048.117-.032.212-.07.284-.116.072-.045.137-.084.196-.116a.611.611 0 01.272-.072.39.39 0 01.292.12c.077.08.116.174.116.28 0 .144-.075.275-.224.392-.139.117-.333.22-.584.308a2.33 2.33 0 01-.776.132zM21.938 12.244a.465.465 0 01.48.488v3.384a.479.479 0 01-.136.348c-.091.094-.206.14-.344.14s-.253-.046-.344-.14a.477.477 0 01-.136-.348v-.392l.176.072c0 .069-.038.153-.112.252a1.524 1.524 0 01-.304.292c-.128.096-.279.178-.452.244s-.361.1-.564.1a1.83 1.83 0 01-1-.284 1.993 1.993 0 01-.708-.784 2.456 2.456 0 01-.26-1.148c0-.437.087-.822.26-1.156s.407-.595.7-.784c.293-.189.618-.284.976-.284a1.858 1.858 0 011.132.368c.141.107.25.215.328.324.078.109.116.201.116.276l-.288.104v-.584c0-.139.045-.254.136-.348a.455.455 0 01.344-.14zm-1.616 3.56c.234 0 .44-.059.616-.176.176-.117.313-.277.412-.48s.148-.429.148-.68c0-.256-.049-.485-.148-.688a1.193 1.193 0 00-.412-.48 1.086 1.086 0 00-.616-.176c-.229 0-.432.059-.608.176a1.193 1.193 0 00-.412.48 1.548 1.548 0 00-.148.688c0 .251.049.478.148.68.099.203.236.363.412.48.176.117.378.176.608.176zM26.921 10.684a.465.465 0 01.48.488v4.944a.479.479 0 01-.136.348c-.091.094-.206.14-.344.14s-.253-.046-.344-.14a.477.477 0 01-.136-.348v-.392l.176.072c0 .069-.038.153-.112.252a1.524 1.524 0 01-.304.292c-.128.096-.279.178-.452.244s-.361.1-.564.1a1.83 1.83 0 01-1-.284 1.993 1.993 0 01-.708-.784 2.456 2.456 0 01-.26-1.148c0-.437.087-.822.26-1.156s.407-.595.7-.784c.293-.189.618-.284.976-.284a1.858 1.858 0 011.132.368c.141.107.25.215.328.324.078.109.116.201.116.276l-.288.104v-2.144c0-.139.045-.254.136-.348a.458.458 0 01.344-.14zm-1.615 5.12c.234 0 .44-.059.616-.176.176-.117.313-.277.412-.48s.148-.429.148-.68c0-.256-.049-.485-.148-.688a1.193 1.193 0 00-.412-.48 1.086 1.086 0 00-.616-.176c-.229 0-.432.059-.608.176a1.193 1.193 0 00-.412.48 1.548 1.548 0 00-.148.688c0 .251.049.478.148.68.099.203.236.363.412.48.176.117.378.176.608.176zM28.857 11.804c-.182 0-.31-.029-.384-.088-.075-.059-.112-.163-.112-.312v-.152c0-.155.042-.26.124-.316s.209-.084.38-.084c.187 0 .317.029.392.088s.112.163.112.312v.152c0 .155-.04.26-.12.316-.08.055-.21.084-.392.084zm.488 4.312a.479.479 0 01-.136.348c-.091.094-.206.14-.344.14s-.253-.046-.344-.14a.477.477 0 01-.136-.348v-3.304c0-.139.045-.254.136-.348.09-.093.205-.14.344-.14s.253.046.344.14c.09.094.136.209.136.348v3.304zM32.618 12.244c.395 0 .694.083.9.248.205.165.347.385.424.66.078.275.116.58.116.916v2.048a.479.479 0 01-.136.348c-.09.094-.205.14-.344.14s-.253-.046-.344-.14a.477.477 0 01-.136-.348v-2.048c0-.176-.023-.334-.068-.476a.662.662 0 00-.244-.34c-.118-.085-.286-.128-.504-.128a1.06 1.06 0 00-.54.128.87.87 0 00-.336.34.97.97 0 00-.116.476v2.048a.479.479 0 01-.136.348c-.091.094-.206.14-.344.14s-.253-.046-.344-.14a.481.481 0 01-.136-.348v-3.304c0-.139.045-.254.136-.348.091-.093.206-.14.344-.14s.253.046.344.14c.09.094.136.209.136.348v.344l-.12-.024c.048-.09.117-.188.208-.292s.197-.201.32-.292c.123-.09.261-.164.416-.22.154-.057.322-.084.504-.084zM36.833 12.244a1.766 1.766 0 011.42.692c.078.109.116.201.116.276l-.208.104v-.584c0-.139.045-.254.136-.348.09-.093.205-.14.344-.14a.465.465 0 01.48.488v3.56c0 .464-.1.836-.3 1.116-.2.28-.463.482-.788.608a2.897 2.897 0 01-1.048.188c-.107 0-.246-.014-.416-.04a6.391 6.391 0 01-.488-.096 2.67 2.67 0 01-.352-.104c-.16-.069-.271-.156-.332-.26a.395.395 0 01-.036-.332c.048-.155.125-.26.232-.316a.398.398 0 01.336-.02c.053.016.141.048.264.096.123.048.257.092.404.132.146.04.276.06.388.06.4 0 .696-.08.888-.24s.288-.381.288-.664v-.696l.096.072c0 .069-.036.153-.108.252a1.44 1.44 0 01-.296.292 1.773 1.773 0 01-.444.244c-.171.066-.352.1-.544.1a1.9 1.9 0 01-1.024-.284 2.006 2.006 0 01-.72-.784 2.421 2.421 0 01-.264-1.148c0-.437.088-.822.264-1.156.176-.333.413-.595.712-.784.299-.19.632-.284 1-.284zm.152.88a1.14 1.14 0 00-1.056.656 1.51 1.51 0 00-.152.688c0 .251.05.478.152.68.101.203.243.363.424.48.181.118.392.176.632.176.245 0 .458-.059.64-.176.182-.117.323-.277.424-.48.101-.203.152-.429.152-.68 0-.256-.051-.485-.152-.688a1.205 1.205 0 00-.424-.48 1.146 1.146 0 00-.64-.176zM42.609 11.923a.492.492 0 01-.348-.128c-.093-.085-.14-.197-.14-.336s.046-.249.14-.332a.503.503 0 01.348-.124h3.552c.139 0 .255.043.348.128.093.085.14.198.14.336 0 .139-.047.25-.14.332a.503.503 0 01-.348.124h-3.552zm1.768 4.681a.504.504 0 01-.368-.14.465.465 0 01-.144-.348v-4.64h1.04v4.64a.459.459 0 01-.148.348.53.53 0 01-.38.14zM48.433 16.684c-.454 0-.847-.095-1.18-.284a1.96 1.96 0 01-.768-.772 2.25 2.25 0 01-.268-1.104c0-.48.098-.889.292-1.228.195-.338.45-.599.764-.78s.648-.272 1-.272c.272 0 .529.056.772.168.243.112.458.265.644.46s.334.42.444.676c.109.256.164.528.164.816a.413.413 0 01-.152.312.508.508 0 01-.335.12h-3.056l-.24-.8h2.936l-.176.16v-.216a.73.73 0 00-.164-.416 1.067 1.067 0 00-.836-.4c-.16 0-.309.021-.448.064a.86.86 0 00-.36.216 1.066 1.066 0 00-.24.408 2.016 2.016 0 00-.088.648c0 .288.06.532.18.732a1.229 1.229 0 001.068.612c.197 0 .354-.016.472-.048.117-.032.212-.07.284-.116.072-.045.137-.084.196-.116a.611.611 0 01.272-.072.39.39 0 01.292.12c.077.08.117.174.117.28 0 .144-.075.275-.225.392-.139.117-.333.22-.584.308-.252.088-.51.132-.777.132zM51.186 12.324c.154 0 .285.066.392.2l2.672 3.32a.46.46 0 01-.048.632.479.479 0 01-.336.144.483.483 0 01-.393-.208l-2.672-3.32a.45.45 0 01-.104-.288c0-.139.049-.253.148-.344a.486.486 0 01.341-.136zm.007 4.287a.501.501 0 01-.316-.124.373.373 0 01-.156-.3c0-.106.041-.208.121-.304l1.223-1.496.48.8-.968 1.224a.461.461 0 01-.384.2zm2.664-4.287c.128 0 .236.044.324.132s.131.188.131.3c0 .054-.008.107-.023.16s-.045.104-.088.152l-1.208 1.472-.504-.696.983-1.304c.108-.144.236-.216.385-.216zM55.441 12.403h1.896a.435.435 0 01.448.448.413.413 0 01-.128.308.44.44 0 01-.32.124h-1.896a.433.433 0 01-.32-.128.431.431 0 01-.128-.32c0-.123.042-.225.128-.308a.444.444 0 01.32-.124zm.856-1c.139 0 .252.047.34.14s.133.209.133.348v3.56a.35.35 0 00.043.184.25.25 0 00.121.104.43.43 0 00.34-.004.441.441 0 01.184-.036c.074 0 .143.035.204.104s.092.165.092.288c0 .149-.081.272-.243.368a1.02 1.02 0 01-.525.144 2.7 2.7 0 01-.371-.028 1.015 1.015 0 01-.385-.136.84.84 0 01-.299-.332c-.08-.149-.121-.354-.121-.616v-3.6c0-.139.047-.255.141-.348s.207-.14.346-.14z"/><g><path d="M9.152 23.48c.043 0 .08.014.109.041a.141.141 0 01.044.106.138.138 0 01-.044.104.154.154 0 01-.109.041H8.34a.145.145 0 01-.108-.044.142.142 0 01-.044-.108v-1.445c0-.043.015-.08.045-.108a.158.158 0 01.115-.044.15.15 0 01.106.044c.03.028.046.065.046.108v1.348l-.055-.043h.707zM10.852 23.105a.7.7 0 01-.091.361.66.66 0 01-.589.331.687.687 0 01-.344-.087c-.103-.058-.184-.14-.245-.244s-.091-.225-.091-.361.03-.257.091-.361a.67.67 0 01.589-.333.67.67 0 01.68.694zm-.3 0c0-.085-.017-.159-.051-.221s-.08-.111-.137-.146a.363.363 0 00-.191-.052.367.367 0 00-.328.198.457.457 0 00-.051.221c0 .083.017.156.051.219.034.063.08.111.137.146a.361.361 0 00.191.053c.07 0 .134-.018.191-.053.057-.035.103-.083.137-.146s.051-.136.051-.219zM11.252 23.772a.143.143 0 01-.107-.044.15.15 0 01-.042-.108v-1.033c0-.043.014-.08.042-.109.028-.029.064-.043.107-.043s.079.015.107.043a.15.15 0 01.042.109v.235l-.018-.167a.41.41 0 01.287-.23.534.534 0 01.125-.015c.05 0 .092.014.126.042s.051.062.051.1c0 .055-.014.095-.042.119a.141.141 0 01-.093.036.197.197 0 01-.086-.018.216.216 0 00-.18.003.258.258 0 00-.085.066.35.35 0 00-.063.111.457.457 0 00-.024.156v.593c0 .043-.014.08-.042.108-.025.032-.061.046-.105.046zM12.805 23.797a.728.728 0 01-.369-.089.611.611 0 01-.24-.241.702.702 0 01-.084-.345c0-.15.03-.278.091-.384s.141-.187.239-.244a.614.614 0 01.554-.033.704.704 0 01.34.355c.035.08.051.165.051.255a.127.127 0 01-.047.098.16.16 0 01-.105.038h-.955l-.075-.25h.917l-.055.05v-.067a.231.231 0 00-.051-.13.336.336 0 00-.261-.125.451.451 0 00-.14.02c-.043.013-.081.036-.112.067s-.057.074-.075.127a.643.643 0 00-.027.203c0 .09.019.166.056.229a.382.382 0 00.334.192.571.571 0 00.147-.015.342.342 0 00.089-.036.87.87 0 01.061-.036.189.189 0 01.085-.022c.037 0 .067.012.091.038a.122.122 0 01.036.087c0 .045-.023.086-.07.123a.575.575 0 01-.183.096.762.762 0 01-.242.039zM14.34 22.41c.133 0 .231.032.295.096a.476.476 0 01.125.249l-.042-.022.02-.04a.596.596 0 01.243-.237.42.42 0 01.199-.046c.12 0 .211.026.273.077.063.052.105.121.129.207s.035.181.035.286v.64a.148.148 0 01-.149.152.145.145 0 01-.108-.044.15.15 0 01-.042-.108v-.64a.498.498 0 00-.02-.149.199.199 0 00-.072-.106.241.241 0 00-.15-.04.313.313 0 00-.163.04.251.251 0 00-.101.106.33.33 0 00-.034.149v.64a.149.149 0 01-.15.152.143.143 0 01-.107-.044.15.15 0 01-.042-.108v-.64a.532.532 0 00-.02-.149.204.204 0 00-.072-.106.241.241 0 00-.15-.04.309.309 0 00-.162.04.26.26 0 00-.102.106.33.33 0 00-.034.149v.64a.148.148 0 01-.149.152.143.143 0 01-.107-.044.15.15 0 01-.042-.108v-1.033c0-.043.014-.08.042-.109.028-.029.064-.043.107-.043s.079.015.107.043a.15.15 0 01.042.109v.107l-.039-.006a.537.537 0 01.161-.182.576.576 0 01.127-.069.415.415 0 01.152-.027zM16.773 22.272c-.057 0-.097-.009-.12-.027-.023-.019-.035-.051-.035-.098V22.1c0-.048.013-.082.039-.099a.219.219 0 01.119-.026c.059 0 .099.009.123.027.023.019.035.051.035.098v.047c0 .048-.013.081-.038.099s-.066.026-.123.026zm.152 1.348a.148.148 0 01-.149.152.143.143 0 01-.107-.044.15.15 0 01-.042-.108v-1.033c0-.043.014-.08.042-.109.028-.029.064-.043.107-.043s.079.015.107.043a.15.15 0 01.042.109v1.033zM17.925 22.41c.117 0 .221.029.314.088.092.06.166.141.22.244.054.103.082.223.082.36s-.027.257-.082.361a.631.631 0 01-.217.245.543.543 0 01-.306.089.554.554 0 01-.342-.115.474.474 0 01-.103-.102c-.024-.034-.037-.063-.037-.086l.078-.033v.658a.148.148 0 01-.149.152c-.043 0-.079-.014-.107-.042s-.042-.065-.042-.11v-1.533c0-.043.014-.08.042-.109.028-.029.064-.043.107-.043s.079.015.107.043a.15.15 0 01.042.109v.123l-.042-.022c0-.021.012-.048.035-.079s.055-.062.095-.093.086-.056.139-.076a.487.487 0 01.166-.029zm-.037.275a.335.335 0 00-.192.055c-.055.037-.098.086-.129.149s-.046.134-.046.214a.49.49 0 00.046.214c.031.064.074.114.129.151s.119.055.192.055a.338.338 0 00.318-.206.486.486 0 00.046-.214c0-.08-.016-.151-.046-.214s-.073-.112-.127-.149a.33.33 0 00-.191-.055zM18.713 23.565c-.017-.023-.024-.053-.022-.09s.023-.068.065-.095a.137.137 0 01.085-.021c.03.002.059.018.087.046a.593.593 0 00.153.113.453.453 0 00.283.029.17.17 0 00.079-.04c.022-.021.034-.053.034-.096a.111.111 0 00-.038-.088.33.33 0 00-.099-.055 1.477 1.477 0 00-.136-.042 4.094 4.094 0 01-.159-.05.633.633 0 01-.148-.071.34.34 0 01-.11-.116.348.348 0 01-.042-.182.33.33 0 01.07-.213c.046-.058.107-.103.181-.135s.152-.047.234-.047a.73.73 0 01.325.079.381.381 0 01.13.109c.018.025.029.055.032.09s-.012.066-.047.095a.118.118 0 01-.087.026.13.13 0 01-.083-.034c-.028-.037-.066-.066-.114-.087a.403.403 0 00-.245-.024.161.161 0 00-.076.038c-.022.019-.033.05-.033.091 0 .039.013.069.038.091s.059.041.101.055c.043.015.088.028.137.042.05.013.101.029.152.047a.602.602 0 01.143.073c.043.03.078.069.105.116.026.047.04.108.04.181a.325.325 0 01-.075.217.47.47 0 01-.188.136.598.598 0 01-.23.046.898.898 0 01-.295-.051.516.516 0 01-.247-.183zM20.988 22.435c.043 0 .08.015.108.043a.15.15 0 01.042.109v.635a.588.588 0 01-.147.42c-.099.103-.24.155-.425.155s-.326-.052-.424-.155a.591.591 0 01-.146-.42v-.635c0-.043.014-.08.042-.109.028-.029.064-.043.107-.043s.079.015.107.043a.15.15 0 01.042.109v.635c0 .102.022.177.067.226.045.049.113.074.203.074.092 0 .16-.024.205-.074s.067-.125.067-.226v-.635c0-.043.014-.08.042-.109a.158.158 0 01.11-.043zM22.166 22.41c.133 0 .231.032.295.096a.476.476 0 01.125.249l-.042-.022.02-.04a.596.596 0 01.243-.237.42.42 0 01.199-.046c.12 0 .211.026.273.077.063.052.105.121.129.207s.035.181.035.286v.64a.148.148 0 01-.149.152.145.145 0 01-.108-.044.15.15 0 01-.042-.108v-.64a.498.498 0 00-.02-.149.199.199 0 00-.072-.106.241.241 0 00-.15-.04.313.313 0 00-.163.04.251.251 0 00-.101.106.33.33 0 00-.034.149v.64a.149.149 0 01-.15.152.143.143 0 01-.107-.044.15.15 0 01-.042-.108v-.64a.532.532 0 00-.02-.149.204.204 0 00-.072-.106.241.241 0 00-.15-.04.309.309 0 00-.162.04.26.26 0 00-.102.106.33.33 0 00-.034.149v.64a.148.148 0 01-.149.152.143.143 0 01-.107-.044.15.15 0 01-.042-.108v-1.033c0-.043.014-.08.042-.109.028-.029.064-.043.107-.043s.079.015.107.043a.15.15 0 01.042.109v.107l-.038-.007a.537.537 0 01.161-.182.576.576 0 01.127-.069.423.423 0 01.151-.026zM25.551 21.922c.043 0 .079.014.107.042s.042.065.042.11v1.545a.148.148 0 01-.149.152.143.143 0 01-.107-.044.15.15 0 01-.042-.108v-.123l.055.022c0 .021-.012.048-.035.079-.023.031-.055.062-.095.091s-.087.056-.141.076a.568.568 0 01-.489-.058.625.625 0 01-.221-.245.77.77 0 01-.082-.359.76.76 0 01.082-.361.628.628 0 01.219-.245.596.596 0 01.659.027.495.495 0 01.103.101c.024.034.036.063.036.086l-.09.033v-.67c0-.043.014-.08.042-.109s.062-.042.106-.042zm-.505 1.6a.343.343 0 00.32-.205.475.475 0 00.046-.212.482.482 0 00-.046-.215.383.383 0 00-.128-.15.335.335 0 00-.192-.055.331.331 0 00-.19.055.368.368 0 00-.128.15.482.482 0 00-.046.215c0 .078.016.149.046.212s.074.113.128.15a.331.331 0 00.19.055zM27.311 23.105a.7.7 0 01-.091.361.66.66 0 01-.589.331.687.687 0 01-.344-.087c-.103-.058-.184-.14-.245-.244s-.091-.225-.091-.361.03-.257.091-.361a.67.67 0 01.589-.333.67.67 0 01.68.694zm-.3 0c0-.085-.017-.159-.051-.221s-.08-.111-.137-.146a.363.363 0 00-.191-.052.367.367 0 00-.328.198.457.457 0 00-.051.221c0 .083.017.156.051.219.034.063.08.111.137.146a.361.361 0 00.191.053c.07 0 .134-.018.191-.053.057-.035.103-.083.137-.146s.051-.136.051-.219zM27.886 23.62a.149.149 0 01-.152.152.14.14 0 01-.105-.044.15.15 0 01-.042-.108v-1.545a.15.15 0 01.152-.153c.043 0 .079.015.106.044s.041.065.041.109v1.545zM29.521 23.105a.7.7 0 01-.091.361.66.66 0 01-.589.331.687.687 0 01-.344-.087c-.103-.058-.184-.14-.245-.244s-.091-.225-.091-.361.03-.257.091-.361a.67.67 0 01.589-.333.67.67 0 01.68.694zm-.3 0c0-.085-.017-.159-.051-.221s-.08-.111-.137-.146a.363.363 0 00-.191-.052.367.367 0 00-.328.198.457.457 0 00-.051.221c0 .083.017.156.051.219.034.063.08.111.137.146a.361.361 0 00.191.053c.07 0 .134-.018.191-.053.057-.035.103-.083.137-.146s.051-.136.051-.219zM29.921 23.772a.143.143 0 01-.107-.044.15.15 0 01-.042-.108v-1.033c0-.043.014-.08.042-.109.028-.029.064-.043.107-.043s.079.015.107.044a.15.15 0 01.042.109v.235l-.018-.167a.41.41 0 01.287-.23.534.534 0 01.125-.015c.05 0 .092.014.126.042s.051.062.051.1c0 .055-.014.095-.042.119a.141.141 0 01-.093.036.197.197 0 01-.086-.018.216.216 0 00-.18.003.258.258 0 00-.085.066.35.35 0 00-.063.111.457.457 0 00-.024.156v.593c0 .043-.014.08-.042.108a.13.13 0 01-.105.045zM31.479 23.565c-.017-.023-.024-.053-.022-.09s.023-.068.065-.095a.137.137 0 01.085-.021c.03.002.059.018.087.046a.593.593 0 00.153.113.453.453 0 00.283.029.17.17 0 00.079-.04c.022-.021.034-.053.034-.096a.111.111 0 00-.038-.088.33.33 0 00-.099-.055 1.477 1.477 0 00-.136-.042 4.094 4.094 0 01-.159-.05.633.633 0 01-.148-.071.34.34 0 01-.11-.116.348.348 0 01-.042-.182.33.33 0 01.07-.213c.046-.058.107-.103.181-.135s.152-.047.234-.047a.73.73 0 01.325.079.381.381 0 01.13.109c.018.025.029.055.032.09s-.012.066-.047.095a.118.118 0 01-.087.026.13.13 0 01-.083-.034c-.028-.037-.066-.066-.114-.087a.403.403 0 00-.245-.024.161.161 0 00-.076.038c-.022.019-.033.05-.033.091 0 .039.013.069.038.091s.059.041.101.055c.043.015.088.028.137.042.05.013.101.029.152.047a.602.602 0 01.143.073c.043.03.078.069.105.116.026.047.04.108.04.181a.325.325 0 01-.075.217.47.47 0 01-.188.136.598.598 0 01-.23.046.898.898 0 01-.295-.051.512.512 0 01-.247-.183zM32.891 22.272c-.057 0-.097-.009-.12-.027-.023-.019-.035-.051-.035-.098V22.1c0-.048.013-.082.039-.099a.219.219 0 01.119-.026c.059 0 .099.009.123.027.023.019.035.051.035.098v.047c0 .048-.013.081-.038.099s-.066.026-.123.026zm.152 1.348a.148.148 0 01-.149.152.143.143 0 01-.107-.044.15.15 0 01-.042-.108v-1.033c0-.043.014-.08.042-.109.028-.029.064-.043.107-.043s.079.015.107.043a.15.15 0 01.042.109v1.033zM33.366 22.46h.592c.04 0 .073.013.1.04.026.027.04.06.04.1 0 .038-.014.07-.04.096a.138.138 0 01-.1.039h-.592a.133.133 0 01-.1-.04.133.133 0 01-.04-.1c0-.038.013-.07.04-.096a.136.136 0 01.1-.039zm.267-.313a.14.14 0 01.106.044.153.153 0 01.041.108v1.113a.11.11 0 00.014.057.08.08 0 00.037.033c.016.007.033.01.051.01.02 0 .039-.004.055-.012a.15.15 0 01.058-.011c.023 0 .044.011.063.033.02.021.029.052.029.09 0 .047-.025.085-.076.115a.316.316 0 01-.164.045c-.035 0-.074-.003-.116-.009s-.083-.02-.12-.042-.069-.057-.094-.104a.413.413 0 01-.038-.193V22.3a.152.152 0 01.154-.153zM36.156 22.41c.043 0 .079.014.107.042s.042.065.042.11v1.058a.148.148 0 01-.149.152.143.143 0 01-.107-.044.15.15 0 01-.042-.108v-.123l.055.022c0 .021-.012.048-.035.079-.023.031-.055.062-.095.091s-.087.056-.141.076a.568.568 0 01-.489-.058.625.625 0 01-.221-.245.77.77 0 01-.082-.359.76.76 0 01.082-.361.628.628 0 01.219-.245.596.596 0 01.659.027.495.495 0 01.103.101c.024.034.036.063.036.086l-.09.033v-.183c0-.043.014-.08.042-.109a.145.145 0 01.106-.042zm-.505 1.112a.343.343 0 00.32-.205.475.475 0 00.046-.212.482.482 0 00-.046-.215.383.383 0 00-.128-.15.335.335 0 00-.192-.055.331.331 0 00-.19.055.368.368 0 00-.128.15.482.482 0 00-.046.215c0 .078.016.149.046.212s.074.113.128.15a.334.334 0 00.19.055zM37.334 22.41c.133 0 .231.032.295.096a.476.476 0 01.125.249l-.042-.022.02-.04a.596.596 0 01.243-.237.42.42 0 01.199-.046c.12 0 .211.026.273.077.063.052.105.121.129.207s.035.181.035.286v.64a.148.148 0 01-.149.152.145.145 0 01-.108-.044.15.15 0 01-.042-.108v-.64a.498.498 0 00-.02-.149.199.199 0 00-.072-.106.241.241 0 00-.15-.04.313.313 0 00-.163.04.251.251 0 00-.101.106.33.33 0 00-.034.149v.64a.149.149 0 01-.15.152.143.143 0 01-.107-.044.15.15 0 01-.042-.108v-.64a.532.532 0 00-.02-.149.204.204 0 00-.072-.106.241.241 0 00-.15-.04.309.309 0 00-.162.04.26.26 0 00-.102.106.33.33 0 00-.034.149v.64a.148.148 0 01-.149.152.143.143 0 01-.107-.044.15.15 0 01-.042-.108v-1.033c0-.043.014-.08.042-.109.028-.029.064-.043.107-.043s.079.015.107.043a.15.15 0 01.042.109v.107l-.038-.007a.537.537 0 01.161-.182.576.576 0 01.127-.069.427.427 0 01.151-.026zM39.554 23.797a.728.728 0 01-.369-.089.611.611 0 01-.24-.241.702.702 0 01-.084-.345c0-.15.03-.278.091-.384s.141-.187.239-.244a.614.614 0 01.554-.033.704.704 0 01.34.355c.035.08.051.165.051.255a.127.127 0 01-.047.098.16.16 0 01-.105.038h-.955l-.075-.25h.917l-.055.05v-.067a.231.231 0 00-.051-.13.336.336 0 00-.261-.125.451.451 0 00-.14.02c-.043.013-.081.036-.112.067s-.057.074-.075.127a.643.643 0 00-.027.203c0 .09.019.166.056.229a.382.382 0 00.334.192.571.571 0 00.147-.015.342.342 0 00.089-.036.87.87 0 01.061-.036.189.189 0 01.085-.022c.037 0 .067.012.091.038a.122.122 0 01.036.087c0 .045-.023.086-.07.123a.575.575 0 01-.183.096.762.762 0 01-.242.039zM40.402 22.46h.592c.04 0 .073.013.1.04.026.027.04.06.04.1 0 .038-.014.07-.04.096a.138.138 0 01-.1.039h-.592a.133.133 0 01-.1-.04.133.133 0 01-.04-.1c0-.038.013-.07.04-.096a.136.136 0 01.1-.039zm.267-.313a.14.14 0 01.106.044.153.153 0 01.041.108v1.113a.11.11 0 00.014.057.08.08 0 00.037.033c.016.007.033.01.051.01.02 0 .039-.004.055-.012a.15.15 0 01.058-.011c.023 0 .044.011.063.033.02.021.029.052.029.09 0 .047-.025.085-.076.115a.316.316 0 01-.164.045c-.035 0-.074-.003-.116-.009s-.083-.02-.12-.042-.069-.057-.094-.104a.413.413 0 01-.038-.193V22.3c0-.043.015-.08.044-.108a.15.15 0 01.11-.045zM41.789 23.752a.284.284 0 01-.024.101.578.578 0 01-.065.122.429.429 0 01-.094.1.184.184 0 01-.11.04.154.154 0 01-.085-.022c-.023-.015-.035-.041-.035-.077 0-.039.012-.062.036-.07l.062-.022a.164.164 0 00.051-.041.097.097 0 00.019-.059c0-.018-.009-.034-.026-.048a.11.11 0 00-.069-.021c-.01 0-.022.001-.035.004s-.025.007-.035.014a.153.153 0 01-.043-.031c-.013-.013-.019-.033-.019-.062 0-.037.013-.069.038-.097s.056-.051.094-.067a.259.259 0 01.106-.025c.071 0 .128.022.171.068.042.041.063.107.063.193zM43.414 23.797a.728.728 0 01-.369-.089.611.611 0 01-.24-.241.702.702 0 01-.084-.345c0-.15.03-.278.091-.384s.141-.187.239-.244a.614.614 0 01.554-.033.704.704 0 01.34.355c.035.08.051.165.051.255a.127.127 0 01-.047.098.16.16 0 01-.105.038h-.955l-.075-.25h.917l-.055.05v-.067a.231.231 0 00-.051-.13.336.336 0 00-.261-.125.451.451 0 00-.14.02c-.043.013-.081.036-.112.067s-.057.074-.075.127a.643.643 0 00-.027.203c0 .09.019.166.056.229a.382.382 0 00.334.192.571.571 0 00.147-.015.342.342 0 00.089-.036.87.87 0 01.061-.036.189.189 0 01.085-.022c.037 0 .067.012.091.038a.122.122 0 01.036.087c0 .045-.023.086-.07.123a.575.575 0 01-.183.096.753.753 0 01-.242.039zM44.962 22.41c.124 0 .217.026.281.077a.396.396 0 01.132.207c.024.086.037.181.037.286v.64a.148.148 0 01-.149.152.145.145 0 01-.108-.044.15.15 0 01-.042-.108v-.64a.497.497 0 00-.021-.149.205.205 0 00-.076-.106.263.263 0 00-.158-.04.33.33 0 00-.169.04.274.274 0 00-.105.106.307.307 0 00-.036.149v.64a.148.148 0 01-.149.152.143.143 0 01-.107-.044.15.15 0 01-.042-.108v-1.033c0-.043.014-.08.042-.109.028-.029.064-.043.107-.043s.079.015.107.043a.15.15 0 01.042.109v.107l-.038-.007a.586.586 0 01.295-.251.466.466 0 01.157-.026zM45.867 22.272c-.057 0-.097-.009-.12-.027-.023-.019-.035-.051-.035-.098V22.1c0-.048.013-.082.039-.099a.219.219 0 01.119-.026c.059 0 .099.009.123.027.023.019.035.051.035.098v.047c0 .048-.013.081-.038.099s-.067.026-.123.026zm.152 1.348a.148.148 0 01-.149.152.143.143 0 01-.107-.044.15.15 0 01-.042-.108v-1.033c0-.043.014-.08.042-.109.028-.029.064-.043.107-.043s.079.015.107.043a.15.15 0 01.042.109v1.033zM47.029 22.41c.133 0 .231.032.295.096a.476.476 0 01.125.249l-.042-.022.02-.04a.596.596 0 01.243-.237.42.42 0 01.199-.046c.12 0 .211.026.273.077.063.052.105.121.129.207s.035.181.035.286v.64a.149.149 0 01-.15.152.143.143 0 01-.107-.044.15.15 0 01-.042-.108v-.64a.498.498 0 00-.02-.149.199.199 0 00-.072-.106.241.241 0 00-.15-.04.313.313 0 00-.163.04.251.251 0 00-.101.106.33.33 0 00-.034.149v.64a.149.149 0 01-.15.152.143.143 0 01-.107-.044.15.15 0 01-.042-.108v-.64a.532.532 0 00-.02-.149.204.204 0 00-.072-.106.241.241 0 00-.15-.04.309.309 0 00-.162.04.26.26 0 00-.102.106.33.33 0 00-.034.149v.64a.148.148 0 01-.149.152.143.143 0 01-.107-.044.15.15 0 01-.042-.108v-1.033c0-.043.014-.08.042-.109.028-.029.064-.043.107-.043s.079.015.107.043a.15.15 0 01.042.109v.107l-.038-.007a.537.537 0 01.161-.182.576.576 0 01.127-.069.427.427 0 01.151-.026zM50.414 22.41c.043 0 .079.014.107.042s.042.065.042.11v1.058a.148.148 0 01-.149.152.142.142 0 01-.107-.044.15.15 0 01-.043-.108v-.123l.056.022c0 .021-.012.048-.035.079s-.056.062-.096.091a.54.54 0 01-.318.107.57.57 0 01-.313-.089.625.625 0 01-.221-.245.757.757 0 01-.081-.359.76.76 0 01.081-.361.628.628 0 01.219-.245.59.59 0 01.658.027.45.45 0 01.103.101c.024.034.036.063.036.086l-.09.033v-.183c0-.043.015-.08.043-.109a.152.152 0 01.108-.042zm-.505 1.112c.073 0 .138-.019.192-.055s.098-.086.129-.15a.488.488 0 00.046-.212.495.495 0 00-.046-.215.378.378 0 00-.129-.15.335.335 0 00-.192-.055.331.331 0 00-.19.055.378.378 0 00-.129.15.495.495 0 00-.046.215c0 .078.016.149.046.212a.378.378 0 00.129.15.331.331 0 00.19.055zM51.472 22.41c.095 0 .178.01.249.03.07.02.125.048.165.084a.17.17 0 01.059.128.17.17 0 01-.03.094.1.1 0 01-.088.044.169.169 0 01-.065-.011.186.186 0 01-.047-.029.228.228 0 00-.124-.056c-.034-.005-.06-.009-.076-.009a.371.371 0 00-.353.204.483.483 0 00-.047.216c0 .08.016.151.049.214a.365.365 0 00.333.203.674.674 0 00.108-.007.297.297 0 00.074-.022.688.688 0 00.063-.042.13.13 0 01.083-.023c.043 0 .076.014.1.042s.035.061.035.101c0 .042-.023.08-.07.114a.553.553 0 01-.184.083.91.91 0 01-.246.031.63.63 0 01-.343-.091c-.097-.061-.171-.144-.224-.249s-.078-.223-.078-.353c0-.137.027-.257.083-.361a.636.636 0 01.574-.335zM9.245 25.435c.043 0 .079.014.107.042s.042.065.042.11v1.533a.148.148 0 01-.149.152.143.143 0 01-.107-.044.145.145 0 01-.043-.108v-.623l.055.023c0 .021-.012.048-.035.079a.556.556 0 01-.412.198.568.568 0 01-.313-.089.625.625 0 01-.221-.245.77.77 0 01-.082-.359.76.76 0 01.082-.361.628.628 0 01.219-.245.596.596 0 01.659.027.495.495 0 01.103.101c.024.034.036.063.036.086l-.09.033v-.158c0-.043.014-.08.042-.109a.146.146 0 01.107-.043zm-.505 1.087a.343.343 0 00.32-.205.475.475 0 00.046-.212.482.482 0 00-.046-.215.383.383 0 00-.128-.15.335.335 0 00-.192-.055.331.331 0 00-.19.055.368.368 0 00-.128.15.482.482 0 00-.046.215c0 .078.016.149.046.212s.074.113.128.15a.331.331 0 00.19.055zM10.712 25.435c.043 0 .08.015.108.043a.15.15 0 01.042.109v.635a.588.588 0 01-.147.42c-.099.103-.24.155-.425.155s-.326-.052-.424-.155a.591.591 0 01-.146-.42v-.635c0-.043.014-.08.042-.109.028-.029.064-.043.107-.043s.079.015.107.043a.15.15 0 01.042.109v.635c0 .102.022.177.067.226.045.049.113.074.203.074.092 0 .16-.024.205-.074s.067-.125.067-.226v-.635c0-.043.014-.08.042-.109a.158.158 0 01.11-.043zM11.317 25.272c-.057 0-.097-.009-.12-.027-.023-.019-.035-.051-.035-.098V25.1c0-.048.013-.082.039-.099a.219.219 0 01.119-.026c.059 0 .099.009.123.027.023.019.035.051.035.098v.047c0 .048-.013.081-.038.099s-.066.026-.123.026zm.153 1.348a.148.148 0 01-.149.152.143.143 0 01-.107-.044.15.15 0 01-.042-.108v-1.033c0-.043.014-.08.042-.109.028-.029.064-.043.107-.043s.079.015.107.043a.15.15 0 01.042.109v1.033zM11.7 26.565c-.017-.023-.024-.053-.022-.09s.023-.068.065-.095a.137.137 0 01.085-.021c.03.002.059.018.087.046a.593.593 0 00.153.113.453.453 0 00.283.029.17.17 0 00.079-.04c.022-.021.034-.053.034-.096a.111.111 0 00-.038-.088.33.33 0 00-.099-.055 1.477 1.477 0 00-.136-.042 4.094 4.094 0 01-.159-.05.633.633 0 01-.148-.071.34.34 0 01-.11-.116.348.348 0 01-.042-.182.33.33 0 01.07-.213c.046-.058.107-.103.181-.135s.152-.047.234-.047a.73.73 0 01.325.079.381.381 0 01.13.109c.018.025.029.055.032.09s-.012.066-.047.095a.118.118 0 01-.087.026.13.13 0 01-.083-.034c-.028-.037-.066-.066-.114-.087a.403.403 0 00-.245-.024.161.161 0 00-.076.038c-.022.019-.033.05-.033.091 0 .039.013.069.038.091s.059.041.101.055c.043.015.088.028.137.042.05.013.101.029.152.047a.602.602 0 01.143.073c.043.03.078.069.105.116.026.047.04.108.04.181a.325.325 0 01-.075.217.47.47 0 01-.188.136.598.598 0 01-.23.046.898.898 0 01-.295-.051.516.516 0 01-.247-.183zM14.007 26.62a.149.149 0 01-.152.152.14.14 0 01-.105-.044.15.15 0 01-.042-.108v-1.545a.15.15 0 01.152-.153c.043 0 .079.015.106.044s.041.065.041.109v1.545zM14.975 26.797a.728.728 0 01-.369-.089.611.611 0 01-.24-.241.702.702 0 01-.084-.345c0-.15.03-.278.091-.384s.141-.187.239-.244a.614.614 0 01.554-.033.704.704 0 01.34.355c.035.08.051.165.051.255a.127.127 0 01-.047.098.16.16 0 01-.105.038h-.955l-.075-.25h.917l-.055.05v-.067a.231.231 0 00-.051-.13.336.336 0 00-.261-.125.451.451 0 00-.14.02c-.043.013-.081.036-.112.067s-.057.074-.075.127a.643.643 0 00-.027.203c0 .09.019.166.056.229a.382.382 0 00.334.192.571.571 0 00.147-.015.342.342 0 00.089-.036.87.87 0 01.061-.036.189.189 0 01.085-.022c.037 0 .067.012.091.038a.122.122 0 01.036.087c0 .045-.023.086-.07.123a.575.575 0 01-.183.096.762.762 0 01-.242.039zM16.39 25.41c.095 0 .178.01.249.03s.126.048.165.084a.17.17 0 01.059.128c0 .034-.01.065-.03.094a.1.1 0 01-.087.044.175.175 0 01-.066-.011.164.164 0 01-.046-.029.214.214 0 00-.123-.056c-.034-.005-.06-.009-.076-.009a.37.37 0 00-.352.204.47.47 0 00-.047.216c0 .08.016.151.048.214a.367.367 0 00.334.203.652.652 0 00.107-.007.305.305 0 00.075-.022.86.86 0 00.063-.042c.018-.015.046-.023.083-.023.043 0 .077.014.1.042a.151.151 0 01.035.101c0 .042-.023.08-.07.114a.572.572 0 01-.184.083.92.92 0 01-.246.031.624.624 0 01-.342-.091.613.613 0 01-.224-.249.786.786 0 01-.079-.353c0-.137.028-.257.084-.361a.622.622 0 01.57-.335zM17.11 25.46h.592c.04 0 .073.013.1.04.026.027.04.06.04.1 0 .038-.014.07-.04.096a.138.138 0 01-.1.039h-.592a.133.133 0 01-.1-.04.133.133 0 01-.04-.1c0-.038.013-.07.04-.096a.138.138 0 01.1-.039zm.267-.313a.14.14 0 01.106.044.153.153 0 01.041.108v1.113a.11.11 0 00.014.057.08.08 0 00.037.033c.016.007.033.01.051.01.02 0 .039-.004.055-.012a.15.15 0 01.058-.011c.023 0 .044.011.063.033.02.021.029.052.029.09 0 .047-.025.085-.076.115a.316.316 0 01-.164.045c-.035 0-.074-.003-.116-.009s-.083-.02-.12-.042-.069-.057-.094-.104a.413.413 0 01-.038-.193V25.3a.152.152 0 01.154-.153zM19.11 25.435c.043 0 .08.015.108.043a.15.15 0 01.042.109v.635a.588.588 0 01-.147.42c-.099.103-.24.155-.425.155s-.326-.052-.424-.155a.591.591 0 01-.146-.42v-.635c0-.043.014-.08.042-.109.028-.029.064-.043.107-.043s.079.015.107.043a.15.15 0 01.042.109v.635c0 .102.022.177.067.226.045.049.113.074.203.074.092 0 .16-.024.205-.074s.067-.125.067-.226v-.635c0-.043.014-.08.042-.109a.158.158 0 01.11-.043zM19.507 26.565c-.017-.023-.024-.053-.022-.09s.023-.068.065-.095a.137.137 0 01.085-.021c.03.002.059.018.087.046a.593.593 0 00.153.113.453.453 0 00.283.029.17.17 0 00.079-.04c.022-.021.034-.053.034-.096a.111.111 0 00-.038-.088.33.33 0 00-.099-.055 1.477 1.477 0 00-.136-.042 4.094 4.094 0 01-.159-.05.633.633 0 01-.148-.071.34.34 0 01-.11-.116.348.348 0 01-.042-.182.33.33 0 01.07-.213c.046-.058.107-.103.181-.135s.152-.047.234-.047a.73.73 0 01.325.079.381.381 0 01.13.109c.018.025.029.055.032.09s-.012.066-.047.095a.118.118 0 01-.087.026.13.13 0 01-.083-.034c-.028-.037-.066-.066-.114-.087a.403.403 0 00-.245-.024.161.161 0 00-.076.038c-.022.019-.033.05-.033.091 0 .039.013.069.038.091s.059.041.101.055c.043.015.088.028.137.042.05.013.101.029.152.047a.602.602 0 01.143.073c.043.03.078.069.105.116.026.047.04.108.04.181a.325.325 0 01-.075.217.47.47 0 01-.188.136.598.598 0 01-.23.046.898.898 0 01-.295-.051.521.521 0 01-.247-.183zM21.62 25.272c-.057 0-.097-.009-.12-.027-.023-.019-.035-.051-.035-.098V25.1c0-.048.013-.082.039-.099a.219.219 0 01.119-.026c.059 0 .099.009.123.027.023.019.035.051.035.098v.047c0 .048-.013.081-.038.099s-.066.026-.123.026zm.152 1.348a.148.148 0 01-.149.152.143.143 0 01-.107-.044.15.15 0 01-.042-.108v-1.033c0-.043.014-.08.042-.109.028-.029.064-.043.107-.043s.079.015.107.043a.15.15 0 01.042.109v1.033zM22.795 25.41c.124 0 .217.026.281.077a.396.396 0 01.132.207c.024.086.037.181.037.286v.64a.148.148 0 01-.149.152.145.145 0 01-.108-.044.15.15 0 01-.042-.108v-.64a.497.497 0 00-.021-.149.205.205 0 00-.076-.106.263.263 0 00-.158-.04.33.33 0 00-.169.04.274.274 0 00-.105.106.307.307 0 00-.036.149v.64a.148.148 0 01-.149.152.143.143 0 01-.107-.044.15.15 0 01-.042-.108v-1.033c0-.043.014-.08.042-.109.028-.029.064-.043.107-.043s.079.015.107.043a.15.15 0 01.042.109v.107l-.038-.007a.586.586 0 01.295-.251.466.466 0 01.157-.026zM23.95 26.752a.284.284 0 01-.024.101.578.578 0 01-.065.122.429.429 0 01-.094.1.184.184 0 01-.11.04.154.154 0 01-.085-.022c-.023-.015-.035-.041-.035-.077 0-.039.012-.062.036-.07l.062-.022a.164.164 0 00.051-.041.097.097 0 00.019-.059c0-.018-.009-.034-.026-.048a.11.11 0 00-.069-.021c-.01 0-.022.001-.035.004s-.025.007-.035.014a.153.153 0 01-.043-.031c-.013-.013-.019-.033-.019-.062 0-.037.013-.069.038-.097s.056-.051.094-.067a.259.259 0 01.106-.025c.071 0 .128.022.171.068.042.041.063.107.063.193zM25.65 25.41c.117 0 .221.029.314.088.092.06.166.141.22.244.054.103.082.223.082.36s-.027.257-.082.361a.631.631 0 01-.217.245.543.543 0 01-.306.089.554.554 0 01-.342-.115.474.474 0 01-.103-.102c-.024-.034-.037-.063-.037-.086l.078-.033v.658a.148.148 0 01-.149.152c-.043 0-.08-.013-.108-.041s-.042-.065-.042-.11v-1.533c0-.043.014-.08.042-.109.028-.029.064-.043.107-.043s.079.015.107.043a.15.15 0 01.042.109v.123l-.042-.022c0-.021.012-.048.035-.079s.055-.062.095-.093a.53.53 0 01.306-.106zm-.038.275a.335.335 0 00-.192.055c-.055.037-.098.086-.129.149s-.046.134-.046.214a.49.49 0 00.046.214c.031.064.074.114.129.151s.119.055.192.055a.338.338 0 00.318-.206.486.486 0 00.046-.214c0-.08-.016-.151-.046-.214s-.073-.112-.127-.149a.326.326 0 00-.191-.055zM27.218 25.41c.12 0 .211.026.273.077.063.052.105.121.129.207s.035.181.035.286v.64a.149.149 0 01-.15.152.143.143 0 01-.107-.044.15.15 0 01-.042-.108v-.64a.532.532 0 00-.02-.149.204.204 0 00-.072-.106.241.241 0 00-.15-.04.309.309 0 00-.162.04.26.26 0 00-.102.106.33.33 0 00-.034.149v.64a.148.148 0 01-.149.152.143.143 0 01-.107-.044.15.15 0 01-.042-.108v-1.545c0-.043.014-.08.042-.109s.064-.044.107-.044.079.015.107.044.042.065.042.109v.62l-.038-.007a.537.537 0 01.161-.182.576.576 0 01.127-.069.415.415 0 01.152-.027zM29.063 25.41c.043 0 .079.014.107.042s.042.065.042.11v1.058a.148.148 0 01-.149.152.143.143 0 01-.107-.044.15.15 0 01-.042-.108v-.123l.055.022c0 .021-.012.048-.035.079-.023.031-.055.062-.095.091s-.087.056-.141.076a.568.568 0 01-.489-.058.625.625 0 01-.221-.245.77.77 0 01-.082-.359.76.76 0 01.082-.361.628.628 0 01.219-.245.596.596 0 01.659.027.495.495 0 01.103.101c.024.034.036.063.036.086l-.09.033v-.183c0-.043.014-.08.042-.109a.142.142 0 01.106-.042zm-.505 1.112a.343.343 0 00.32-.205.475.475 0 00.046-.212.482.482 0 00-.046-.215.383.383 0 00-.128-.15.335.335 0 00-.192-.055.331.331 0 00-.19.055.368.368 0 00-.128.15.482.482 0 00-.046.215c0 .078.016.149.046.212s.074.113.128.15a.329.329 0 00.19.055zM29.688 26.772a.143.143 0 01-.107-.044.15.15 0 01-.042-.108v-1.033c0-.043.014-.08.042-.109.028-.029.064-.043.107-.043s.079.015.107.043a.15.15 0 01.042.109v.235l-.018-.167a.41.41 0 01.287-.23.534.534 0 01.125-.015c.05 0 .092.014.126.042s.051.062.051.1c0 .055-.014.095-.042.119a.141.141 0 01-.093.036.197.197 0 01-.086-.018.216.216 0 00-.18.003.258.258 0 00-.085.066.35.35 0 00-.063.111.457.457 0 00-.024.156v.593c0 .043-.014.08-.042.108a.128.128 0 01-.105.046zM31.24 26.797a.728.728 0 01-.369-.089.611.611 0 01-.24-.241.702.702 0 01-.084-.345c0-.15.03-.278.091-.384s.141-.187.239-.244a.614.614 0 01.554-.033.704.704 0 01.34.355c.035.08.051.165.051.255a.127.127 0 01-.047.098.16.16 0 01-.105.038h-.955l-.075-.25h.917l-.055.05v-.067a.231.231 0 00-.051-.13.336.336 0 00-.261-.125.451.451 0 00-.14.02c-.043.013-.081.036-.112.067s-.057.074-.075.127a.643.643 0 00-.027.203c0 .09.019.166.056.229a.382.382 0 00.334.192.571.571 0 00.147-.015.342.342 0 00.089-.036.87.87 0 01.061-.036.189.189 0 01.085-.022c.037 0 .067.012.091.038a.122.122 0 01.036.087c0 .045-.023.086-.07.123a.575.575 0 01-.183.096.762.762 0 01-.242.039zM32.088 25.46h.592c.04 0 .073.013.1.04.026.027.04.06.04.1 0 .038-.014.07-.04.096a.138.138 0 01-.1.039h-.592a.133.133 0 01-.1-.04.133.133 0 01-.04-.1c0-.038.013-.07.04-.096a.136.136 0 01.1-.039zm.267-.313a.14.14 0 01.106.044.153.153 0 01.041.108v1.113a.11.11 0 00.014.057.08.08 0 00.037.033c.016.007.033.01.051.01.02 0 .039-.004.055-.012a.15.15 0 01.058-.011c.023 0 .044.011.063.033.02.021.029.052.029.09 0 .047-.025.085-.076.115a.316.316 0 01-.164.045c-.035 0-.074-.003-.116-.009s-.083-.02-.12-.042-.069-.057-.094-.104a.413.413 0 01-.038-.193V25.3c0-.043.015-.08.044-.108a.15.15 0 01.11-.045zM33.245 26.772a.143.143 0 01-.107-.044.15.15 0 01-.042-.108v-1.033c0-.043.014-.08.042-.109.028-.029.064-.043.107-.043s.079.015.107.043a.15.15 0 01.042.109v.235l-.018-.167a.41.41 0 01.287-.23.534.534 0 01.125-.015c.05 0 .092.014.126.042s.051.062.051.1c0 .055-.014.095-.042.119a.141.141 0 01-.093.036.197.197 0 01-.086-.018.216.216 0 00-.18.003.258.258 0 00-.085.066.35.35 0 00-.063.111.457.457 0 00-.024.156v.593c0 .043-.014.08-.042.108a.127.127 0 01-.105.046zM35.263 25.41c.043 0 .079.014.107.042s.042.065.042.11v1.058a.148.148 0 01-.149.152.143.143 0 01-.107-.044.15.15 0 01-.042-.108v-.123l.055.022c0 .021-.012.048-.035.079-.023.031-.055.062-.095.091s-.087.056-.141.076a.568.568 0 01-.489-.058.625.625 0 01-.221-.245.77.77 0 01-.082-.359.76.76 0 01.082-.361.628.628 0 01.219-.245.596.596 0 01.659.027.495.495 0 01.103.101c.024.034.036.063.036.086l-.09.033v-.183c0-.043.014-.08.042-.109a.144.144 0 01.106-.042zm-.505 1.112a.343.343 0 00.32-.205.475.475 0 00.046-.212.482.482 0 00-.046-.215.383.383 0 00-.128-.15.335.335 0 00-.192-.055.331.331 0 00-.19.055.368.368 0 00-.128.15.482.482 0 00-.046.215c0 .078.016.149.046.212s.074.113.128.15a.331.331 0 00.19.055zM36.763 26.62a.149.149 0 01-.152.152.14.14 0 01-.105-.044.15.15 0 01-.042-.108v-1.545a.15.15 0 01.152-.153c.043 0 .079.015.106.044s.041.065.041.109v1.545zM38.397 26.105a.7.7 0 01-.091.361.66.66 0 01-.589.331.687.687 0 01-.344-.087c-.103-.058-.184-.14-.245-.244s-.091-.225-.091-.361.03-.257.091-.361a.67.67 0 01.589-.333.67.67 0 01.68.694zm-.299 0c0-.085-.017-.159-.051-.221s-.08-.111-.137-.146a.363.363 0 00-.191-.052.367.367 0 00-.328.198.457.457 0 00-.051.221c0 .083.017.156.051.219.034.063.08.111.137.146a.361.361 0 00.191.053c.07 0 .134-.018.191-.053.057-.035.103-.083.137-.146s.051-.136.051-.219zM38.798 26.772a.143.143 0 01-.107-.044.15.15 0 01-.042-.108v-1.033c0-.043.014-.08.042-.109.028-.029.064-.043.107-.043s.079.015.107.043a.15.15 0 01.042.109v.235l-.018-.167a.41.41 0 01.287-.23.534.534 0 01.125-.015c.05 0 .092.014.126.042s.051.062.051.1c0 .055-.014.095-.042.119a.141.141 0 01-.093.036.197.197 0 01-.086-.018.216.216 0 00-.18.003.258.258 0 00-.085.066.35.35 0 00-.063.111.457.457 0 00-.024.156v.593c0 .043-.014.08-.042.108a.128.128 0 01-.105.046zM40.35 26.797a.728.728 0 01-.369-.089.611.611 0 01-.24-.241.702.702 0 01-.084-.345c0-.15.03-.278.091-.384s.141-.187.239-.244a.613.613 0 01.554-.032.704.704 0 01.34.355c.035.08.051.165.051.255a.127.127 0 01-.047.098.16.16 0 01-.105.038h-.955l-.075-.25h.917l-.055.05v-.068a.231.231 0 00-.051-.13.336.336 0 00-.261-.125.451.451 0 00-.14.02c-.043.013-.081.036-.112.067s-.057.074-.075.127a.643.643 0 00-.027.203c0 .09.019.166.056.229a.382.382 0 00.334.192.571.571 0 00.147-.015.342.342 0 00.089-.036.87.87 0 01.061-.036.189.189 0 01.085-.022c.037 0 .067.012.091.038a.122.122 0 01.036.087c0 .045-.023.086-.07.123a.575.575 0 01-.183.096.753.753 0 01-.242.039zM41.886 25.41c.133 0 .231.032.295.096a.476.476 0 01.125.249l-.042-.022.02-.04a.596.596 0 01.243-.237.42.42 0 01.199-.046c.12 0 .211.026.273.077.063.052.105.121.129.207s.035.181.035.286v.64a.148.148 0 01-.149.152.145.145 0 01-.108-.044.15.15 0 01-.042-.108v-.64a.498.498 0 00-.02-.149.199.199 0 00-.072-.106.241.241 0 00-.15-.04.313.313 0 00-.163.04.251.251 0 00-.101.106.33.33 0 00-.034.149v.64a.149.149 0 01-.15.152.143.143 0 01-.107-.044.15.15 0 01-.042-.108v-.64a.532.532 0 00-.02-.149.204.204 0 00-.072-.106.241.241 0 00-.15-.04.309.309 0 00-.162.04.26.26 0 00-.102.106.33.33 0 00-.034.149v.64a.148.148 0 01-.149.152.143.143 0 01-.107-.044.15.15 0 01-.042-.108v-1.033c0-.043.014-.08.042-.109.028-.029.064-.043.107-.043s.079.015.107.043a.15.15 0 01.042.109v.107l-.038-.007a.537.537 0 01.161-.182.576.576 0 01.127-.069.427.427 0 01.151-.026zM44.111 26.565c-.017-.023-.024-.053-.022-.09s.023-.068.065-.095a.137.137 0 01.085-.021c.03.002.059.018.087.046a.593.593 0 00.153.113.453.453 0 00.283.029.17.17 0 00.079-.04c.022-.021.034-.053.034-.096a.111.111 0 00-.038-.088.33.33 0 00-.099-.055 1.477 1.477 0 00-.136-.042 4.094 4.094 0 01-.159-.05.633.633 0 01-.148-.071.34.34 0 01-.11-.116.348.348 0 01-.042-.182.33.33 0 01.07-.213c.046-.058.107-.103.181-.135s.152-.047.234-.047a.73.73 0 01.325.079.381.381 0 01.13.109c.018.025.029.055.032.09s-.012.066-.047.095a.118.118 0 01-.087.026.13.13 0 01-.083-.034c-.028-.037-.066-.066-.114-.087a.403.403 0 00-.245-.024.161.161 0 00-.076.038c-.022.019-.033.05-.033.091 0 .039.013.069.038.091s.059.041.101.055c.043.015.088.028.137.042.05.013.101.029.152.047a.602.602 0 01.143.073c.043.03.078.069.105.116.026.047.04.108.04.181a.325.325 0 01-.075.217.47.47 0 01-.188.136.598.598 0 01-.23.046.898.898 0 01-.295-.051.516.516 0 01-.247-.183zM46.678 26.105a.7.7 0 01-.091.361.66.66 0 01-.589.331.687.687 0 01-.344-.087c-.103-.058-.184-.14-.245-.244s-.091-.225-.091-.361.03-.257.091-.361a.67.67 0 01.589-.333.67.67 0 01.68.694zm-.3 0c0-.085-.017-.159-.051-.221s-.08-.111-.137-.146a.363.363 0 00-.191-.052.367.367 0 00-.328.198.457.457 0 00-.051.221c0 .083.017.156.051.219.034.063.08.111.137.146a.361.361 0 00.191.053c.07 0 .134-.018.191-.053.057-.035.103-.083.137-.146s.051-.136.051-.219zM48.011 24.922a.15.15 0 01.108.042.153.153 0 01.042.11v1.545a.147.147 0 01-.15.152.143.143 0 01-.107-.044.15.15 0 01-.042-.108v-.123l.055.022c0 .021-.012.048-.035.079-.023.031-.055.062-.095.091s-.087.056-.141.076a.568.568 0 01-.489-.058.625.625 0 01-.221-.245.77.77 0 01-.082-.359.76.76 0 01.082-.361.628.628 0 01.219-.245.596.596 0 01.659.027.495.495 0 01.103.101c.024.034.036.063.036.086l-.09.033v-.67c0-.043.014-.08.042-.109s.063-.042.106-.042zm-.505 1.6a.343.343 0 00.32-.205.475.475 0 00.046-.212.482.482 0 00-.046-.215.383.383 0 00-.128-.15.335.335 0 00-.192-.055.331.331 0 00-.19.055.368.368 0 00-.128.15.482.482 0 00-.046.215c0 .078.016.149.046.212s.074.113.128.15a.334.334 0 00.19.055zM49.568 25.41c.043 0 .079.014.107.042s.042.065.042.11v1.058a.148.148 0 01-.149.152.142.142 0 01-.107-.044.15.15 0 01-.043-.108v-.123l.056.022c0 .021-.012.048-.035.079s-.056.062-.096.091a.54.54 0 01-.318.107.57.57 0 01-.313-.089.625.625 0 01-.221-.245.757.757 0 01-.081-.359.76.76 0 01.081-.361.628.628 0 01.219-.245.59.59 0 01.658.027.45.45 0 01.103.101c.024.034.036.063.036.086l-.09.033v-.183c0-.043.015-.08.043-.109a.152.152 0 01.108-.042zm-.505 1.112c.073 0 .138-.019.192-.055s.098-.086.129-.15a.488.488 0 00.046-.212.495.495 0 00-.046-.215.378.378 0 00-.129-.15.335.335 0 00-.192-.055.331.331 0 00-.19.055.378.378 0 00-.129.15.495.495 0 00-.046.215c0 .078.016.149.046.212a.378.378 0 00.129.15.334.334 0 00.19.055zM50.368 26.62c0 .043-.015.08-.044.108a.145.145 0 01-.108.044.138.138 0 01-.104-.044.146.146 0 01-.043-.108v-1.545a.15.15 0 01.152-.153c.044 0 .079.015.106.044s.041.065.041.109v1.545zM51.336 26.797a.725.725 0 01-.369-.089.611.611 0 01-.24-.241.702.702 0 01-.083-.345c0-.15.03-.278.091-.384s.141-.187.239-.244a.611.611 0 01.554-.033.662.662 0 01.201.144c.058.061.104.131.139.211s.051.165.051.255a.133.133 0 01-.047.098.16.16 0 01-.105.038h-.955l-.075-.25h.918l-.055.05v-.067a.232.232 0 00-.052-.13.336.336 0 00-.261-.125.458.458 0 00-.141.02c-.043.013-.081.036-.112.067s-.057.074-.075.127-.027.121-.027.203c0 .09.019.166.057.229a.382.382 0 00.333.192.571.571 0 00.147-.015c.037-.01.066-.022.089-.036l.062-.036a.192.192 0 01.085-.022c.037 0 .067.012.091.038a.123.123 0 01.037.087c0 .045-.023.086-.07.123a.575.575 0 01-.183.096.783.783 0 01-.244.039zM52.091 26.565c-.017-.023-.024-.053-.022-.09s.023-.068.065-.095a.135.135 0 01.085-.021.141.141 0 01.087.046c.049.048.1.086.152.113a.456.456 0 00.283.029.167.167 0 00.078-.04c.022-.021.034-.053.034-.096a.111.111 0 00-.038-.088.317.317 0 00-.099-.055 1.477 1.477 0 00-.136-.042 4.72 4.72 0 01-.159-.05.633.633 0 01-.148-.071c-.045-.029-.082-.068-.11-.116s-.042-.109-.042-.182c0-.083.023-.154.069-.213.047-.058.107-.103.182-.135s.152-.047.233-.047a.73.73 0 01.325.079.381.381 0 01.13.109.178.178 0 01.033.09c.003.035-.013.066-.048.095-.025.02-.055.029-.088.026s-.061-.014-.082-.034a.28.28 0 00-.114-.087.398.398 0 00-.244-.024.17.17 0 00-.077.038c-.021.019-.032.05-.032.091 0 .039.013.069.038.091a.283.283 0 00.101.055c.043.015.088.028.137.042.05.013.101.029.152.047a.602.602 0 01.143.073c.043.03.078.069.104.116.027.047.04.108.04.181a.325.325 0 01-.074.217.485.485 0 01-.188.136.598.598 0 01-.23.046c-.099 0-.196-.017-.295-.051s-.18-.096-.245-.183zM8.865 28.41c.133 0 .231.032.295.096a.476.476 0 01.125.249l-.042-.022.02-.04a.596.596 0 01.243-.237.42.42 0 01.199-.046c.12 0 .211.026.273.077.063.052.105.121.129.207s.035.181.035.286v.64a.148.148 0 01-.149.152.145.145 0 01-.108-.044.145.145 0 01-.043-.108v-.64a.498.498 0 00-.02-.149.199.199 0 00-.072-.106.241.241 0 00-.15-.04.313.313 0 00-.163.04.251.251 0 00-.101.106.33.33 0 00-.034.149v.64a.149.149 0 01-.15.152.149.149 0 01-.15-.152v-.64a.532.532 0 00-.02-.149.204.204 0 00-.072-.106.241.241 0 00-.15-.04.309.309 0 00-.162.04.26.26 0 00-.102.106.33.33 0 00-.034.149v.64a.148.148 0 01-.149.152.143.143 0 01-.107-.044.145.145 0 01-.043-.108v-1.033c0-.043.014-.08.042-.109.028-.029.064-.043.107-.043s.079.015.107.043a.15.15 0 01.042.109v.107l-.038-.007a.537.537 0 01.161-.182.457.457 0 01.281-.095zM11.085 29.797a.728.728 0 01-.369-.089.611.611 0 01-.24-.241.702.702 0 01-.084-.345c0-.15.03-.278.091-.384s.141-.187.239-.244a.614.614 0 01.554-.033.704.704 0 01.34.355c.035.08.051.165.051.255a.127.127 0 01-.047.098.16.16 0 01-.105.038h-.955l-.075-.25h.917l-.055.05v-.067a.231.231 0 00-.051-.13.336.336 0 00-.261-.125.451.451 0 00-.14.02c-.043.013-.081.036-.112.067s-.057.074-.075.127a.643.643 0 00-.027.203c0 .09.019.166.056.229a.382.382 0 00.334.192.571.571 0 00.147-.015.342.342 0 00.089-.036.87.87 0 01.061-.036.189.189 0 01.085-.022c.037 0 .067.012.091.038a.122.122 0 01.036.087c0 .045-.023.086-.07.123a.575.575 0 01-.183.096.757.757 0 01-.242.039zM11.933 28.46h.592c.04 0 .073.013.1.04.026.027.04.06.04.1 0 .038-.014.07-.04.096a.138.138 0 01-.1.039h-.592a.133.133 0 01-.1-.04.133.133 0 01-.04-.1c0-.038.013-.07.04-.096a.136.136 0 01.1-.039zm.267-.313a.14.14 0 01.106.044.153.153 0 01.041.108v1.113a.11.11 0 00.014.057.08.08 0 00.037.033c.016.007.033.01.051.01.02 0 .039-.004.055-.012a.15.15 0 01.058-.011c.023 0 .044.011.063.033.02.021.029.052.029.09 0 .047-.025.085-.076.115a.316.316 0 01-.164.045c-.035 0-.074-.003-.116-.009s-.083-.02-.12-.042-.069-.057-.094-.104a.413.413 0 01-.038-.193V28.3a.152.152 0 01.154-.153zM13.933 28.435c.043 0 .08.015.108.043a.15.15 0 01.042.109v.635a.588.588 0 01-.147.42c-.099.103-.24.155-.425.155s-.326-.052-.424-.155a.591.591 0 01-.146-.42v-.635c0-.043.014-.08.042-.109.028-.029.064-.043.107-.043s.079.015.107.043a.15.15 0 01.042.109v.635c0 .102.022.177.067.226.045.049.113.074.203.074.092 0 .16-.024.205-.074s.067-.125.067-.226v-.635c0-.043.014-.08.042-.109a.158.158 0 01.11-.043zM14.33 29.565c-.017-.023-.024-.053-.022-.09s.023-.068.065-.095a.137.137 0 01.085-.021c.03.002.059.018.087.046a.593.593 0 00.153.113.453.453 0 00.283.029.17.17 0 00.079-.04c.022-.021.034-.053.034-.096a.111.111 0 00-.038-.088.33.33 0 00-.099-.055 1.477 1.477 0 00-.136-.042 4.094 4.094 0 01-.159-.05.633.633 0 01-.148-.071.34.34 0 01-.11-.116.348.348 0 01-.042-.182.33.33 0 01.07-.213c.046-.058.107-.103.181-.135s.152-.047.234-.047a.73.73 0 01.325.079.381.381 0 01.13.109c.018.025.029.055.032.09s-.012.066-.047.095a.118.118 0 01-.087.026.13.13 0 01-.083-.034c-.028-.037-.066-.066-.114-.087a.403.403 0 00-.245-.024.161.161 0 00-.076.038c-.022.019-.033.05-.033.091 0 .039.013.069.038.091s.059.041.101.055c.043.015.088.028.137.042.05.013.101.029.152.047a.602.602 0 01.143.073c.043.03.078.069.105.116.026.047.04.108.04.181a.325.325 0 01-.075.217.47.47 0 01-.188.136.598.598 0 01-.23.046.898.898 0 01-.295-.051.521.521 0 01-.247-.183zM16.328 28.46h.592c.04 0 .073.013.1.04.026.027.04.06.04.1 0 .038-.014.07-.04.096a.138.138 0 01-.1.039h-.592a.133.133 0 01-.1-.04.133.133 0 01-.04-.1c0-.038.013-.07.04-.096a.136.136 0 01.1-.039zm.267-.313a.14.14 0 01.106.044.153.153 0 01.041.108v1.113a.11.11 0 00.014.057.08.08 0 00.037.033c.016.007.033.01.051.01.02 0 .039-.004.055-.012a.15.15 0 01.058-.011c.023 0 .044.011.063.033.02.021.029.052.029.09 0 .047-.025.085-.076.115a.316.316 0 01-.164.045c-.035 0-.074-.003-.116-.009s-.083-.02-.12-.042-.069-.057-.094-.104a.413.413 0 01-.038-.193V28.3a.152.152 0 01.154-.153zM18.62 29.105a.7.7 0 01-.091.361.66.66 0 01-.589.331.687.687 0 01-.344-.087c-.103-.058-.184-.14-.245-.244s-.091-.225-.091-.361.03-.257.091-.361a.67.67 0 01.589-.333.67.67 0 01.68.694zm-.3 0c0-.085-.017-.159-.051-.221s-.08-.111-.137-.146a.363.363 0 00-.191-.052.367.367 0 00-.328.198.457.457 0 00-.051.221c0 .083.017.156.051.219.034.063.08.111.137.146a.361.361 0 00.191.053c.07 0 .134-.018.191-.053.057-.035.103-.083.137-.146s.051-.136.051-.219zM19.021 29.772a.143.143 0 01-.107-.044.15.15 0 01-.042-.108v-1.033c0-.043.014-.08.042-.109.028-.029.064-.043.107-.043s.079.015.107.043a.15.15 0 01.042.109v.235l-.018-.167a.41.41 0 01.287-.23.534.534 0 01.125-.015c.05 0 .092.014.126.042s.051.062.051.1c0 .055-.014.095-.042.119a.141.141 0 01-.093.036.197.197 0 01-.086-.018.216.216 0 00-.18.003.258.258 0 00-.085.066.35.35 0 00-.063.111.457.457 0 00-.024.156v.593c0 .043-.014.08-.042.108a.128.128 0 01-.105.046zM19.971 28.46h.592c.04 0 .073.013.1.04.026.027.04.06.04.1 0 .038-.014.07-.04.096a.138.138 0 01-.1.039h-.592a.133.133 0 01-.1-.04.133.133 0 01-.04-.1c0-.038.013-.07.04-.096a.136.136 0 01.1-.039zm.267-.313a.14.14 0 01.106.044.153.153 0 01.041.108v1.113a.11.11 0 00.014.057.08.08 0 00.037.033c.016.007.033.01.051.01.02 0 .039-.004.055-.012a.15.15 0 01.058-.011c.023 0 .044.011.063.033.02.021.029.052.029.09 0 .047-.025.085-.076.115a.316.316 0 01-.164.045c-.035 0-.074-.003-.116-.009s-.083-.02-.12-.042-.069-.057-.094-.104a.413.413 0 01-.038-.193V28.3c0-.043.015-.08.044-.108a.15.15 0 01.11-.045zM22.263 29.105a.7.7 0 01-.091.361.66.66 0 01-.589.331.687.687 0 01-.344-.087c-.103-.058-.184-.14-.245-.244s-.091-.225-.091-.361.03-.257.091-.361a.67.67 0 01.589-.333.67.67 0 01.68.694zm-.3 0c0-.085-.017-.159-.051-.221s-.08-.111-.137-.146a.363.363 0 00-.191-.052.367.367 0 00-.328.198.457.457 0 00-.051.221c0 .083.017.156.051.219.034.063.08.111.137.146a.361.361 0 00.191.053c.07 0 .134-.018.191-.053.057-.035.103-.083.137-.146s.051-.136.051-.219zM22.663 29.772a.143.143 0 01-.107-.044.15.15 0 01-.042-.108v-1.033c0-.043.014-.08.042-.109.028-.029.064-.043.107-.043s.079.015.107.043a.15.15 0 01.042.109v.235l-.018-.167a.41.41 0 01.287-.23.534.534 0 01.125-.015c.05 0 .092.014.126.042s.051.062.051.1c0 .055-.014.095-.042.119a.141.141 0 01-.093.036.197.197 0 01-.086-.018.216.216 0 00-.18.003.258.258 0 00-.085.066.35.35 0 00-.063.111.457.457 0 00-.024.156v.593c0 .043-.014.08-.042.108a.127.127 0 01-.105.046zM23.978 29.752a.284.284 0 01-.024.101.578.578 0 01-.065.122.393.393 0 01-.094.1.184.184 0 01-.11.04.154.154 0 01-.085-.023c-.023-.014-.035-.04-.035-.076 0-.039.012-.063.036-.071l.062-.022a.164.164 0 00.051-.041.097.097 0 00.019-.059c0-.018-.009-.034-.026-.048a.11.11 0 00-.069-.021c-.01 0-.022.001-.035.004s-.025.007-.035.014a.153.153 0 01-.043-.031c-.013-.013-.019-.033-.019-.062 0-.037.013-.069.038-.097s.056-.051.094-.067a.259.259 0 01.106-.025c.071 0 .128.022.171.068.042.042.063.108.063.194zM25.136 29.772a.143.143 0 01-.107-.044.145.145 0 01-.043-.108v-1.033c0-.043.014-.08.042-.109.028-.029.064-.043.107-.043s.079.015.107.043a.15.15 0 01.042.109v.235l-.018-.167a.41.41 0 01.287-.23.534.534 0 01.125-.015c.05 0 .092.014.126.042s.051.062.051.1c0 .055-.014.095-.042.119a.141.141 0 01-.093.036.197.197 0 01-.086-.018.216.216 0 00-.18.003.258.258 0 00-.085.066.35.35 0 00-.063.111.457.457 0 00-.024.156v.593c0 .043-.014.08-.042.108a.125.125 0 01-.104.046zM26.201 28.272c-.057 0-.097-.009-.12-.027-.023-.019-.035-.051-.035-.098V28.1c0-.048.013-.082.039-.099a.219.219 0 01.119-.026c.059 0 .099.009.123.027.023.019.035.051.035.098v.047c0 .048-.013.081-.038.099s-.067.026-.123.026zm.152 1.348a.148.148 0 01-.149.152.143.143 0 01-.107-.044.15.15 0 01-.042-.108v-1.033c0-.043.014-.08.042-.109.028-.029.064-.043.107-.043s.079.015.107.043a.15.15 0 01.042.109v1.033zM26.583 29.565c-.017-.023-.024-.053-.022-.09s.023-.068.065-.095a.137.137 0 01.085-.021c.03.002.059.018.087.046a.593.593 0 00.153.113.453.453 0 00.283.029.17.17 0 00.079-.04c.022-.021.034-.053.034-.096a.111.111 0 00-.038-.088.33.33 0 00-.099-.055 1.477 1.477 0 00-.136-.042 4.094 4.094 0 01-.159-.05.633.633 0 01-.148-.071.34.34 0 01-.11-.116.348.348 0 01-.042-.182.33.33 0 01.07-.213c.046-.058.107-.103.181-.135s.152-.047.234-.047a.73.73 0 01.325.079.381.381 0 01.13.109c.018.025.029.055.032.09s-.012.066-.047.095a.118.118 0 01-.087.026.13.13 0 01-.083-.034c-.028-.037-.066-.066-.114-.087a.403.403 0 00-.245-.024.161.161 0 00-.076.038c-.022.019-.033.05-.033.091 0 .039.013.069.038.091s.059.041.101.055c.043.015.088.028.137.042.05.013.101.029.152.047a.602.602 0 01.143.073c.043.03.078.069.105.116.026.047.04.108.04.181a.325.325 0 01-.075.217.47.47 0 01-.188.136.598.598 0 01-.23.046.898.898 0 01-.295-.051.516.516 0 01-.247-.183zM28.858 28.435c.043 0 .08.015.108.043a.15.15 0 01.042.109v.635a.588.588 0 01-.147.42c-.099.103-.24.155-.425.155s-.326-.052-.424-.155a.591.591 0 01-.146-.42v-.635c0-.043.014-.08.042-.109.028-.029.064-.043.107-.043s.079.015.107.043a.15.15 0 01.042.109v.635c0 .102.022.177.067.226.045.049.113.074.203.074.092 0 .16-.024.205-.074s.067-.125.067-.226v-.635c0-.043.014-.08.042-.109a.158.158 0 01.11-.043zM29.255 29.565c-.017-.023-.024-.053-.022-.09s.023-.068.065-.095a.137.137 0 01.085-.021c.03.002.059.018.087.046a.593.593 0 00.153.113.453.453 0 00.283.029.17.17 0 00.079-.04c.022-.021.034-.053.034-.096a.111.111 0 00-.038-.088.33.33 0 00-.099-.055 1.477 1.477 0 00-.136-.042 4.094 4.094 0 01-.159-.05.633.633 0 01-.148-.071.34.34 0 01-.11-.116.348.348 0 01-.042-.182.33.33 0 01.07-.213c.046-.058.107-.103.181-.135s.152-.047.234-.047a.73.73 0 01.325.079.381.381 0 01.13.109c.018.025.029.055.032.09s-.012.066-.047.095a.118.118 0 01-.087.026.13.13 0 01-.083-.034c-.028-.037-.066-.066-.114-.087a.403.403 0 00-.245-.024.161.161 0 00-.076.038c-.022.019-.033.05-.033.091 0 .039.013.069.038.091s.059.041.101.055c.043.015.088.028.137.042.05.013.101.029.152.047a.602.602 0 01.143.073c.043.03.078.069.105.116.026.047.04.108.04.181a.325.325 0 01-.075.217.47.47 0 01-.188.136.598.598 0 01-.23.046.898.898 0 01-.295-.051.521.521 0 01-.247-.183zM32.321 27.922c.043 0 .079.014.107.042s.042.065.042.11v1.545a.148.148 0 01-.149.152.143.143 0 01-.107-.044.15.15 0 01-.042-.108v-.123l.055.022c0 .021-.012.048-.035.079-.023.031-.055.062-.095.091s-.087.056-.141.076a.568.568 0 01-.489-.058.625.625 0 01-.221-.245.77.77 0 01-.082-.359.76.76 0 01.082-.361.628.628 0 01.219-.245.596.596 0 01.659.027.495.495 0 01.103.101c.024.034.036.063.036.086l-.09.033v-.67c0-.043.014-.08.042-.109s.062-.042.106-.042zm-.505 1.6a.343.343 0 00.32-.205.475.475 0 00.046-.212.482.482 0 00-.046-.215.383.383 0 00-.128-.15.335.335 0 00-.192-.055.331.331 0 00-.19.055.368.368 0 00-.128.15.482.482 0 00-.046.215c0 .078.016.149.046.212s.074.113.128.15a.331.331 0 00.19.055zM33.788 28.435c.043 0 .08.015.108.043a.15.15 0 01.042.109v.635a.588.588 0 01-.147.42c-.099.103-.24.155-.425.155s-.326-.052-.424-.155a.591.591 0 01-.146-.42v-.635c0-.043.014-.08.042-.109.028-.029.064-.043.107-.043s.079.015.107.043a.15.15 0 01.042.109v.635c0 .102.022.177.067.226.045.049.113.074.203.074.092 0 .16-.024.205-.074s.067-.125.067-.226v-.635c0-.043.014-.08.042-.109a.158.158 0 01.11-.043zM34.393 28.272c-.057 0-.097-.009-.12-.027-.023-.019-.035-.051-.035-.098V28.1c0-.048.013-.082.039-.099a.219.219 0 01.119-.026c.059 0 .099.009.123.027.023.019.035.051.035.098v.047c0 .048-.013.081-.038.099s-.066.026-.123.026zm.152 1.348a.148.148 0 01-.149.152.143.143 0 01-.107-.044.15.15 0 01-.042-.108v-1.033c0-.043.014-.08.042-.109.028-.029.064-.043.107-.043s.079.015.107.043a.15.15 0 01.042.109v1.033zM34.775 29.565c-.017-.023-.024-.053-.022-.09s.023-.068.065-.095a.137.137 0 01.085-.021c.03.002.059.018.087.046a.593.593 0 00.153.113.453.453 0 00.283.029.17.17 0 00.079-.04c.022-.021.034-.053.034-.096a.111.111 0 00-.038-.088.33.33 0 00-.099-.055 1.477 1.477 0 00-.136-.042 4.094 4.094 0 01-.159-.05.633.633 0 01-.148-.071.34.34 0 01-.11-.116.348.348 0 01-.042-.182.33.33 0 01.07-.213c.046-.058.107-.103.181-.135s.152-.047.234-.047a.73.73 0 01.325.079.381.381 0 01.13.109c.018.025.029.055.032.09s-.012.066-.047.095a.118.118 0 01-.087.026.13.13 0 01-.083-.034c-.028-.037-.066-.066-.114-.087a.403.403 0 00-.245-.024.161.161 0 00-.076.038c-.022.019-.033.05-.033.091 0 .039.013.069.038.091s.059.041.101.055c.043.015.088.028.137.042.05.013.101.029.152.047a.602.602 0 01.143.073c.043.03.078.069.105.116.026.047.04.108.04.181a.325.325 0 01-.075.217.47.47 0 01-.188.136.598.598 0 01-.23.046.898.898 0 01-.295-.051.521.521 0 01-.247-.183zM37.461 28.41c.133 0 .231.032.295.096a.476.476 0 01.125.249l-.042-.022.02-.04a.596.596 0 01.243-.237.42.42 0 01.199-.046c.12 0 .211.026.273.077.063.052.105.121.129.207s.035.181.035.286v.64a.148.148 0 01-.149.152.145.145 0 01-.108-.044.15.15 0 01-.042-.108v-.64a.498.498 0 00-.02-.149.199.199 0 00-.072-.106.241.241 0 00-.15-.04.313.313 0 00-.163.04.251.251 0 00-.101.106.33.33 0 00-.034.149v.64a.149.149 0 01-.15.152.143.143 0 01-.107-.044.15.15 0 01-.042-.108v-.64a.532.532 0 00-.02-.149.204.204 0 00-.072-.106.241.241 0 00-.15-.04.309.309 0 00-.162.04.26.26 0 00-.102.106.33.33 0 00-.034.149v.64a.148.148 0 01-.149.152.143.143 0 01-.107-.044.15.15 0 01-.042-.108v-1.033c0-.043.014-.08.042-.109.028-.029.064-.043.107-.043s.079.015.107.043a.15.15 0 01.042.109v.107l-.038-.007a.537.537 0 01.161-.182.576.576 0 01.127-.069.427.427 0 01.151-.026zM40.146 28.41c.043 0 .079.014.107.042s.042.065.042.11v1.058a.148.148 0 01-.149.152.143.143 0 01-.107-.044.15.15 0 01-.042-.108v-.123l.055.022c0 .021-.012.048-.035.079-.023.031-.055.062-.095.091s-.087.056-.141.076a.568.568 0 01-.489-.058.625.625 0 01-.221-.245.77.77 0 01-.082-.359.76.76 0 01.082-.361.628.628 0 01.219-.245.596.596 0 01.659.027.495.495 0 01.103.101c.024.034.036.063.036.086l-.09.033v-.183c0-.043.014-.08.042-.109a.145.145 0 01.106-.042zm-.505 1.112a.343.343 0 00.32-.205.475.475 0 00.046-.212.482.482 0 00-.046-.215.383.383 0 00-.128-.15.335.335 0 00-.192-.055.331.331 0 00-.19.055.368.368 0 00-.128.15.482.482 0 00-.046.215c0 .078.016.149.046.212s.074.113.128.15a.331.331 0 00.19.055zM41.164 28.41a.56.56 0 01.343.115.527.527 0 01.1.101c.024.034.036.063.036.086l-.065.033v-.183c0-.043.014-.08.042-.109.028-.029.064-.043.107-.043s.079.014.107.042.042.065.042.11v1.112a.586.586 0 01-.094.349.538.538 0 01-.246.19.91.91 0 01-.328.059c-.033 0-.077-.005-.13-.013s-.104-.018-.152-.029-.085-.023-.11-.033c-.05-.021-.084-.049-.104-.081s-.023-.067-.011-.104c.015-.049.039-.082.072-.099s.068-.02.105-.006c.017.005.044.015.083.03.039.015.081.029.126.041a.448.448 0 00.121.019c.125 0 .218-.025.277-.075.06-.05.09-.119.09-.208v-.217l.03.022c0 .021-.011.048-.034.079s-.053.062-.092.091a.542.542 0 01-.309.107.587.587 0 01-.32-.089.627.627 0 01-.225-.245.758.758 0 01-.083-.359.76.76 0 01.083-.361.596.596 0 01.539-.332zm.047.275a.35.35 0 00-.197.055.38.38 0 00-.133.15.469.469 0 00-.047.215c0 .078.016.149.047.212s.076.113.133.15.123.055.197.055c.077 0 .144-.019.2-.055s.101-.086.132-.15.047-.134.047-.212a.482.482 0 00-.047-.215.357.357 0 00-.332-.205zM42.918 28.41c.124 0 .217.026.281.077a.396.396 0 01.132.207c.024.086.037.181.037.286v.64a.148.148 0 01-.149.152.145.145 0 01-.108-.044.15.15 0 01-.042-.108v-.64a.497.497 0 00-.021-.149.205.205 0 00-.076-.106.263.263 0 00-.158-.04.33.33 0 00-.169.04.274.274 0 00-.105.106.307.307 0 00-.036.149v.64a.148.148 0 01-.149.152.143.143 0 01-.107-.044.15.15 0 01-.042-.108v-1.033c0-.043.014-.08.042-.109.028-.029.064-.043.107-.043s.079.015.107.043a.15.15 0 01.042.109v.107l-.038-.007a.586.586 0 01.295-.251.474.474 0 01.157-.026zM43.823 28.272c-.057 0-.097-.009-.12-.027-.023-.019-.035-.051-.035-.098V28.1c0-.048.013-.082.039-.099a.219.219 0 01.119-.026c.059 0 .099.009.123.027.023.019.035.051.035.098v.047c0 .048-.013.081-.038.099s-.066.026-.123.026zm.153 1.348a.148.148 0 01-.149.152.143.143 0 01-.107-.044.15.15 0 01-.042-.108v-1.033c0-.043.014-.08.042-.109.028-.029.064-.043.107-.043s.079.015.107.043a.15.15 0 01.042.109v1.033zM44.206 29.565c-.017-.023-.024-.053-.022-.09s.023-.068.065-.095a.137.137 0 01.085-.021c.03.002.059.018.087.046a.593.593 0 00.153.113.453.453 0 00.283.029.17.17 0 00.079-.04c.022-.021.034-.053.034-.096a.111.111 0 00-.038-.088.33.33 0 00-.099-.055 1.477 1.477 0 00-.136-.042 4.094 4.094 0 01-.159-.05.633.633 0 01-.148-.071.34.34 0 01-.11-.116.348.348 0 01-.042-.182.33.33 0 01.07-.213c.046-.058.107-.103.181-.135s.152-.047.234-.047a.73.73 0 01.325.079.381.381 0 01.13.109c.018.025.029.055.032.09s-.012.066-.047.095a.118.118 0 01-.087.026.13.13 0 01-.083-.034c-.028-.037-.066-.066-.114-.087a.403.403 0 00-.245-.024.161.161 0 00-.076.038c-.022.019-.033.05-.033.091 0 .039.013.069.038.091s.059.041.101.055c.043.015.088.028.137.042.05.013.101.029.152.047a.602.602 0 01.143.073c.043.03.078.069.105.116.026.047.04.108.04.181a.325.325 0 01-.075.217.47.47 0 01-.188.136.598.598 0 01-.23.046.898.898 0 01-.295-.051.516.516 0 01-.247-.183zM46.891 28.41c.133 0 .231.032.295.096a.476.476 0 01.125.249l-.042-.022.02-.04a.596.596 0 01.243-.237.42.42 0 01.199-.046c.12 0 .211.026.273.077.063.052.105.121.128.207s.035.181.035.286v.64a.148.148 0 01-.149.152.145.145 0 01-.108-.044.15.15 0 01-.042-.108v-.64a.498.498 0 00-.02-.149.199.199 0 00-.072-.106.241.241 0 00-.15-.04.313.313 0 00-.163.04.251.251 0 00-.101.106.33.33 0 00-.034.149v.64a.149.149 0 01-.15.152.143.143 0 01-.107-.044.15.15 0 01-.042-.108v-.64a.532.532 0 00-.02-.149.204.204 0 00-.072-.106.241.241 0 00-.15-.04.309.309 0 00-.162.04.26.26 0 00-.102.106.33.33 0 00-.034.149v.64a.148.148 0 01-.149.152.143.143 0 01-.107-.044.15.15 0 01-.042-.108v-1.033c0-.043.014-.08.042-.109.028-.029.064-.043.107-.043s.079.015.107.043a.15.15 0 01.042.109v.107l-.038-.007a.537.537 0 01.161-.182.576.576 0 01.127-.069.437.437 0 01.152-.026zM49.576 28.41c.043 0 .079.014.107.042s.042.065.042.11v1.058a.148.148 0 01-.149.152.142.142 0 01-.107-.044.15.15 0 01-.043-.108v-.123l.056.022c0 .021-.012.048-.035.079s-.056.062-.096.091a.54.54 0 01-.318.107.57.57 0 01-.313-.089.625.625 0 01-.221-.245.757.757 0 01-.081-.359.76.76 0 01.081-.361.628.628 0 01.219-.245.59.59 0 01.658.027.45.45 0 01.103.101c.024.034.036.063.036.086l-.09.033v-.183c0-.043.015-.08.043-.109a.152.152 0 01.108-.042zm-.505 1.112c.073 0 .138-.019.192-.055s.098-.086.129-.15a.488.488 0 00.046-.212.495.495 0 00-.046-.215.378.378 0 00-.129-.15.335.335 0 00-.192-.055.331.331 0 00-.19.055.378.378 0 00-.129.15.495.495 0 00-.046.215c0 .078.016.149.046.212a.378.378 0 00.129.15.334.334 0 00.19.055zM50.594 28.41a.56.56 0 01.343.115.5.5 0 01.1.101c.024.034.036.063.036.086l-.064.033v-.183c0-.043.014-.08.042-.109a.142.142 0 01.107-.043c.044 0 .08.014.108.042s.042.065.042.11v1.112a.586.586 0 01-.094.349.538.538 0 01-.246.19.908.908 0 01-.327.059.953.953 0 01-.131-.013 2.055 2.055 0 01-.152-.029.838.838 0 01-.109-.033.208.208 0 01-.104-.081.126.126 0 01-.011-.104c.015-.049.039-.082.072-.099s.068-.02.105-.006c.017.005.044.015.082.03s.08.029.126.041a.455.455 0 00.122.019c.125 0 .217-.025.277-.075.06-.05.09-.119.09-.208v-.217l.03.022c0 .021-.012.048-.034.079s-.054.062-.093.091-.085.056-.139.076a.455.455 0 01-.17.031.587.587 0 01-.32-.089.627.627 0 01-.225-.245.757.757 0 01-.082-.359c0-.137.027-.257.082-.361s.129-.186.223-.245a.587.587 0 01.314-.087zm.048.275a.353.353 0 00-.33.205.47.47 0 00-.048.215c0 .078.016.149.048.212a.355.355 0 00.33.205.362.362 0 00.332-.205.479.479 0 00.048-.212.482.482 0 00-.048-.215.356.356 0 00-.332-.205zM52.349 28.41c.123 0 .217.026.281.077.063.052.107.121.132.207s.036.181.036.286v.64a.148.148 0 01-.149.152.142.142 0 01-.107-.044.15.15 0 01-.043-.108v-.64a.497.497 0 00-.021-.149.2.2 0 00-.076-.106.26.26 0 00-.157-.04.33.33 0 00-.169.04.259.259 0 00-.104.106.307.307 0 00-.036.149v.64a.149.149 0 01-.15.152.143.143 0 01-.107-.044.15.15 0 01-.043-.108v-1.033c0-.043.015-.08.043-.109.028-.029.064-.043.107-.043a.146.146 0 01.15.152v.107l-.038-.007a.56.56 0 01.165-.182.536.536 0 01.13-.069.452.452 0 01.156-.026zM54.206 28.41c.043 0 .079.014.107.042s.042.065.042.11v1.058a.148.148 0 01-.149.152.142.142 0 01-.107-.044.15.15 0 01-.043-.108v-.123l.056.022c0 .021-.012.048-.035.079s-.056.062-.096.091a.54.54 0 01-.318.107.57.57 0 01-.313-.089.625.625 0 01-.221-.245.757.757 0 01-.081-.359.76.76 0 01.081-.361.628.628 0 01.219-.245.59.59 0 01.658.027.45.45 0 01.103.101c.024.034.036.063.036.086l-.09.033v-.183c0-.043.015-.08.043-.109a.152.152 0 01.108-.042zm-.505 1.112c.073 0 .138-.019.192-.055s.098-.086.129-.15a.488.488 0 00.046-.212.495.495 0 00-.046-.215.378.378 0 00-.129-.15.335.335 0 00-.192-.055.331.331 0 00-.19.055.378.378 0 00-.129.15.495.495 0 00-.046.215c0 .078.016.149.046.212a.378.378 0 00.129.15.331.331 0 00.19.055zM8.487 32.62a.148.148 0 01-.152.152c-.042 0-.077-.015-.105-.044s-.042-.065-.042-.108v-1.545c0-.044.015-.079.044-.108a.148.148 0 01.108-.045c.043 0 .079.016.106.045s.041.064.041.108v1.545zM9.92 31.41a.145.145 0 01.149.152v1.058c0 .043-.014.079-.042.108s-.064.044-.107.044-.079-.015-.107-.044-.043-.065-.043-.108v-.122l.055.021c0 .021-.012.049-.035.079a.526.526 0 01-.236.167.468.468 0 01-.177.033.576.576 0 01-.313-.089.632.632 0 01-.221-.245.768.768 0 01-.082-.358c0-.137.027-.258.082-.361a.638.638 0 01.219-.246.596.596 0 01.659.027.472.472 0 01.103.101c.024.034.036.063.036.087l-.09.032v-.183c0-.043.014-.08.042-.109a.145.145 0 01.108-.044zm-.505 1.112a.336.336 0 00.192-.056.359.359 0 00.128-.149.475.475 0 00.046-.212.482.482 0 00-.046-.215.376.376 0 00-.128-.15.335.335 0 00-.192-.055.331.331 0 00-.19.055.361.361 0 00-.128.15.482.482 0 00-.046.215c0 .078.016.148.046.212s.074.113.128.149a.325.325 0 00.19.056zM10.978 31.41c.095 0 .178.01.249.029a.425.425 0 01.165.084.166.166 0 01.029.223.097.097 0 01-.087.044.175.175 0 01-.066-.011.19.19 0 01-.046-.029.214.214 0 00-.123-.056.399.399 0 00-.292.047c-.059.037-.104.086-.136.148s-.047.135-.047.217c0 .08.016.15.048.213a.379.379 0 00.135.148.362.362 0 00.199.056.787.787 0 00.107-.007.352.352 0 00.075-.023.626.626 0 00.063-.042c.018-.015.046-.022.083-.022.043 0 .077.014.1.041.023.027.035.061.035.102s-.023.079-.07.113a.532.532 0 01-.184.082.92.92 0 01-.246.032.616.616 0 01-.342-.092.613.613 0 01-.224-.249.782.782 0 01-.079-.352c0-.137.028-.258.084-.361a.632.632 0 01.57-.335zM12.675 31.436a.145.145 0 01.15.152v.635a.588.588 0 01-.147.42c-.099.104-.24.155-.425.155s-.326-.052-.424-.155a.591.591 0 01-.146-.42v-.635c0-.044.014-.08.042-.109s.064-.043.107-.043.079.014.107.043.042.065.042.109v.635c0 .102.022.177.067.227.045.049.113.073.203.073.092 0 .16-.024.205-.073.045-.05.067-.125.067-.227v-.635c0-.044.014-.08.042-.109s.067-.043.11-.043zM13.072 32.564a.135.135 0 01-.022-.09c.001-.036.023-.068.065-.095a.137.137 0 01.085-.021c.03.002.059.018.087.045a.453.453 0 00.436.142.163.163 0 00.079-.041c.022-.021.034-.053.034-.096 0-.037-.013-.066-.038-.088s-.058-.04-.099-.055a1.466 1.466 0 00-.136-.043 2.88 2.88 0 01-.159-.05c-.054-.019-.104-.042-.148-.071s-.082-.068-.11-.116a.347.347 0 01-.042-.183.33.33 0 01.07-.213.459.459 0 01.181-.135.6.6 0 01.234-.047.73.73 0 01.325.079.393.393 0 01.13.109c.018.025.029.055.032.09s-.012.066-.047.095a.118.118 0 01-.087.026.135.135 0 01-.083-.033c-.028-.037-.066-.066-.114-.088a.387.387 0 00-.245-.023.16.16 0 00-.076.037c-.022.02-.033.05-.033.092 0 .038.013.068.038.091s.059.041.101.055c.043.015.088.028.137.042.05.013.101.029.152.047a.684.684 0 01.143.072c.043.03.078.069.105.117a.37.37 0 01.04.181.332.332 0 01-.075.218.47.47 0 01-.188.136.599.599 0 01-.23.047.9.9 0 01-.295-.052.493.493 0 01-.247-.181zM15.638 31.41c.095 0 .178.01.249.029a.425.425 0 01.165.084.166.166 0 01.029.223.097.097 0 01-.087.044.175.175 0 01-.066-.011.19.19 0 01-.046-.029.214.214 0 00-.123-.056.399.399 0 00-.292.047c-.059.037-.104.086-.136.148s-.047.135-.047.217c0 .08.016.15.048.213a.379.379 0 00.135.148.362.362 0 00.199.056.787.787 0 00.107-.007.352.352 0 00.075-.023.626.626 0 00.063-.042c.018-.015.046-.022.083-.022.043 0 .077.014.1.041.023.027.035.061.035.102s-.023.079-.07.113a.532.532 0 01-.184.082.92.92 0 01-.246.032.616.616 0 01-.342-.092.613.613 0 01-.224-.249.782.782 0 01-.079-.352c0-.137.028-.258.084-.361a.632.632 0 01.57-.335zM17.627 32.105a.7.7 0 01-.091.361.65.65 0 01-.245.243.678.678 0 01-.344.088.678.678 0 01-.344-.088.657.657 0 01-.245-.243c-.061-.104-.091-.225-.091-.361s.03-.258.091-.361a.68.68 0 01.245-.246.678.678 0 01.344-.088.68.68 0 01.344.088.68.68 0 01.336.607zm-.299 0c0-.086-.017-.159-.051-.222s-.08-.111-.137-.146a.373.373 0 00-.519.146.458.458 0 00-.051.222c0 .083.017.156.051.219.034.063.08.111.137.146a.361.361 0 00.191.053.372.372 0 00.328-.199.454.454 0 00.051-.219zM18.593 31.41c.124 0 .217.025.281.077s.108.12.132.206c.024.086.037.182.037.287v.64c0 .043-.014.079-.042.108s-.064.044-.107.044-.08-.015-.108-.044-.042-.065-.042-.108v-.64c0-.056-.007-.105-.021-.149s-.04-.079-.076-.106a.271.271 0 00-.158-.039.34.34 0 00-.169.039.288.288 0 00-.105.106.307.307 0 00-.036.149v.64c0 .043-.014.079-.042.108s-.064.044-.107.044-.079-.015-.107-.044-.042-.065-.042-.108v-1.032c0-.044.014-.08.042-.109s.064-.043.107-.043.079.014.107.043.042.065.042.109v.107l-.038-.008a.545.545 0 01.165-.183.52.52 0 01.13-.069.492.492 0 01.157-.025zM19.428 31.436c.031 0 .061.008.087.023a.154.154 0 01.06.07l.367.841-.055.024.375-.862c.028-.066.072-.099.132-.095a.134.134 0 01.14.135.124.124 0 01-.006.037c-.004.014-.009.026-.014.038l-.468 1.03c-.026.06-.069.092-.127.095a.134.134 0 01-.091-.018.157.157 0 01-.066-.077l-.465-1.03-.011-.032a.17.17 0 01-.006-.048c0-.03.013-.06.04-.089a.14.14 0 01.108-.042zM21.855 31.41a.145.145 0 01.149.152v1.058c0 .043-.014.079-.042.108s-.064.044-.107.044-.079-.015-.107-.044-.042-.065-.042-.108v-.122l.055.021c0 .021-.012.049-.035.079a.526.526 0 01-.412.199.576.576 0 01-.313-.089.632.632 0 01-.221-.245.768.768 0 01-.082-.358c0-.137.027-.258.082-.361a.638.638 0 01.219-.246.596.596 0 01.659.027.472.472 0 01.103.101c.024.034.036.063.036.087l-.09.032v-.183c0-.043.014-.08.042-.109a.142.142 0 01.106-.043zm-.505 1.112a.336.336 0 00.192-.056.359.359 0 00.128-.149.475.475 0 00.046-.212.482.482 0 00-.046-.215.376.376 0 00-.128-.15.335.335 0 00-.192-.055.331.331 0 00-.19.055.361.361 0 00-.128.15.482.482 0 00-.046.215c0 .078.016.148.046.212s.074.113.128.149a.325.325 0 00.19.056zM22.655 32.62a.148.148 0 01-.152.152c-.042 0-.077-.015-.105-.044s-.042-.065-.042-.108v-1.545c0-.044.015-.079.044-.108a.148.148 0 01.108-.045c.043 0 .079.016.106.045s.041.064.041.108v1.545zM23.33 32.62a.148.148 0 01-.152.152c-.042 0-.077-.015-.105-.044s-.042-.065-.042-.108v-1.545c0-.044.015-.079.044-.108a.148.148 0 01.108-.045c.043 0 .079.016.106.045s.041.064.041.108v1.545zM23.81 31.272c-.057 0-.097-.009-.12-.027s-.035-.051-.035-.098V31.1c0-.048.013-.081.039-.099a.219.219 0 01.119-.026c.059 0 .099.01.123.027.023.02.035.051.035.098v.048c0 .048-.013.081-.038.099s-.067.025-.123.025zm.152 1.348c0 .043-.014.079-.042.108s-.064.044-.107.044-.079-.015-.107-.044-.042-.065-.042-.108v-1.032c0-.044.014-.08.042-.109s.064-.043.107-.043.079.014.107.043.042.065.042.109v1.032zM24.192 32.564a.135.135 0 01-.022-.09c.001-.036.023-.068.065-.095a.137.137 0 01.085-.021c.03.002.059.018.087.045a.453.453 0 00.436.142.163.163 0 00.079-.041c.022-.021.034-.053.034-.096 0-.037-.013-.066-.038-.088s-.058-.04-.099-.055a1.466 1.466 0 00-.136-.043 2.88 2.88 0 01-.159-.05c-.054-.019-.104-.042-.148-.071s-.082-.068-.11-.116a.347.347 0 01-.042-.183.33.33 0 01.07-.213.459.459 0 01.181-.135.6.6 0 01.234-.047.73.73 0 01.325.079.393.393 0 01.13.109c.018.025.029.055.032.09s-.012.066-.047.095a.118.118 0 01-.087.026.135.135 0 01-.083-.033c-.028-.037-.066-.066-.114-.088a.387.387 0 00-.245-.023.16.16 0 00-.076.037c-.022.02-.033.05-.033.092 0 .038.013.068.038.091s.059.041.101.055c.043.015.088.028.137.042.05.013.101.029.152.047a.684.684 0 01.143.072c.043.03.078.069.105.117a.37.37 0 01.04.181.332.332 0 01-.075.218.47.47 0 01-.188.136.599.599 0 01-.23.047.9.9 0 01-.295-.052.488.488 0 01-.247-.181zM27.257 31.436c.043 0 .079.014.107.042s.042.065.042.11v1.532c0 .043-.014.079-.042.108s-.064.044-.107.044-.079-.015-.107-.044-.042-.065-.042-.108v-.622l.055.021c0 .021-.012.049-.035.079a.526.526 0 01-.412.199.576.576 0 01-.313-.089.632.632 0 01-.221-.245.768.768 0 01-.082-.358c0-.137.027-.258.082-.361a.638.638 0 01.219-.246.596.596 0 01.659.027.472.472 0 01.103.101c.024.034.036.063.036.087l-.09.032v-.157c0-.044.014-.08.042-.109s.063-.043.106-.043zm-.505 1.086a.336.336 0 00.192-.056.359.359 0 00.128-.149.475.475 0 00.046-.212.482.482 0 00-.046-.215.376.376 0 00-.128-.15.335.335 0 00-.192-.055.331.331 0 00-.19.055.361.361 0 00-.128.15.482.482 0 00-.046.215c0 .078.016.148.046.212s.074.113.128.149a.327.327 0 00.19.056zM28.725 31.436a.145.145 0 01.15.152v.635a.588.588 0 01-.147.42c-.099.104-.24.155-.425.155s-.326-.052-.424-.155a.591.591 0 01-.146-.42v-.635c0-.044.014-.08.042-.109s.064-.043.107-.043.079.014.107.043.042.065.042.109v.635c0 .102.022.177.067.227.045.049.113.073.203.073.092 0 .16-.024.205-.073.045-.05.067-.125.067-.227v-.635c0-.044.014-.08.042-.109s.067-.043.11-.043zM29.33 31.272c-.057 0-.097-.009-.12-.027s-.035-.051-.035-.098V31.1c0-.048.013-.081.039-.099a.219.219 0 01.119-.026c.059 0 .099.01.123.027.023.02.035.051.035.098v.048c0 .048-.013.081-.038.099s-.067.025-.123.025zm.152 1.348c0 .043-.014.079-.042.108s-.064.044-.107.044-.079-.015-.107-.044-.042-.065-.042-.108v-1.032c0-.044.014-.08.042-.109s.064-.043.107-.043.079.014.107.043.042.065.042.109v1.032zM29.712 32.564a.135.135 0 01-.022-.09c.001-.036.023-.068.065-.095a.137.137 0 01.085-.021c.03.002.059.018.087.045a.453.453 0 00.436.142.163.163 0 00.079-.041c.022-.021.034-.053.034-.096 0-.037-.013-.066-.038-.088s-.058-.04-.099-.055a1.466 1.466 0 00-.136-.043 2.88 2.88 0 01-.159-.05c-.054-.019-.104-.042-.148-.071s-.082-.068-.11-.116a.347.347 0 01-.042-.183.33.33 0 01.07-.213.459.459 0 01.181-.135.6.6 0 01.234-.047.73.73 0 01.325.079.393.393 0 01.13.109c.018.025.029.055.032.09s-.012.066-.047.095a.118.118 0 01-.087.026.135.135 0 01-.083-.033c-.028-.037-.066-.066-.114-.088a.387.387 0 00-.245-.023.16.16 0 00-.076.037c-.022.02-.033.05-.033.092 0 .038.013.068.038.091s.059.041.101.055c.043.015.088.028.137.042.05.013.101.029.152.047a.684.684 0 01.143.072c.043.03.078.069.105.117a.37.37 0 01.04.181.332.332 0 01-.075.218.47.47 0 01-.188.136.599.599 0 01-.23.047.9.9 0 01-.295-.052.488.488 0 01-.247-.181zM31.127 32.77a.154.154 0 01-.111-.038c-.026-.026-.039-.063-.039-.111v-.042c0-.049.013-.086.039-.111.026-.026.063-.039.111-.039h.033c.048 0 .085.013.111.039a.153.153 0 01.039.111v.042c0 .048-.013.085-.039.111a.154.154 0 01-.111.038h-.033z"/></g><path fill="none" stroke="#000" stroke-width=".5" stroke-miterlimit="10" d="M30.686 47.094c0 2.156-1.953 3.906-4.363 3.906H12.742c-2.41 0-4.363-1.75-4.363-3.906h0c0-2.157 1.953-3.907 4.363-3.907h13.581c2.409 0 4.363 1.75 4.363 3.907h0z"/><g><path d="M12.248 48.101a.926.926 0 01-.841-.55c-.048-.108-.071-.225-.071-.35s.023-.241.071-.35a.927.927 0 01.486-.48.892.892 0 01.355-.07c.078 0 .154.009.228.025a.81.81 0 01.202.075.127.127 0 01.056.054.132.132 0 01.019.068c0 .04-.014.076-.04.107a.128.128 0 01-.103.048.2.2 0 01-.041-.005.214.214 0 01-.042-.016.725.725 0 00-.279-.057.55.55 0 00-.296.081.599.599 0 00-.291.519.59.59 0 00.079.3.594.594 0 00.212.219.551.551 0 00.296.081c.05 0 .105-.005.165-.015a.614.614 0 00.147-.04l-.022.075v-.428l.042.038h-.278a.149.149 0 01-.152-.15c0-.043.015-.079.044-.107a.15.15 0 01.108-.043h.41c.043 0 .079.015.107.044s.042.065.042.108v.53a.136.136 0 01-.024.083.22.22 0 01-.054.052 1.052 1.052 0 01-.535.154zM13.315 46.325h.838c.043 0 .079.014.108.041s.044.063.044.106a.132.132 0 01-.044.102.16.16 0 01-.108.038h-.7l.022-.042v.487l-.02-.02h.585c.043 0 .08.014.109.041s.043.063.043.106a.13.13 0 01-.043.101.157.157 0 01-.109.039h-.578l.013-.02v.505l-.02-.022h.698a.15.15 0 01.108.043.14.14 0 01.044.102c0 .042-.015.076-.044.103s-.065.04-.108.04h-.838a.145.145 0 01-.108-.044.147.147 0 01-.044-.108v-1.445c0-.043.015-.079.044-.108a.143.143 0 01.108-.045zM14.633 46.612a.155.155 0 01-.109-.04c-.029-.026-.043-.062-.043-.104s.014-.078.043-.104a.157.157 0 01.109-.039h1.11c.043 0 .08.014.109.04s.044.062.044.104a.132.132 0 01-.044.104.16.16 0 01-.109.038h-1.11zm.552 1.463a.16.16 0 01-.115-.044.144.144 0 01-.045-.108v-1.45h.325v1.45a.141.141 0 01-.046.108.164.164 0 01-.119.044zM17.42 48.101c-.117 0-.222-.015-.315-.044s-.183-.081-.268-.154a.189.189 0 01-.068-.132c0-.039.014-.072.041-.102a.138.138 0 01.104-.044c.032 0 .06.01.085.03a.587.587 0 00.419.157c.062 0 .118-.01.17-.028a.338.338 0 00.125-.078.151.151 0 00.047-.111.188.188 0 00-.045-.127.354.354 0 00-.137-.089 1.108 1.108 0 00-.235-.057c-.09-.013-.169-.033-.237-.061s-.125-.063-.171-.105a.427.427 0 01-.104-.149.52.52 0 01-.035-.194c0-.108.028-.2.084-.277.056-.076.131-.135.226-.175s.2-.061.315-.061c.108 0 .209.017.301.049a.7.7 0 01.226.124c.048.038.073.083.073.133 0 .036-.014.069-.042.1s-.062.045-.1.045a.108.108 0 01-.067-.022.495.495 0 00-.107-.066.933.933 0 00-.143-.052.527.527 0 00-.321.006.243.243 0 00-.111.075.17.17 0 00-.038.109c0 .051.015.092.044.124s.071.059.126.077c.055.02.121.037.198.052.1.019.188.04.264.065a.598.598 0 01.189.096c.05.039.087.089.112.147.025.06.038.132.038.217 0 .108-.03.201-.09.279a.578.578 0 01-.236.181.83.83 0 01-.317.062zM18.39 46.612a.155.155 0 01-.109-.04c-.029-.026-.043-.062-.043-.104s.014-.078.043-.104a.157.157 0 01.109-.039h1.11c.043 0 .08.014.109.04s.044.062.044.104a.132.132 0 01-.044.104.16.16 0 01-.109.038h-1.11zm.552 1.463a.16.16 0 01-.115-.044.144.144 0 01-.045-.108v-1.45h.325v1.45a.141.141 0 01-.046.108.162.162 0 01-.119.044zM20.558 46.718l-.54 1.27a.154.154 0 01-.054.074.127.127 0 01-.079.026c-.045 0-.079-.013-.1-.038a.133.133 0 01-.033-.092c0-.016.002-.031.008-.048l.622-1.495c.014-.033.034-.059.062-.077s.057-.026.089-.022c.03 0 .058.009.083.026s.044.042.056.073l.615 1.465a.178.178 0 01.012.061c0 .045-.014.081-.043.107s-.062.04-.096.04a.144.144 0 01-.082-.027.185.185 0 01-.056-.075l-.538-1.253.074-.015zm-.463.965l.137-.287h.675l.047.287h-.859zM21.693 48.075c-.047 0-.088-.015-.125-.044s-.055-.065-.055-.108v-1.445c0-.043.015-.079.044-.108a.147.147 0 01.108-.044h.72c.086 0 .168.022.244.068a.524.524 0 01.254.468.47.47 0 01-.039.186.578.578 0 01-.105.162.475.475 0 01-.148.112l.002-.057a.418.418 0 01.188.198.354.354 0 01.031.126c.007.042.011.079.014.11a.285.285 0 00.015.08.093.093 0 00.044.05c.037.021.06.053.069.094a.113.113 0 01-.029.108c-.019.022-.042.036-.07.042s-.057.006-.085 0-.051-.014-.07-.024c-.028-.017-.057-.041-.085-.073s-.051-.076-.069-.132a.695.695 0 01-.026-.212.206.206 0 00-.015-.079.204.204 0 00-.042-.063.192.192 0 00-.07-.04.33.33 0 00-.1-.014h-.505l.038-.058v.543c0 .043-.012.079-.035.108s-.057.046-.098.046zm.097-.894h.583c.03 0 .059-.015.087-.042s.052-.064.07-.112a.44.44 0 00.027-.156c0-.073-.02-.135-.059-.184s-.082-.074-.126-.074h-.577l.03-.08v.708l-.035-.06zM23.27 46.612a.155.155 0 01-.109-.04c-.029-.026-.043-.062-.043-.104s.014-.078.043-.104a.157.157 0 01.109-.039h1.11c.043 0 .08.014.109.04s.044.062.044.104a.132.132 0 01-.044.104.16.16 0 01-.109.038h-1.11zm.552 1.463a.16.16 0 01-.115-.044.144.144 0 01-.045-.108v-1.45h.325v1.45a.141.141 0 01-.046.108.162.162 0 01-.119.044zM24.947 46.325h.837c.043 0 .08.014.109.041s.043.063.043.106a.132.132 0 01-.043.102.163.163 0 01-.109.038h-.7l.022-.042v.487l-.02-.02h.586c.043 0 .078.014.107.041s.045.063.045.106a.131.131 0 01-.045.101.153.153 0 01-.107.039h-.579l.013-.02v.505l-.02-.022h.697c.043 0 .08.015.109.043a.14.14 0 01.043.102c0 .042-.014.076-.043.103s-.066.04-.109.04h-.837a.145.145 0 01-.108-.044.147.147 0 01-.044-.108v-1.445c0-.043.015-.079.044-.108a.148.148 0 01.109-.045zM26.975 46.325a.676.676 0 01.556.255.886.886 0 01.145.28 1.167 1.167 0 01-.039.78.748.748 0 01-.253.316.693.693 0 01-.409.117h-.598c-.043 0-.079-.015-.108-.044s-.044-.065-.044-.108v-1.445c0-.043.015-.079.044-.108s.065-.044.108-.044h.598zm-.025 1.463a.393.393 0 00.258-.082.467.467 0 00.146-.215.961.961 0 00.02-.515.582.582 0 00-.081-.188c-.036-.055-.083-.098-.14-.129s-.124-.048-.203-.048h-.438l.025-.022v1.226l-.015-.027h.428z"/></g></svg>