<svg xmlns="http://www.w3.org/2000/svg" width="100" height="60"><path d="M48.951 23.772h.813c.043 0 .08-.014.109-.041a.14.14 0 00.044-.104.14.14 0 00-.044-.106.154.154 0 00-.109-.041h-.652v-1.305a.143.143 0 00-.046-.108.15.15 0 00-.106-.044.158.158 0 00-.115.044.144.144 0 00-.045.108v1.445c0 .043.015.08.044.108a.14.14 0 00.107.044zM50.439 23.71c.104.059.217.087.344.087s.242-.029.344-.087a.648.648 0 00.246-.244c.061-.104.09-.225.09-.361s-.029-.257-.09-.361a.672.672 0 00-.59-.333.667.667 0 00-.588.333c-.062.104-.092.225-.092.361s.03.257.092.361a.664.664 0 00.244.244zm.016-.826a.371.371 0 01.657 0 .454.454 0 01.052.221c0 .083-.018.156-.052.219a.374.374 0 01-.52.146.371.371 0 01-.137-.146.451.451 0 01-.051-.219c0-.085.017-.159.051-.221zM52.544 22.671c.028-.024.042-.064.042-.119 0-.038-.017-.071-.051-.1s-.076-.042-.127-.042a.54.54 0 00-.125.015.452.452 0 00-.216.124.415.415 0 00-.054.08v-.042a.149.149 0 00-.043-.109.14.14 0 00-.107-.043.148.148 0 00-.107.043.154.154 0 00-.042.109v1.033c0 .043.015.08.042.108a.145.145 0 00.107.044.14.14 0 00.107-.044.142.142 0 00.044-.108v-.593c0-.06.008-.112.023-.156a.35.35 0 01.063-.111.251.251 0 01.086-.066.216.216 0 01.18-.003.204.204 0 00.086.018.149.149 0 00.092-.038zM53.911 23.538a.123.123 0 00-.036-.087.123.123 0 00-.092-.038.185.185 0 00-.084.022c-.02.01-.039.022-.062.036s-.052.026-.089.036a.582.582 0 01-.147.015.385.385 0 01-.334-.192c-.021-.034-.021-.082-.03-.124h.809a.156.156 0 00.105-.038.127.127 0 00.047-.098.685.685 0 00-.391-.61.617.617 0 00-.554.033.644.644 0 00-.239.244.758.758 0 00-.091.384c0 .128.028.243.084.345a.615.615 0 00.239.241.73.73 0 00.369.089.732.732 0 00.426-.137c.047-.035.07-.076.07-.121zm-.798-.766a.266.266 0 01.113-.067.451.451 0 01.14-.02.34.34 0 01.26.125.226.226 0 01.052.13v.018h-.647c.004-.018.003-.042.008-.058a.338.338 0 01.074-.128zM54.398 23.772a.14.14 0 00.107-.044.146.146 0 00.043-.108v-.64c0-.055.012-.104.033-.149a.26.26 0 01.102-.106c.045-.027.1-.04.162-.04a.24.24 0 01.15.04c.035.026.06.062.072.106a.492.492 0 01.021.149v.64c0 .043.015.08.042.108a.145.145 0 00.107.044.14.14 0 00.107-.044.146.146 0 00.043-.108v-.64c0-.055.012-.104.034-.149a.251.251 0 01.101-.106c.045-.027.1-.04.163-.04.065 0 .114.013.149.04.035.026.06.062.072.106a.492.492 0 01.021.149v.64c0 .043.015.08.042.108a.145.145 0 00.108.044.143.143 0 00.107-.044.15.15 0 00.042-.108v-.64c0-.105-.012-.2-.035-.286s-.066-.155-.129-.207a.421.421 0 00-.273-.077.422.422 0 00-.198.046.571.571 0 00-.243.237l-.005.01a.466.466 0 00-.099-.196c-.063-.064-.161-.096-.295-.096a.44.44 0 00-.279.095.539.539 0 00-.098.091c-.011.013-.017.024-.025.037v-.046a.149.149 0 00-.043-.109.14.14 0 00-.107-.043.148.148 0 00-.107.043.154.154 0 00-.042.109v1.033c0 .043.015.08.042.108.03.029.065.043.108.043zM57.385 22.272c.057 0 .098-.009.122-.026s.038-.05.038-.099V22.1c0-.047-.012-.079-.035-.098-.023-.018-.064-.027-.123-.027a.221.221 0 00-.119.026c-.025.018-.038.051-.038.099v.047c0 .047.011.079.034.098.023.018.064.027.121.027zM57.537 22.587a.153.153 0 00-.043-.109c-.028-.029-.064-.043-.107-.043a.146.146 0 00-.15.152v1.033a.149.149 0 00.15.152.143.143 0 00.107-.044.15.15 0 00.043-.108v-1.033zM59.152 23.103a.753.753 0 00-.082-.36.627.627 0 00-.22-.244.57.57 0 00-.313-.088.536.536 0 00-.393.191v-.014a.153.153 0 00-.043-.109c-.028-.029-.064-.043-.107-.043a.146.146 0 00-.15.152v1.533a.145.145 0 00.15.152.143.143 0 00.107-.044.15.15 0 00.043-.108v-.498c.02.02.034.041.061.061a.554.554 0 00.342.115.548.548 0 00.307-.089.647.647 0 00.217-.245.784.784 0 00.081-.362zm-.334.213c-.031.064-.074.114-.128.151s-.118.055-.191.055a.34.34 0 01-.321-.206.486.486 0 01-.046-.214c0-.08.015-.151.046-.214s.074-.112.129-.149c.055-.037.119-.055.192-.055s.138.018.191.055a.38.38 0 01.128.149c.03.063.046.134.046.214 0 .079-.015.15-.046.214zM59.975 23.546a.456.456 0 01-.283-.029.583.583 0 01-.152-.113.143.143 0 00-.088-.046.134.134 0 00-.084.021c-.042.027-.064.059-.065.095s.006.066.022.09c.064.087.146.147.245.181s.196.051.295.051a.59.59 0 00.229-.046.464.464 0 00.188-.136.323.323 0 00.076-.217.362.362 0 00-.041-.181.352.352 0 00-.104-.116.642.642 0 00-.143-.073 2.169 2.169 0 00-.152-.047 1.864 1.864 0 01-.137-.042.277.277 0 01-.101-.055.116.116 0 01-.038-.091c0-.042.011-.072.032-.091s.047-.032.076-.038a.41.41 0 01.246.024.293.293 0 01.113.087c.021.02.049.031.082.034s.063-.006.088-.026c.035-.028.051-.06.047-.095a.186.186 0 00-.031-.09.396.396 0 00-.131-.109.728.728 0 00-.324-.079c-.082 0-.16.016-.234.047s-.135.077-.182.135a.328.328 0 00-.069.213c0 .073.014.134.042.182a.35.35 0 00.11.116.674.674 0 00.148.071c.054.019.107.035.159.05.05.013.096.027.137.042.04.015.073.033.098.055a.111.111 0 01.038.088c0 .043-.011.075-.034.096a.143.143 0 01-.078.042zM61.177 23.797c.185 0 .327-.052.425-.155a.584.584 0 00.148-.42v-.635a.153.153 0 00-.043-.109c-.028-.029-.064-.043-.107-.043s-.08.015-.107.043a.147.147 0 00-.043.109v.635c0 .102-.022.177-.067.226s-.113.074-.205.074c-.09 0-.157-.024-.202-.074s-.068-.125-.068-.226v-.635a.152.152 0 00-.042-.109c-.028-.029-.063-.043-.107-.043a.145.145 0 00-.149.152v.635c0 .176.049.316.146.42.095.104.236.155.421.155zM63.891 22.487a.425.425 0 00-.273-.077.417.417 0 00-.199.046.58.58 0 00-.244.237l-.005.007a.475.475 0 00-.098-.194c-.064-.064-.162-.096-.295-.096a.443.443 0 00-.281.095.66.66 0 00-.098.091c-.01.013-.016.023-.024.036v-.044a.156.156 0 00-.042-.109.144.144 0 00-.107-.043.147.147 0 00-.15.152v1.033c0 .043.014.08.043.108a.14.14 0 00.107.044.145.145 0 00.107-.044.154.154 0 00.042-.108v-.64a.32.32 0 01.034-.149.248.248 0 01.102-.106.309.309 0 01.162-.04c.064 0 .115.013.15.04a.204.204 0 01.072.106c.013.044.02.094.02.149v.64c0 .043.014.08.043.108.027.029.064.044.107.044s.078-.015.107-.044a.154.154 0 00.043-.108v-.64c0-.055.011-.104.033-.149a.254.254 0 01.102-.106.309.309 0 01.162-.04c.064 0 .115.013.15.04a.199.199 0 01.072.106c.014.044.02.094.02.149v.64c0 .043.014.08.043.108.027.029.064.044.107.044s.079-.015.107-.044a.15.15 0 00.043-.108v-.64c0-.105-.012-.2-.035-.286s-.065-.156-.127-.208zM66.012 23.618v.002a.149.149 0 00.15.152.143.143 0 00.107-.044.15.15 0 00.043-.108v-1.545a.145.145 0 00-.15-.152c-.043 0-.079.015-.107.044s-.043.065-.043.109v.498c-.017-.016-.027-.032-.049-.048a.59.59 0 00-.658-.027.635.635 0 00-.219.245.763.763 0 00-.082.361.76.76 0 00.082.359.625.625 0 00.221.245.566.566 0 00.632-.018.628.628 0 00.073-.073zm-.355-.096c-.071 0-.136-.019-.19-.055s-.098-.086-.129-.15a.488.488 0 01-.046-.212c0-.08.016-.152.046-.215a.378.378 0 01.129-.15.334.334 0 01.19-.055c.073 0 .138.018.192.055a.378.378 0 01.129.15.482.482 0 01.046.215c0 .078-.015.149-.046.212s-.074.113-.129.15-.119.055-.192.055zM67.831 23.466c.061-.104.091-.225.091-.361s-.03-.257-.091-.361a.677.677 0 00-.245-.245c-.103-.059-.217-.088-.344-.088s-.241.029-.344.088a.67.67 0 00-.336.606.667.667 0 00.68.692.66.66 0 00.589-.331zm-.397.004c-.058.035-.121.053-.191.053s-.134-.018-.191-.053a.364.364 0 01-.137-.146.44.44 0 01-.052-.219c0-.085.017-.159.052-.221a.364.364 0 01.328-.198.367.367 0 01.328.198.446.446 0 01.052.221.443.443 0 01-.052.219.393.393 0 01-.137.146zM68.345 23.772a.145.145 0 00.108-.044.147.147 0 00.044-.108v-1.545c0-.043-.014-.08-.041-.109s-.063-.044-.106-.044-.08.015-.108.044a.148.148 0 00-.044.109v1.545c0 .043.014.08.043.108.027.03.062.044.104.044zM69.452 23.797a.69.69 0 00.344-.087c.103-.058.185-.14.245-.244s.091-.225.091-.361-.03-.257-.091-.361a.67.67 0 00-.589-.333.662.662 0 00-.589.333c-.06.104-.092.225-.092.361s.031.257.092.361a.66.66 0 00.589.331zm-.329-.913a.374.374 0 01.52-.146.388.388 0 01.138.146.468.468 0 01.051.221.466.466 0 01-.051.219.38.38 0 01-.138.146.364.364 0 01-.191.053.374.374 0 01-.329-.199.463.463 0 01-.051-.219c0-.085.018-.159.051-.221zM70.532 23.772a.142.142 0 00.107-.044.15.15 0 00.042-.108v-.593c0-.06.008-.112.024-.156a.332.332 0 01.063-.111c.026-.03.054-.052.085-.066a.22.22 0 01.18-.003.2.2 0 00.086.018.148.148 0 00.094-.036c.027-.024.042-.064.042-.119 0-.038-.017-.071-.052-.1a.19.19 0 00-.126-.042.534.534 0 00-.242.061.437.437 0 00-.099.078c-.022.023-.038.052-.055.08v-.042a.152.152 0 00-.042-.109c-.028-.029-.063-.043-.107-.043a.145.145 0 00-.149.152v1.033a.144.144 0 00.149.15zM72.74 23.546a.456.456 0 01-.283-.029.583.583 0 01-.152-.113.143.143 0 00-.088-.046.134.134 0 00-.084.021c-.042.027-.064.059-.065.095s.006.066.022.09c.064.087.146.147.245.181s.196.051.295.051a.59.59 0 00.229-.046.464.464 0 00.188-.136.323.323 0 00.076-.217.362.362 0 00-.041-.181.352.352 0 00-.104-.116.642.642 0 00-.143-.073 2.169 2.169 0 00-.152-.047 1.864 1.864 0 01-.137-.042.277.277 0 01-.101-.055.116.116 0 01-.038-.091c0-.042.011-.072.032-.091s.047-.032.076-.038a.41.41 0 01.246.024.293.293 0 01.113.087c.021.02.049.031.082.034s.063-.006.088-.026c.035-.028.051-.06.047-.095a.186.186 0 00-.031-.09.396.396 0 00-.131-.109.728.728 0 00-.324-.079c-.082 0-.16.016-.234.047s-.135.077-.182.135a.328.328 0 00-.069.213c0 .073.014.134.042.182a.35.35 0 00.11.116.674.674 0 00.148.071c.054.019.107.035.159.05.05.013.096.027.137.042.04.015.073.033.098.055a.111.111 0 01.038.088c0 .043-.011.075-.034.096a.137.137 0 01-.078.042zM73.654 23.62v-1.033a.152.152 0 00-.042-.109c-.028-.029-.063-.043-.107-.043a.145.145 0 00-.149.152v1.033a.148.148 0 00.149.152.142.142 0 00.107-.044.144.144 0 00.042-.108zM73.502 22.272c.057 0 .098-.009.123-.026s.037-.05.037-.099V22.1c0-.047-.012-.079-.035-.098-.023-.018-.063-.027-.122-.027a.213.213 0 00-.118.026c-.026.018-.039.051-.039.099v.047c0 .047.012.079.035.098.023.018.062.027.119.027zM73.978 22.735h.114v.69c0 .082.014.146.038.193.024.046.056.081.094.104s.077.037.12.042.081.009.116.009a.315.315 0 00.163-.045c.051-.03.076-.068.076-.115a.133.133 0 00-.028-.09c-.019-.021-.04-.033-.063-.033a.154.154 0 00-.058.011.128.128 0 01-.056.012c-.018 0-.035-.003-.051-.01s-.028-.018-.037-.033a.1.1 0 01-.014-.057v-.678h.178a.141.141 0 00.1-.039.131.131 0 00.04-.096.136.136 0 00-.14-.14h-.178v-.16a.151.151 0 00-.041-.108.14.14 0 00-.107-.044.143.143 0 00-.107.044.148.148 0 00-.045.108v.16h-.114a.142.142 0 00-.101.039.13.13 0 00-.039.096c0 .04.013.074.039.1.027.027.061.04.101.04zM75.912 23.708a.566.566 0 00.632-.018.462.462 0 00.074-.072v.002a.149.149 0 00.15.152.143.143 0 00.107-.044.15.15 0 00.043-.108v-1.058a.145.145 0 00-.15-.152.146.146 0 00-.15.152v.01c-.017-.016-.027-.032-.049-.048a.59.59 0 00-.658-.027.635.635 0 00-.219.245.763.763 0 00-.082.361.76.76 0 00.082.359.605.605 0 00.22.246zm.031-.818a.378.378 0 01.129-.15.334.334 0 01.19-.055c.073 0 .138.018.192.055a.378.378 0 01.129.15.482.482 0 01.046.215c0 .078-.015.149-.046.212s-.074.113-.129.15-.119.055-.192.055c-.071 0-.136-.019-.19-.055s-.098-.086-.129-.15a.488.488 0 01-.046-.212c0-.08.016-.152.046-.215zM77.393 23.772a.143.143 0 00.107-.044.15.15 0 00.043-.108v-.64c0-.055.011-.104.033-.149a.254.254 0 01.102-.106c.045-.027.1-.04.162-.04.065 0 .115.013.15.04a.199.199 0 01.072.106c.014.044.02.094.02.149v.64a.149.149 0 00.15.152.143.143 0 00.107-.044.15.15 0 00.043-.108v-.64c0-.055.012-.104.033-.149a.26.26 0 01.102-.106c.045-.027.1-.04.162-.04.065 0 .115.013.15.04a.199.199 0 01.072.106c.014.044.02.094.02.149v.64a.149.149 0 00.15.152c.043 0 .08-.015.107-.044a.146.146 0 00.043-.108v-.64c0-.105-.012-.2-.035-.286s-.066-.155-.129-.207a.423.423 0 00-.273-.077.423.423 0 00-.199.046.538.538 0 00-.15.113.58.58 0 00-.093.124l-.005.009a.467.467 0 00-.098-.195c-.063-.064-.162-.096-.295-.096a.44.44 0 00-.152.026.541.541 0 00-.226.16c-.011.013-.016.023-.024.036v-.044a.153.153 0 00-.043-.109c-.028-.029-.064-.043-.107-.043a.146.146 0 00-.15.152v1.033c0 .043.015.08.043.108a.148.148 0 00.108.042zM79.797 23.708c.104.06.227.089.368.089a.742.742 0 00.243-.041.602.602 0 00.182-.096c.047-.037.07-.078.07-.123a.119.119 0 00-.036-.087.122.122 0 00-.091-.038.193.193 0 00-.086.022l-.061.036a.357.357 0 01-.089.036.577.577 0 01-.147.015.383.383 0 01-.334-.192c-.021-.034-.021-.082-.03-.124h.81c.039 0 .074-.013.104-.038s.046-.058.048-.098a.685.685 0 00-.392-.61.617.617 0 00-.554.036.642.642 0 00-.238.244.748.748 0 00-.092.384c0 .128.027.243.084.345a.611.611 0 00.241.24zm.066-.936a.254.254 0 01.111-.067.462.462 0 01.141-.02.342.342 0 01.261.125c.03.038.047.082.051.13v.018h-.648c.004-.018.003-.042.008-.058a.354.354 0 01.076-.128zM81.014 22.735h.114v.69c0 .082.013.146.038.193a.258.258 0 00.094.104.303.303 0 00.119.042.853.853 0 00.117.009.315.315 0 00.163-.045c.051-.03.076-.068.076-.115 0-.038-.009-.068-.028-.09s-.041-.033-.064-.033a.145.145 0 00-.057.011.13.13 0 01-.056.012.13.13 0 01-.052-.01.084.084 0 01-.037-.033.11.11 0 01-.014-.057v-.678h.178c.04 0 .073-.013.1-.039a.128.128 0 00.041-.096.136.136 0 00-.041-.1.133.133 0 00-.1-.04h-.178v-.16a.151.151 0 00-.041-.108.14.14 0 00-.106-.044.147.147 0 00-.108.044.147.147 0 00-.044.108v.16h-.114c-.041 0-.074.013-.101.039s-.04.058-.04.096a.137.137 0 00.141.14zM81.99 23.77c.01-.007.021-.011.035-.014s.025-.004.035-.004c.028 0 .051.007.068.021s.026.03.026.048a.097.097 0 01-.019.059.164.164 0 01-.051.041.87.87 0 01-.063.022c-.023.008-.035.032-.035.07 0 .037.012.063.035.077a.174.174 0 00.194-.018.535.535 0 00.159-.222.284.284 0 00.023-.101c0-.086-.021-.152-.064-.197a.224.224 0 00-.17-.068.292.292 0 00-.201.092.147.147 0 00-.037.097c0 .029.006.049.02.062a.145.145 0 00.045.035zM84.025 23.797a.732.732 0 00.426-.137c.046-.037.069-.078.069-.123a.123.123 0 00-.036-.087.123.123 0 00-.092-.038.185.185 0 00-.084.022c-.02.01-.039.022-.062.036s-.052.026-.089.036a.582.582 0 01-.147.015.385.385 0 01-.334-.192c-.021-.034-.021-.082-.03-.124h.809a.156.156 0 00.105-.038.127.127 0 00.047-.098.685.685 0 00-.391-.61.617.617 0 00-.554.033.644.644 0 00-.239.244.758.758 0 00-.091.384c0 .128.028.243.084.345a.615.615 0 00.239.241.72.72 0 00.37.091zm-.302-1.025a.266.266 0 01.113-.067.451.451 0 01.14-.02.34.34 0 01.26.125.226.226 0 01.052.13v.018h-.647c.004-.018.003-.042.008-.058a.314.314 0 01.074-.128zM85.008 23.772a.14.14 0 00.107-.044.146.146 0 00.043-.108v-.64a.31.31 0 01.036-.149.274.274 0 01.105-.106.324.324 0 01.168-.04c.068 0 .121.013.158.04a.195.195 0 01.076.106.492.492 0 01.021.149v.64c0 .043.014.08.043.108a.14.14 0 00.107.044.145.145 0 00.148-.152v-.64c0-.105-.012-.2-.035-.286a.397.397 0 00-.133-.207.444.444 0 00-.281-.077.466.466 0 00-.287.095.741.741 0 00-.101.091c-.012.014-.018.026-.027.039v-.047a.149.149 0 00-.043-.109.14.14 0 00-.107-.043.148.148 0 00-.107.043.154.154 0 00-.042.109v1.033c0 .043.015.08.042.108a.152.152 0 00.109.043zM86.479 22.272c.057 0 .097-.009.122-.026s.037-.05.037-.099V22.1c0-.047-.012-.079-.034-.098-.023-.018-.064-.027-.123-.027a.219.219 0 00-.119.026c-.025.018-.038.051-.038.099v.047c0 .047.012.079.035.098.023.018.062.027.12.027zM86.48 22.435a.146.146 0 00-.15.152v1.033a.149.149 0 00.15.152.143.143 0 00.107-.044.15.15 0 00.043-.108v-1.033a.153.153 0 00-.043-.109.145.145 0 00-.107-.043zM87.088 23.772a.143.143 0 00.107-.044.15.15 0 00.043-.108v-.64c0-.055.011-.104.033-.149a.254.254 0 01.102-.106.309.309 0 01.162-.04c.065 0 .115.013.15.04a.199.199 0 01.072.106.492.492 0 01.021.149v.64a.148.148 0 00.149.152.142.142 0 00.107-.044.15.15 0 00.043-.108v-.64c0-.055.011-.104.033-.149a.254.254 0 01.102-.106c.045-.027.1-.04.162-.04.065 0 .115.013.15.04.035.026.06.062.072.106a.492.492 0 01.021.149v.64a.148.148 0 00.149.152.142.142 0 00.107-.044.15.15 0 00.043-.108v-.64c0-.105-.012-.2-.035-.286s-.066-.155-.129-.207a.423.423 0 00-.273-.077.423.423 0 00-.199.046.538.538 0 00-.15.113.547.547 0 00-.093.124l-.005.009a.455.455 0 00-.098-.195c-.063-.064-.162-.096-.295-.096a.433.433 0 00-.152.026.541.541 0 00-.226.16c-.011.013-.016.023-.024.036v-.044a.153.153 0 00-.043-.109c-.028-.029-.064-.043-.107-.043a.146.146 0 00-.15.152v1.033c0 .043.015.08.043.108a.15.15 0 00.108.042zM90.17 23.708a.568.568 0 00.49.058.57.57 0 00.141-.076.431.431 0 00.075-.072v.002a.149.149 0 00.15.152.143.143 0 00.107-.044.15.15 0 00.042-.108v-1.058c0-.045-.014-.082-.042-.11s-.064-.042-.107-.042a.145.145 0 00-.107.043.15.15 0 00-.043.109v.011c-.017-.016-.027-.033-.049-.048a.594.594 0 00-.658-.027.635.635 0 00-.219.245.762.762 0 00-.081.361.76.76 0 00.081.359.609.609 0 00.22.245zm.031-.818a.378.378 0 01.129-.15.334.334 0 01.19-.055c.073 0 .138.018.192.055a.378.378 0 01.129.15c.03.063.046.135.046.215a.488.488 0 01-.046.212c-.031.063-.074.113-.129.15s-.119.055-.192.055a.339.339 0 01-.19-.055.371.371 0 01-.129-.15.488.488 0 01-.046-.212c0-.08.016-.152.046-.215zM91.728 23.706a.63.63 0 00.343.091.91.91 0 00.246-.031.542.542 0 00.184-.083c.047-.034.07-.072.07-.114 0-.04-.012-.074-.035-.101s-.057-.042-.1-.042a.13.13 0 00-.083.023.383.383 0 01-.063.042.27.27 0 01-.074.022.674.674 0 01-.108.007.366.366 0 01-.333-.203.453.453 0 01-.049-.214c0-.082.016-.154.047-.216a.365.365 0 01.137-.149.401.401 0 01.292-.046c.034.006.06.014.077.023.018.01.034.021.047.033a.186.186 0 00.047.029.173.173 0 00.065.011.1.1 0 00.088-.044.167.167 0 00-.029-.222.413.413 0 00-.165-.084.923.923 0 00-.249-.03.657.657 0 00-.342.088.629.629 0 00-.232.245.751.751 0 00-.083.361c0 .13.025.248.078.353s.127.191.224.251zM48.509 27.12a.148.148 0 00.149.152.143.143 0 00.107-.044.15.15 0 00.042-.108v-1.533c0-.045-.014-.082-.042-.11s-.064-.042-.107-.042a.146.146 0 00-.107.043.156.156 0 00-.039.099c-.017-.018-.03-.035-.053-.052a.596.596 0 00-.659-.027.635.635 0 00-.219.245.775.775 0 00-.082.361.76.76 0 00.082.359.625.625 0 00.221.245.563.563 0 00.489.058.59.59 0 00.141-.076.432.432 0 00.075-.072v.502zm-.162-.653a.335.335 0 01-.192.055.339.339 0 01-.318-.205.492.492 0 01-.046-.212c0-.08.016-.152.046-.215a.383.383 0 01.128-.15.334.334 0 01.19-.055c.073 0 .137.018.192.055a.368.368 0 01.128.15.482.482 0 01.046.215.475.475 0 01-.046.212.37.37 0 01-.128.15zM49.704 26.522c-.09 0-.157-.024-.203-.074-.045-.049-.067-.125-.067-.226v-.635a.152.152 0 00-.042-.109c-.028-.029-.064-.043-.107-.043s-.079.015-.107.043a.15.15 0 00-.042.109v.635c0 .176.049.316.146.42.098.103.239.155.424.155s.327-.052.425-.155a.584.584 0 00.148-.42v-.635a.153.153 0 00-.043-.109c-.028-.029-.064-.043-.107-.043s-.08.015-.107.043a.147.147 0 00-.043.109v.635c0 .102-.022.177-.067.226s-.116.074-.208.074zM50.734 24.975a.216.216 0 00-.119.026c-.025.018-.039.051-.039.099v.047c0 .047.012.079.035.098.023.018.063.027.12.027s.098-.009.122-.026c.025-.018.038-.05.038-.099V25.1c0-.047-.012-.079-.035-.098-.023-.018-.063-.027-.122-.027zM50.734 25.435a.147.147 0 00-.15.152v1.033c0 .043.014.08.043.108a.14.14 0 00.107.044.145.145 0 00.107-.044.154.154 0 00.042-.108v-1.033a.156.156 0 00-.042-.109.146.146 0 00-.107-.043zM51.54 25.664a.401.401 0 01.245.024.295.295 0 01.113.087c.021.02.049.031.083.034a.12.12 0 00.087-.026c.035-.028.051-.06.048-.095s-.015-.065-.032-.09a.387.387 0 00-.131-.109.721.721 0 00-.324-.079c-.082 0-.16.016-.234.047s-.135.077-.181.135a.328.328 0 00-.069.213c0 .073.014.134.042.182s.065.087.11.116a.653.653 0 00.148.071c.054.019.107.035.158.05.051.013.096.027.137.042a.309.309 0 01.099.055.115.115 0 01.038.088c0 .043-.012.075-.034.096a.157.157 0 01-.079.04.456.456 0 01-.282-.029.587.587 0 01-.153-.113c-.027-.028-.057-.043-.087-.046s-.058.004-.085.021c-.041.027-.063.059-.064.095a.149.149 0 00.021.09.502.502 0 00.246.181.893.893 0 00.295.051.593.593 0 00.229-.046.478.478 0 00.188-.136.327.327 0 00.075-.217c0-.073-.014-.134-.04-.181s-.062-.086-.104-.116a.664.664 0 00-.143-.073c-.053-.018-.104-.034-.152-.047s-.094-.027-.137-.042c-.043-.014-.076-.032-.102-.055s-.037-.053-.037-.091c0-.042.01-.072.032-.091a.158.158 0 01.076-.036zM53.378 26.729a.151.151 0 00.044-.108v-1.545c0-.043-.014-.08-.041-.109s-.063-.044-.107-.044a.143.143 0 00-.107.044.149.149 0 00-.045.109v1.545a.149.149 0 00.148.152.151.151 0 00.108-.044zM54.631 26.756a.628.628 0 00.184-.096c.046-.037.069-.078.069-.123a.123.123 0 00-.036-.087.123.123 0 00-.092-.038.185.185 0 00-.084.022c-.02.01-.039.022-.062.036s-.052.026-.089.036a.582.582 0 01-.147.015.385.385 0 01-.334-.192c-.021-.034-.021-.082-.03-.124h.809a.156.156 0 00.105-.038.127.127 0 00.047-.098.685.685 0 00-.391-.61.617.617 0 00-.554.033.644.644 0 00-.239.244.758.758 0 00-.091.384c0 .128.028.243.084.345a.615.615 0 00.239.241.73.73 0 00.369.089.663.663 0 00.243-.039zm-.545-.984a.266.266 0 01.113-.067.451.451 0 01.14-.02.34.34 0 01.26.125.226.226 0 01.052.13v.018h-.647c.004-.018.003-.042.008-.058a.325.325 0 01.074-.128zM55.791 26.797a.91.91 0 00.246-.031.558.558 0 00.185-.083c.046-.034.069-.072.069-.114a.151.151 0 00-.035-.101.125.125 0 00-.1-.042c-.036 0-.064.008-.082.023a.431.431 0 01-.063.042.267.267 0 01-.075.022.66.66 0 01-.107.007.373.373 0 01-.334-.203.462.462 0 01-.048-.214c0-.082.016-.154.047-.216s.077-.112.137-.149a.399.399 0 01.292-.046c.034.006.06.014.076.023.019.01.034.021.048.033s.028.021.046.029c.018.007.04.011.066.011a.1.1 0 00.087-.044.167.167 0 00-.029-.222c-.039-.036-.095-.064-.165-.084s-.154-.03-.248-.03a.657.657 0 00-.342.088.615.615 0 00-.232.245.74.74 0 00-.084.361c0 .13.026.248.078.353a.616.616 0 00.567.342zM57.17 26.728c.051-.03.076-.068.076-.115a.133.133 0 00-.028-.09c-.019-.021-.04-.033-.063-.033a.154.154 0 00-.058.011.128.128 0 01-.056.012c-.018 0-.035-.003-.051-.01s-.028-.018-.037-.033a.1.1 0 01-.014-.057v-.678h.178a.141.141 0 00.1-.039.131.131 0 00.04-.096.136.136 0 00-.14-.14h-.178v-.16a.151.151 0 00-.041-.108.14.14 0 00-.107-.044.143.143 0 00-.107.044.148.148 0 00-.045.108v.16h-.114a.142.142 0 00-.101.039.13.13 0 00-.039.096c0 .04.013.074.039.1.027.027.061.04.101.04h.114v.69c0 .082.014.146.038.193.024.046.056.081.094.104s.077.037.12.042.081.009.116.009a.339.339 0 00.163-.045zM57.531 26.223c0 .176.049.316.146.42.098.103.238.155.424.155s.326-.052.426-.155a.587.587 0 00.146-.42v-.635a.152.152 0 00-.042-.109.143.143 0 00-.108-.043.148.148 0 00-.107.043.154.154 0 00-.042.109v.635c0 .102-.022.177-.067.226s-.113.074-.205.074c-.09 0-.157-.024-.203-.074-.045-.049-.066-.125-.066-.226v-.635a.153.153 0 00-.043-.109c-.028-.029-.064-.043-.107-.043a.146.146 0 00-.15.152v.635zM59.461 26.797a.598.598 0 00.23-.046.478.478 0 00.188-.136.327.327 0 00.075-.217.373.373 0 00-.04-.181.366.366 0 00-.105-.116.602.602 0 00-.143-.073 1.883 1.883 0 00-.152-.047 1.864 1.864 0 01-.137-.042c-.042-.014-.076-.032-.101-.055s-.038-.053-.038-.091c0-.042.012-.072.033-.091s.047-.032.076-.038a.41.41 0 01.245.024.306.306 0 01.114.087c.021.02.049.031.082.034s.063-.006.088-.026c.035-.028.051-.06.047-.095s-.014-.065-.032-.09a.403.403 0 00-.13-.109.672.672 0 00-.325-.079c-.081 0-.159.016-.233.047s-.135.077-.182.135a.329.329 0 00-.07.213.337.337 0 00.152.298.696.696 0 00.148.071c.055.019.107.035.16.05.049.013.095.027.136.042.04.015.073.033.099.055a.11.11 0 01.037.088c0 .043-.011.075-.033.096-.023.021-.049.034-.079.04s-.058.009-.083.011a.449.449 0 01-.351-.153.149.149 0 00-.088-.046.137.137 0 00-.085.021c-.042.027-.063.059-.065.095a.143.143 0 00.023.09.501.501 0 00.244.181.856.856 0 00.295.053zM61.037 25.435a.147.147 0 00-.15.152v1.033c0 .043.014.08.043.108a.14.14 0 00.107.044.145.145 0 00.107-.044.154.154 0 00.042-.108v-1.033a.156.156 0 00-.042-.109.148.148 0 00-.107-.043zM61.194 25.1c0-.047-.012-.079-.035-.098-.023-.018-.063-.027-.122-.027a.216.216 0 00-.119.026c-.025.018-.039.051-.039.099v.047c0 .047.012.079.035.098.023.018.063.027.12.027s.098-.009.122-.026c.025-.018.038-.05.038-.099V25.1zM62.49 25.487a.444.444 0 00-.281-.077.466.466 0 00-.287.095.59.59 0 00-.1.091c-.013.014-.019.026-.028.039v-.048a.156.156 0 00-.042-.109.144.144 0 00-.107-.043.147.147 0 00-.15.152v1.033c0 .043.014.08.043.108a.14.14 0 00.107.044.145.145 0 00.107-.044.154.154 0 00.042-.108v-.64c0-.055.013-.104.036-.149a.274.274 0 01.105-.106.324.324 0 01.168-.04c.068 0 .121.013.158.04a.195.195 0 01.076.106.492.492 0 01.021.149v.64a.148.148 0 00.15.152.145.145 0 00.107-.044.154.154 0 00.042-.108v-.64c0-.105-.013-.2-.036-.286a.377.377 0 00-.131-.207zM63.275 26.975a.572.572 0 00.064-.122.284.284 0 00.023-.101c0-.086-.021-.152-.063-.197a.224.224 0 00-.171-.068.259.259 0 00-.106.025c-.038.017-.069.039-.094.067s-.038.061-.038.097c0 .029.007.049.02.062a.169.169 0 00.043.031.107.107 0 01.035-.014c.014-.002.025-.004.035-.004.029 0 .052.007.069.021.017.014.026.03.026.048a.092.092 0 01-.02.059.153.153 0 01-.051.041l-.062.022c-.025.008-.036.032-.036.07 0 .037.012.063.035.077a.154.154 0 00.085.022.178.178 0 00.11-.04.314.314 0 00.096-.096zM64.672 26.622c.02.02.034.041.061.061a.554.554 0 00.342.115.548.548 0 00.307-.089.647.647 0 00.217-.245c.055-.104.082-.225.082-.361s-.027-.257-.082-.36a.627.627 0 00-.22-.244.57.57 0 00-.313-.088.536.536 0 00-.393.191v-.014a.153.153 0 00-.043-.109c-.028-.029-.064-.043-.107-.043a.146.146 0 00-.15.152v1.533a.145.145 0 00.15.152.143.143 0 00.107-.044.15.15 0 00.043-.108v-.499zm.162-.882c.055-.037.119-.055.192-.055s.138.018.191.055a.38.38 0 01.128.149c.03.063.046.134.046.214a.504.504 0 01-.046.214c-.031.064-.074.114-.128.151s-.118.055-.191.055a.34.34 0 01-.321-.206.486.486 0 01-.046-.214c0-.08.015-.151.046-.214s.074-.112.129-.149zM66.079 26.772a.142.142 0 00.107-.044.15.15 0 00.042-.108v-.64c0-.055.012-.104.034-.149a.254.254 0 01.102-.106.309.309 0 01.162-.04c.065 0 .115.013.15.04.034.026.06.062.072.106a.525.525 0 01.021.149v.64a.148.148 0 00.149.152.142.142 0 00.107-.044.15.15 0 00.043-.108v-.64c0-.105-.012-.2-.035-.286s-.066-.155-.129-.207a.423.423 0 00-.273-.077.443.443 0 00-.28.095.614.614 0 00-.098.091c-.011.013-.017.024-.025.037v-.558c0-.043-.014-.08-.042-.109s-.063-.044-.107-.044-.079.015-.107.044-.042.065-.042.109v1.545a.148.148 0 00.149.152zM68.477 25.41a.146.146 0 00-.15.152v.01c-.017-.016-.027-.032-.049-.048a.59.59 0 00-.658-.027.635.635 0 00-.219.245.763.763 0 00-.082.361.76.76 0 00.082.359.625.625 0 00.221.245.566.566 0 00.632-.018.462.462 0 00.074-.072v.002a.149.149 0 00.15.152.143.143 0 00.107-.044.15.15 0 00.043-.108v-1.058c0-.045-.015-.082-.043-.11s-.065-.041-.108-.041zm-.313 1.057a.335.335 0 01-.192.055c-.071 0-.136-.019-.19-.055s-.098-.086-.129-.15a.488.488 0 01-.046-.212c0-.08.016-.152.046-.215a.378.378 0 01.129-.15.334.334 0 01.19-.055c.073 0 .138.018.192.055a.378.378 0 01.129.15.482.482 0 01.046.215c0 .078-.015.149-.046.212s-.074.114-.129.15zM69.338 25.76c.025-.03.055-.052.085-.066a.219.219 0 01.181-.003.197.197 0 00.086.018.139.139 0 00.092-.036c.029-.024.043-.064.043-.119 0-.038-.018-.071-.051-.1a.194.194 0 00-.127-.042.534.534 0 00-.242.061.442.442 0 00-.1.078.412.412 0 00-.053.08v-.041a.153.153 0 00-.043-.109c-.028-.029-.064-.043-.107-.043a.146.146 0 00-.15.152v1.033a.149.149 0 00.15.152.143.143 0 00.107-.044.15.15 0 00.043-.108v-.593c0-.06.008-.112.023-.156a.353.353 0 01.063-.114zM69.961 26.123c0 .128.028.243.084.345a.624.624 0 00.24.241c.104.06.227.089.369.089a.737.737 0 00.425-.137c.046-.037.069-.078.069-.123a.124.124 0 00-.127-.125.189.189 0 00-.085.022l-.062.036a.334.334 0 01-.088.036.585.585 0 01-.148.015.385.385 0 01-.334-.192c-.021-.034-.021-.082-.03-.124h.81a.16.16 0 00.105-.038.133.133 0 00.047-.098.663.663 0 00-.19-.466.675.675 0 00-.201-.144.57.57 0 00-.242-.052.62.62 0 00-.313.085c-.098.057-.178.138-.238.244s-.091.236-.091.386zm.391-.351a.257.257 0 01.112-.067.46.46 0 01.14-.02.332.332 0 01.261.125.224.224 0 01.051.13v.018h-.647c.004-.018.003-.042.008-.058a.327.327 0 01.075-.128zM71.502 25.735h.115v.69c0 .082.012.146.037.193a.273.273 0 00.214.146c.042.005.081.009.116.009a.316.316 0 00.164-.045c.051-.03.076-.068.076-.115 0-.038-.01-.068-.029-.09s-.04-.033-.063-.033a.15.15 0 00-.058.011.126.126 0 01-.055.012.13.13 0 01-.052-.01.08.08 0 01-.037-.033.11.11 0 01-.015-.057v-.678h.178c.041 0 .074-.013.101-.039s.04-.058.04-.096c0-.04-.014-.073-.04-.1s-.06-.04-.101-.04h-.178v-.16a.151.151 0 00-.041-.108c-.027-.029-.063-.044-.105-.044s-.08.015-.109.044a.146.146 0 00-.043.108v.16h-.115a.136.136 0 00-.1.039.128.128 0 00-.041.096c0 .04.014.074.041.1.026.027.06.04.1.04zM72.98 25.694a.22.22 0 01.18-.003.2.2 0 00.086.018.148.148 0 00.094-.036c.027-.024.042-.064.042-.119 0-.038-.017-.071-.052-.1a.19.19 0 00-.126-.042.534.534 0 00-.242.061.437.437 0 00-.099.078c-.022.023-.038.052-.055.08v-.042a.152.152 0 00-.042-.109c-.028-.029-.063-.043-.107-.043a.145.145 0 00-.149.152v1.033a.148.148 0 00.149.152.142.142 0 00.107-.044.15.15 0 00.042-.108v-.593c0-.06.008-.112.024-.156a.332.332 0 01.063-.111.241.241 0 01.085-.068zM74.451 26.69a.444.444 0 00.076-.073v.003a.148.148 0 00.149.152.143.143 0 00.107-.044.15.15 0 00.042-.108v-1.058c0-.045-.014-.082-.042-.11s-.064-.042-.107-.042a.145.145 0 00-.149.152v.011c-.017-.016-.028-.032-.049-.048a.642.642 0 00-.156-.083.604.604 0 00-.198-.032.551.551 0 00-.305.088c-.092.06-.165.141-.219.245s-.081.225-.081.361c0 .135.027.254.081.359a.62.62 0 00.222.245.563.563 0 00.489.058.533.533 0 00.14-.076zm-.47-.223a.361.361 0 01-.128-.15.475.475 0 01-.047-.212c0-.08.016-.152.047-.215a.368.368 0 01.128-.15.334.334 0 01.19-.055c.073 0 .137.018.192.055a.368.368 0 01.128.15.482.482 0 01.047.215.475.475 0 01-.047.212.368.368 0 01-.128.15.338.338 0 01-.192.055.336.336 0 01-.19-.055zM75.921 24.966a.148.148 0 00-.044.109v1.545c0 .043.014.08.043.108a.138.138 0 00.104.044.145.145 0 00.108-.044.147.147 0 00.044-.108v-1.545c0-.043-.014-.08-.041-.109s-.063-.044-.106-.044-.08.015-.108.044zM76.543 25.744c-.061.104-.092.225-.092.361s.031.257.092.361a.66.66 0 00.589.331.69.69 0 00.344-.087c.103-.058.185-.14.245-.244s.091-.225.091-.361-.03-.257-.091-.361a.67.67 0 00-.589-.333.67.67 0 00-.589.333zm.397-.007a.36.36 0 01.191-.052.37.37 0 01.329.198.468.468 0 01.051.221.466.466 0 01-.051.219.38.38 0 01-.138.146.364.364 0 01-.191.053.374.374 0 01-.329-.199.463.463 0 01-.051-.219c0-.085.018-.159.051-.221a.396.396 0 01.138-.146zM78.319 25.479c-.028-.029-.063-.043-.107-.043a.145.145 0 00-.149.152v1.033a.148.148 0 00.149.152.142.142 0 00.107-.044.15.15 0 00.042-.108v-.593c0-.06.008-.112.024-.156a.332.332 0 01.063-.111c.026-.03.054-.052.085-.066a.22.22 0 01.18-.003.2.2 0 00.086.018.148.148 0 00.094-.036c.027-.024.042-.064.042-.119 0-.038-.017-.071-.052-.1a.19.19 0 00-.126-.042.534.534 0 00-.242.061.437.437 0 00-.099.078c-.022.023-.038.052-.055.08v-.042a.148.148 0 00-.042-.111zM80.299 26.17a.125.125 0 00.048-.098.668.668 0 00-.392-.61.614.614 0 00-.553.033c-.099.057-.178.138-.239.244s-.091.234-.091.384c0 .128.027.243.084.345a.602.602 0 00.239.241c.104.06.228.089.368.089a.738.738 0 00.426-.137c.047-.037.07-.078.07-.123a.12.12 0 00-.037-.087.12.12 0 00-.091-.038.189.189 0 00-.085.022.87.87 0 00-.061.036.35.35 0 01-.09.036.574.574 0 01-.146.015.378.378 0 01-.334-.192c-.021-.034-.021-.082-.03-.124h.809a.147.147 0 00.105-.036zm-.837-.398a.263.263 0 01.112-.067c.043-.014.09-.02.141-.02s.1.011.146.034a.328.328 0 01.114.091.24.24 0 01.052.13v.018h-.648c.004-.018.003-.042.008-.058a.327.327 0 01.075-.128zM82.035 25.685a.24.24 0 01.149.04c.035.026.06.062.072.106a.492.492 0 01.021.149v.64a.148.148 0 00.15.152.145.145 0 00.107-.044.154.154 0 00.042-.108v-.64c0-.105-.012-.2-.035-.286s-.066-.155-.129-.207a.423.423 0 00-.273-.077.416.416 0 00-.198.046.571.571 0 00-.244.237l-.004.009a.468.468 0 00-.099-.195c-.063-.064-.161-.096-.295-.096a.443.443 0 00-.28.095.614.614 0 00-.098.091c-.011.013-.017.024-.025.037v-.046a.152.152 0 00-.042-.109c-.028-.029-.063-.043-.107-.043a.145.145 0 00-.149.152v1.033a.148.148 0 00.149.152.142.142 0 00.107-.044.15.15 0 00.042-.108v-.64c0-.055.012-.104.034-.149a.254.254 0 01.102-.106.309.309 0 01.162-.04c.065 0 .115.013.15.04.034.026.06.062.072.106a.525.525 0 01.021.149v.64a.148.148 0 00.149.152.142.142 0 00.107-.044.15.15 0 00.043-.108v-.64a.32.32 0 01.034-.149.245.245 0 01.101-.106.307.307 0 01.164-.041zM84.482 26.615a.327.327 0 00.075-.217.373.373 0 00-.04-.181.366.366 0 00-.105-.116.602.602 0 00-.143-.073 1.883 1.883 0 00-.152-.047 1.864 1.864 0 01-.137-.042c-.042-.014-.076-.032-.101-.055s-.038-.053-.038-.091c0-.042.012-.072.033-.091s.047-.032.076-.038a.41.41 0 01.245.024.306.306 0 01.114.087c.021.02.049.031.082.034s.063-.006.088-.026c.035-.028.051-.06.047-.095s-.014-.065-.032-.09a.403.403 0 00-.13-.109.672.672 0 00-.325-.079c-.081 0-.159.016-.233.047s-.135.077-.182.135a.329.329 0 00-.07.213.337.337 0 00.152.298.696.696 0 00.148.071c.055.019.107.035.16.05.049.013.095.027.136.042.04.015.073.033.099.055a.11.11 0 01.037.088c0 .043-.011.075-.033.096-.023.021-.049.034-.079.04s-.058.009-.083.011a.449.449 0 01-.351-.153.149.149 0 00-.088-.046.137.137 0 00-.085.021c-.042.027-.063.059-.065.095a.143.143 0 00.023.09.501.501 0 00.244.181.902.902 0 00.295.051.598.598 0 00.23-.046.442.442 0 00.188-.134zM85.068 26.71a.683.683 0 00.345.087c.126 0 .24-.029.344-.087.102-.058.184-.14.244-.244s.092-.225.092-.361-.031-.257-.092-.361-.143-.186-.244-.245a.683.683 0 00-.344-.088.667.667 0 00-.589.333c-.062.104-.092.225-.092.361s.03.257.092.361a.664.664 0 00.244.244zm.016-.826a.371.371 0 01.657 0 .446.446 0 01.051.221.443.443 0 01-.051.219.371.371 0 01-.657 0 .451.451 0 01-.051-.219c0-.085.017-.159.051-.221zM86.569 26.708a.568.568 0 00.49.058.57.57 0 00.141-.076.431.431 0 00.075-.072v.002a.149.149 0 00.15.152.143.143 0 00.107-.044.15.15 0 00.042-.108v-1.545c0-.045-.014-.082-.042-.11s-.064-.042-.107-.042c-.044 0-.079.015-.107.044s-.043.065-.043.109v.498c-.017-.016-.027-.033-.049-.048a.594.594 0 00-.658-.027.635.635 0 00-.219.245.762.762 0 00-.081.361.76.76 0 00.081.359.62.62 0 00.22.244zm.032-.818a.378.378 0 01.129-.15.334.334 0 01.19-.055c.073 0 .138.018.192.055a.378.378 0 01.129.15c.03.063.046.135.046.215a.488.488 0 01-.046.212c-.031.063-.074.113-.129.15s-.119.055-.192.055a.339.339 0 01-.19-.055.371.371 0 01-.129-.15.488.488 0 01-.046-.212c0-.08.015-.152.046-.215zM88.832 25.563v.011c-.017-.016-.027-.033-.049-.048a.594.594 0 00-.658-.027.635.635 0 00-.219.245.762.762 0 00-.081.361.76.76 0 00.081.359.625.625 0 00.221.245.568.568 0 00.49.058.57.57 0 00.141-.076.431.431 0 00.075-.072v.002a.149.149 0 00.15.152.143.143 0 00.107-.044.15.15 0 00.042-.108v-1.058c0-.045-.014-.082-.042-.11s-.064-.042-.107-.042a.148.148 0 00-.151.152zm-.162.904a.335.335 0 01-.192.055.339.339 0 01-.19-.055.371.371 0 01-.129-.15.488.488 0 01-.046-.212c0-.08.016-.152.046-.215a.378.378 0 01.129-.15.334.334 0 01.19-.055c.073 0 .138.018.192.055a.378.378 0 01.129.15c.03.063.046.135.046.215a.488.488 0 01-.046.212.365.365 0 01-.129.15zM89.63 26.772c.043 0 .08-.015.108-.044a.147.147 0 00.044-.108v-1.545c0-.043-.014-.08-.041-.109s-.063-.044-.106-.044-.079.015-.108.044-.044.065-.044.109v1.545c0 .043.014.08.043.108.028.03.062.044.104.044zM90.941 25.462a.614.614 0 00-.554.033c-.099.057-.179.138-.239.244s-.091.234-.091.384c0 .128.027.243.083.345a.618.618 0 00.24.241c.104.06.228.089.369.089a.737.737 0 00.425-.137c.047-.037.07-.078.07-.123a.12.12 0 00-.037-.087.12.12 0 00-.091-.038.192.192 0 00-.085.022l-.062.036a.342.342 0 01-.089.036.577.577 0 01-.147.015.38.38 0 01-.333-.192c-.021-.034-.021-.082-.03-.124h.809a.16.16 0 00.105-.038.133.133 0 00.047-.098c0-.09-.017-.175-.051-.255s-.081-.15-.139-.211a.68.68 0 00-.2-.142zm-.494.31a.257.257 0 01.112-.067c.044-.014.09-.02.141-.02s.1.011.146.034.084.053.115.091a.232.232 0 01.052.13v.018h-.648c.004-.018.003-.042.008-.058a.338.338 0 01.074-.128zM92.393 26.1a.642.642 0 00-.143-.073 2.169 2.169 0 00-.152-.047 1.864 1.864 0 01-.137-.042.277.277 0 01-.101-.055.116.116 0 01-.038-.091c0-.042.011-.072.032-.091a.17.17 0 01.077-.038.394.394 0 01.244.024.29.29 0 01.114.087c.021.02.049.031.082.034s.063-.006.088-.026c.035-.028.051-.06.048-.095a.188.188 0 00-.033-.09c-.035-.045-.078-.082-.13-.109a.672.672 0 00-.325-.079c-.081 0-.159.016-.233.047s-.135.077-.182.135a.334.334 0 00-.069.213c0 .073.014.134.042.182s.065.087.11.116a.674.674 0 00.148.071c.055.019.107.035.159.05.05.013.095.027.136.042a.309.309 0 01.099.055.111.111 0 01.038.088c0 .043-.012.075-.034.096a.158.158 0 01-.078.04.456.456 0 01-.283-.029.583.583 0 01-.152-.113.146.146 0 00-.087-.046.135.135 0 00-.085.021c-.042.027-.063.059-.065.095s.006.066.022.09c.065.087.146.147.245.181s.196.051.295.051a.598.598 0 00.23-.046.492.492 0 00.188-.136.327.327 0 00.074-.217.362.362 0 00-.04-.181.354.354 0 00-.104-.114zM48.084 28.487a.423.423 0 00-.273-.077.423.423 0 00-.199.046.543.543 0 00-.151.113.54.54 0 00-.092.124l-.004.009a.479.479 0 00-.098-.195c-.063-.064-.162-.096-.295-.096a.447.447 0 00-.28.095.574.574 0 00-.098.091c-.01.013-.016.024-.025.037v-.045a.152.152 0 00-.042-.109c-.028-.029-.064-.043-.107-.043s-.079.015-.107.043a.15.15 0 00-.042.109v1.033a.148.148 0 00.149.152.143.143 0 00.107-.044.15.15 0 00.042-.108v-.64a.32.32 0 01.034-.149.254.254 0 01.102-.106.309.309 0 01.162-.04c.065 0 .115.013.15.04a.199.199 0 01.072.106c.013.044.02.094.02.149v.64a.148.148 0 00.149.152.143.143 0 00.107-.044.15.15 0 00.043-.108v-.64a.32.32 0 01.034-.149.251.251 0 01.101-.106.31.31 0 01.163-.04c.065 0 .115.013.15.04a.199.199 0 01.072.106c.014.044.02.094.02.149v.64a.148.148 0 00.15.152.143.143 0 00.107-.044.15.15 0 00.042-.108v-.64c0-.105-.012-.2-.035-.286s-.065-.157-.128-.209zM49.583 28.606c-.058-.061-.125-.109-.201-.144s-.156-.052-.241-.052a.644.644 0 00-.552.329.758.758 0 00-.091.384c0 .128.028.243.084.345a.611.611 0 00.24.241c.104.06.227.089.369.089a.742.742 0 00.426-.137c.046-.037.07-.078.07-.123a.119.119 0 00-.036-.087.122.122 0 00-.091-.038.189.189 0 00-.085.022.87.87 0 00-.061.036.342.342 0 01-.089.036.582.582 0 01-.147.015.38.38 0 01-.334-.192c-.021-.034-.021-.082-.03-.124h.809a.16.16 0 00.105-.038.127.127 0 00.047-.098.645.645 0 00-.192-.464zm-.694.166a.263.263 0 01.112-.067.451.451 0 01.14-.02.342.342 0 01.261.125.224.224 0 01.051.13v.018h-.648c.004-.018.003-.042.008-.058a.34.34 0 01.076-.128zM50.631 28.735c.041 0 .074-.013.101-.039s.04-.058.04-.096c0-.04-.014-.073-.04-.1s-.06-.04-.101-.04h-.178v-.16a.151.151 0 00-.041-.108c-.027-.029-.063-.044-.105-.044s-.08.015-.109.044a.146.146 0 00-.043.108v.16h-.115a.136.136 0 00-.1.039.128.128 0 00-.04.096c0 .04.013.074.04.1.026.027.06.04.1.04h.115v.69c0 .082.012.146.037.193a.273.273 0 00.214.146c.042.005.081.009.116.009a.316.316 0 00.164-.045c.051-.03.076-.068.076-.115 0-.038-.01-.068-.029-.09s-.04-.033-.063-.033a.15.15 0 00-.058.011.126.126 0 01-.055.012.13.13 0 01-.052-.01.08.08 0 01-.037-.033.11.11 0 01-.015-.057v-.678h.178zM52.039 28.435a.147.147 0 00-.15.152v.635c0 .102-.022.177-.067.226s-.113.074-.205.074c-.09 0-.157-.024-.202-.074s-.068-.125-.068-.226v-.635a.152.152 0 00-.042-.109c-.028-.029-.063-.043-.107-.043a.145.145 0 00-.149.152v.635c0 .176.049.316.146.42.098.103.239.155.424.155s.327-.052.425-.155a.584.584 0 00.148-.42v-.635a.153.153 0 00-.043-.109.158.158 0 00-.11-.043zM53.324 29.1a.664.664 0 00-.143-.073c-.053-.018-.104-.034-.152-.047s-.094-.027-.137-.042c-.043-.014-.076-.032-.102-.055s-.037-.053-.037-.091c0-.042.01-.072.032-.091.021-.019.047-.032.076-.038a.401.401 0 01.245.024.295.295 0 01.113.087c.021.02.049.031.083.034a.12.12 0 00.087-.026c.035-.028.051-.06.048-.095s-.015-.065-.032-.09a.387.387 0 00-.131-.109.721.721 0 00-.324-.079c-.082 0-.16.016-.234.047s-.135.077-.181.135a.328.328 0 00-.069.213c0 .073.014.134.042.182s.065.087.11.116a.653.653 0 00.148.071c.054.019.107.035.158.05.051.013.096.027.137.042a.309.309 0 01.099.055.115.115 0 01.038.088c0 .043-.012.075-.034.096a.157.157 0 01-.079.04.456.456 0 01-.282-.029.587.587 0 01-.153-.113c-.027-.028-.057-.043-.087-.046s-.058.004-.085.021c-.041.027-.063.059-.064.095a.149.149 0 00.021.09.502.502 0 00.246.181.893.893 0 00.295.051.593.593 0 00.229-.046.478.478 0 00.188-.136.327.327 0 00.075-.217c0-.073-.014-.134-.04-.181s-.061-.084-.104-.114zM55.026 28.735c.04 0 .073-.013.101-.039a.142.142 0 000-.196.137.137 0 00-.101-.04h-.178v-.16a.151.151 0 00-.041-.108c-.027-.029-.063-.044-.106-.044s-.08.015-.108.044a.147.147 0 00-.044.108v.16h-.115a.14.14 0 00-.1.039.128.128 0 00-.04.096c0 .04.013.074.04.1.026.027.061.04.1.04h.115v.69c0 .082.013.146.037.193a.273.273 0 00.215.146c.042.006.08.009.115.009a.316.316 0 00.164-.045c.051-.03.076-.068.076-.115a.133.133 0 00-.029-.09c-.019-.021-.039-.033-.063-.033a.159.159 0 00-.059.011.123.123 0 01-.055.012c-.018 0-.035-.003-.051-.01s-.029-.018-.037-.033a.1.1 0 01-.015-.057v-.678h.179zM56.391 28.499a.683.683 0 00-.344-.088.675.675 0 00-.59.333c-.061.104-.091.225-.091.361s.03.257.091.361a.662.662 0 00.59.331c.126 0 .24-.029.344-.087.102-.058.184-.14.244-.244s.092-.225.092-.361-.031-.257-.092-.361-.143-.186-.244-.245zm-.016.825a.367.367 0 01-.519.146c-.059-.035-.104-.083-.138-.146s-.052-.135-.052-.219c0-.085.018-.159.052-.221a.373.373 0 01.52-.146c.057.035.103.084.137.146s.051.136.051.221a.454.454 0 01-.051.219zM57.672 28.41a.528.528 0 00-.242.061.442.442 0 00-.1.078.374.374 0 00-.054.08v-.042a.156.156 0 00-.042-.109.144.144 0 00-.107-.043.147.147 0 00-.15.152v1.033c0 .043.014.08.043.108a.14.14 0 00.107.044.145.145 0 00.107-.044.154.154 0 00.042-.108v-.593c0-.06.008-.112.024-.156a.332.332 0 01.063-.111.245.245 0 01.084-.066.223.223 0 01.181-.003.197.197 0 00.086.018.143.143 0 00.093-.036c.028-.024.043-.064.043-.119 0-.038-.018-.071-.052-.1s-.076-.044-.126-.044zM58.669 28.735c.04 0 .073-.013.101-.039a.142.142 0 000-.196.137.137 0 00-.101-.04h-.178v-.16a.151.151 0 00-.041-.108c-.027-.029-.063-.044-.106-.044s-.08.015-.108.044a.147.147 0 00-.044.108v.16h-.115a.14.14 0 00-.1.039.128.128 0 00-.04.096c0 .04.013.074.04.1.026.027.061.04.1.04h.115v.69c0 .082.013.146.037.193a.273.273 0 00.215.146c.042.006.08.009.115.009a.316.316 0 00.164-.045c.051-.03.076-.068.076-.115a.133.133 0 00-.029-.09c-.019-.021-.039-.033-.063-.033a.159.159 0 00-.059.011.123.123 0 01-.055.012c-.018 0-.035-.003-.051-.01s-.029-.018-.037-.033a.1.1 0 01-.015-.057v-.678h.179zM60.033 28.499a.683.683 0 00-.344-.088.675.675 0 00-.59.333c-.061.104-.091.225-.091.361s.03.257.091.361a.662.662 0 00.59.331c.126 0 .24-.029.344-.087.102-.058.184-.14.244-.244s.092-.225.092-.361-.031-.257-.092-.361-.142-.186-.244-.245zm-.015.825a.367.367 0 01-.519.146c-.059-.035-.104-.083-.138-.146s-.052-.135-.052-.219c0-.085.018-.159.052-.221a.373.373 0 01.52-.146c.057.035.103.084.137.146s.051.136.051.221a.466.466 0 01-.051.219zM61.314 28.41a.528.528 0 00-.242.061.442.442 0 00-.1.078.374.374 0 00-.054.08v-.042a.156.156 0 00-.042-.109.144.144 0 00-.107-.043.147.147 0 00-.15.152v1.033c0 .043.014.08.043.108a.14.14 0 00.107.044.145.145 0 00.107-.044.154.154 0 00.042-.108v-.593c0-.06.008-.112.024-.156a.332.332 0 01.063-.111.245.245 0 01.084-.066.223.223 0 01.181-.003.197.197 0 00.086.018.143.143 0 00.093-.036c.028-.024.043-.064.043-.119 0-.038-.018-.071-.052-.1s-.076-.044-.126-.044zM61.85 29.487a.292.292 0 00-.201.092.147.147 0 00-.037.097c0 .029.006.049.02.062a.153.153 0 00.043.031c.01-.007.021-.011.035-.014s.025-.004.035-.004c.028 0 .051.007.068.021s.026.03.026.048a.097.097 0 01-.019.059.164.164 0 01-.051.041.87.87 0 01-.063.022c-.023.008-.035.032-.035.071 0 .036.012.063.035.076a.143.143 0 00.084.023.18.18 0 00.11-.04.535.535 0 00.159-.222.284.284 0 00.023-.101c0-.086-.021-.152-.064-.197a.225.225 0 00-.168-.065zM63.787 28.41a.528.528 0 00-.242.061.442.442 0 00-.1.078.374.374 0 00-.054.08v-.042a.156.156 0 00-.042-.109.144.144 0 00-.107-.043.147.147 0 00-.15.152v1.033c0 .043.014.08.043.108a.14.14 0 00.107.044.145.145 0 00.107-.044.154.154 0 00.042-.108v-.593c0-.06.008-.112.024-.156a.332.332 0 01.063-.111.245.245 0 01.084-.066.223.223 0 01.181-.003.197.197 0 00.086.018.143.143 0 00.093-.036c.028-.024.043-.064.043-.119 0-.038-.018-.071-.052-.1s-.076-.044-.126-.044zM64.309 27.975a.217.217 0 00-.118.026c-.026.018-.038.051-.038.099v.047c0 .047.011.079.034.098.023.018.063.027.12.027s.098-.009.123-.026c.024-.018.037-.05.037-.099V28.1c0-.047-.012-.079-.035-.098-.024-.018-.065-.027-.123-.027zM64.309 28.435a.148.148 0 00-.107.043.154.154 0 00-.042.109v1.033c0 .043.015.08.042.108a.145.145 0 00.107.044.14.14 0 00.107-.044.146.146 0 00.043-.108v-1.033a.149.149 0 00-.043-.109.143.143 0 00-.107-.043zM65.576 29.1a.602.602 0 00-.143-.073 1.883 1.883 0 00-.152-.047 1.864 1.864 0 01-.137-.042c-.042-.014-.076-.032-.101-.055s-.038-.053-.038-.091c0-.042.012-.072.033-.091s.047-.032.076-.038a.41.41 0 01.245.024.306.306 0 01.114.087c.021.02.049.031.082.034s.063-.006.088-.026c.035-.028.051-.06.047-.095s-.014-.065-.032-.09a.403.403 0 00-.13-.109.672.672 0 00-.325-.079c-.081 0-.159.016-.233.047s-.135.077-.182.135a.329.329 0 00-.07.213.337.337 0 00.152.298.696.696 0 00.148.071c.055.019.107.035.16.05.049.013.095.027.136.042.04.015.073.033.099.055a.11.11 0 01.037.088c0 .043-.011.075-.033.096-.023.021-.049.034-.079.04s-.058.009-.083.011a.449.449 0 01-.351-.153.149.149 0 00-.088-.046.137.137 0 00-.085.021c-.042.027-.063.059-.065.095a.143.143 0 00.023.09.501.501 0 00.244.181.902.902 0 00.295.051.598.598 0 00.23-.046.478.478 0 00.188-.136.327.327 0 00.075-.217.373.373 0 00-.04-.181.37.37 0 00-.105-.114zM66.964 28.435a.146.146 0 00-.107.043.15.15 0 00-.042.109v.635c0 .102-.023.177-.068.226s-.113.074-.205.074c-.09 0-.156-.024-.202-.074-.045-.049-.067-.125-.067-.226v-.635a.149.149 0 00-.043-.109.14.14 0 00-.107-.043.148.148 0 00-.107.043.154.154 0 00-.042.109v.635c0 .176.049.316.146.42.098.103.239.155.424.155.186 0 .327-.052.426-.155a.588.588 0 00.147-.42v-.635a.156.156 0 00-.042-.109.16.16 0 00-.111-.043zM68.249 29.1a.642.642 0 00-.143-.073 2.169 2.169 0 00-.152-.047 1.864 1.864 0 01-.137-.042.277.277 0 01-.101-.055.116.116 0 01-.038-.091c0-.042.011-.072.032-.091s.047-.032.076-.038a.41.41 0 01.246.024.293.293 0 01.113.087c.021.02.049.031.082.034s.063-.006.088-.026c.035-.028.051-.06.047-.095a.186.186 0 00-.031-.09.396.396 0 00-.131-.109.728.728 0 00-.324-.079c-.082 0-.16.016-.234.047s-.135.077-.182.135a.328.328 0 00-.069.213c0 .073.014.134.042.182a.35.35 0 00.11.116.674.674 0 00.148.071c.054.019.107.035.159.05.05.013.096.027.137.042.04.015.073.033.098.055a.111.111 0 01.038.088c0 .043-.011.075-.034.096a.158.158 0 01-.078.04.456.456 0 01-.283-.029.583.583 0 01-.152-.113.143.143 0 00-.088-.046.134.134 0 00-.084.021c-.042.027-.064.059-.065.095s.006.066.022.09c.064.087.146.147.245.181s.196.051.295.051a.59.59 0 00.229-.046.464.464 0 00.188-.136.323.323 0 00.076-.217.362.362 0 00-.041-.181.354.354 0 00-.104-.114zM70.201 29.69a.444.444 0 00.076-.073v.003a.148.148 0 00.149.152.143.143 0 00.107-.044.15.15 0 00.042-.108v-1.545c0-.045-.014-.082-.042-.11s-.064-.042-.107-.042c-.044 0-.079.015-.107.044s-.042.065-.042.109v.498c-.017-.016-.028-.032-.049-.048a.642.642 0 00-.156-.083.604.604 0 00-.198-.032.551.551 0 00-.305.088c-.092.06-.165.141-.219.245s-.081.225-.081.361c0 .135.027.254.081.359a.62.62 0 00.222.245.563.563 0 00.489.058.565.565 0 00.14-.077zm-.47-.223a.361.361 0 01-.128-.15.475.475 0 01-.047-.212c0-.08.016-.152.047-.215a.368.368 0 01.128-.15.334.334 0 01.19-.055c.073 0 .137.018.192.055a.368.368 0 01.128.15.482.482 0 01.047.215.475.475 0 01-.047.212.368.368 0 01-.128.15.338.338 0 01-.192.055.336.336 0 01-.19-.055zM72.045 29.223v-.635a.153.153 0 00-.043-.109c-.028-.029-.064-.043-.107-.043s-.08.015-.107.043a.147.147 0 00-.043.109v.635c0 .102-.022.177-.067.226s-.113.074-.205.074c-.09 0-.157-.024-.202-.074s-.068-.125-.068-.226v-.635a.152.152 0 00-.042-.109c-.028-.029-.063-.043-.107-.043a.145.145 0 00-.149.152v.635c0 .176.049.316.146.42.098.103.239.155.424.155s.327-.052.425-.155a.6.6 0 00.145-.42zM72.502 27.975a.216.216 0 00-.119.026c-.025.018-.039.051-.039.099v.047c0 .047.012.079.035.098.023.018.063.027.12.027s.098-.009.122-.026c.025-.018.038-.05.038-.099V28.1c0-.047-.012-.079-.035-.098-.023-.018-.063-.027-.122-.027zM72.502 28.435a.147.147 0 00-.15.152v1.033c0 .043.014.08.043.108a.14.14 0 00.107.044.145.145 0 00.107-.044.154.154 0 00.042-.108v-1.033a.156.156 0 00-.042-.109.148.148 0 00-.107-.043zM73.308 28.664a.401.401 0 01.245.024.295.295 0 01.113.087c.021.02.049.031.083.034a.12.12 0 00.087-.026c.035-.028.051-.06.048-.095s-.015-.065-.032-.09a.387.387 0 00-.131-.109.721.721 0 00-.324-.079c-.082 0-.16.016-.234.047s-.135.077-.181.135a.328.328 0 00-.069.213c0 .073.014.134.042.182s.065.087.11.116a.653.653 0 00.148.071c.054.019.107.035.158.05.051.013.096.027.137.042a.309.309 0 01.099.055.115.115 0 01.038.088c0 .043-.012.075-.034.096a.157.157 0 01-.079.04.456.456 0 01-.282-.029.587.587 0 01-.153-.113c-.027-.028-.057-.043-.087-.046s-.058.004-.085.021c-.041.027-.063.059-.064.095a.149.149 0 00.021.09.502.502 0 00.246.181.893.893 0 00.295.051.593.593 0 00.229-.046.478.478 0 00.188-.136.327.327 0 00.075-.217c0-.073-.014-.134-.04-.181s-.062-.085-.105-.115a.664.664 0 00-.143-.073c-.053-.018-.104-.034-.152-.047s-.094-.027-.137-.042c-.043-.014-.076-.032-.102-.055s-.037-.053-.037-.091c0-.042.01-.072.032-.091a.154.154 0 01.077-.037zM76.451 28.725c.035.026.06.062.072.106a.492.492 0 01.021.149v.64c0 .043.015.08.042.108a.145.145 0 00.108.044.143.143 0 00.107-.044.15.15 0 00.042-.108v-.64c0-.105-.012-.2-.035-.286s-.066-.155-.129-.207a.421.421 0 00-.273-.077.422.422 0 00-.198.046.571.571 0 00-.243.237l-.005.01a.466.466 0 00-.099-.196c-.063-.064-.161-.096-.295-.096a.44.44 0 00-.279.095.539.539 0 00-.098.091c-.011.013-.017.024-.025.037v-.046a.149.149 0 00-.043-.109.14.14 0 00-.107-.043.148.148 0 00-.107.043.154.154 0 00-.042.109v1.033c0 .043.015.08.042.108a.145.145 0 00.107.044.14.14 0 00.107-.044.146.146 0 00.043-.108v-.64c0-.055.012-.104.033-.149a.26.26 0 01.102-.106c.045-.027.1-.04.162-.04a.24.24 0 01.15.04c.035.026.06.062.072.106a.492.492 0 01.021.149v.64c0 .043.015.08.042.108a.145.145 0 00.107.044.14.14 0 00.107-.044.146.146 0 00.043-.108v-.64c0-.055.012-.104.034-.149a.251.251 0 01.101-.106c.045-.027.1-.04.163-.04a.233.233 0 01.15.039zM77.886 29.766a.462.462 0 00.216-.148v.002a.149.149 0 00.15.152.143.143 0 00.107-.044.15.15 0 00.043-.108v-1.058a.145.145 0 00-.15-.152.146.146 0 00-.15.152v.01c-.017-.016-.027-.032-.049-.048a.59.59 0 00-.658-.027.635.635 0 00-.219.245.763.763 0 00-.082.361.76.76 0 00.082.359.625.625 0 00.221.245.566.566 0 00.489.059zm-.458-.449a.488.488 0 01-.046-.212c0-.08.016-.152.046-.215a.378.378 0 01.129-.15.334.334 0 01.19-.055c.073 0 .138.018.192.055a.378.378 0 01.129.15.482.482 0 01.046.215c0 .078-.015.149-.046.212s-.074.113-.129.15-.119.055-.192.055c-.071 0-.136-.019-.19-.055s-.098-.086-.129-.15zM79.316 30.272c.117 0 .227-.02.328-.059a.534.534 0 00.246-.19.584.584 0 00.094-.349v-1.112a.146.146 0 00-.15-.152.148.148 0 00-.107.043.154.154 0 00-.042.109v.035c-.021-.024-.04-.048-.071-.072a.56.56 0 00-.343-.115.576.576 0 00-.313.088c-.094.06-.168.141-.223.245s-.082.225-.082.361a.76.76 0 00.082.359c.055.104.13.186.225.245a.59.59 0 00.32.089c.061 0 .117-.01.17-.031a.556.556 0 00.232-.167c.003-.003.002-.005.004-.009v.125c0 .088-.03.158-.091.208-.059.05-.152.075-.277.075a.454.454 0 01-.121-.019c-.045-.012-.088-.026-.126-.041s-.065-.025-.083-.03c-.036-.013-.071-.011-.104.006s-.058.05-.072.099a.123.123 0 00.011.104c.02.032.055.06.104.081a1.64 1.64 0 00.389.074zm.333-.955c-.032.063-.075.113-.132.15s-.124.055-.201.055a.36.36 0 01-.33-.205.475.475 0 01-.047-.212c0-.08.016-.152.047-.215a.354.354 0 01.33-.205.358.358 0 01.333.205.47.47 0 01.048.215.45.45 0 01-.048.212zM80.566 29.729a.146.146 0 00.043-.108v-.64a.31.31 0 01.036-.149.278.278 0 01.104-.106.337.337 0 01.17-.04.26.26 0 01.157.04.205.205 0 01.076.106.463.463 0 01.021.149v.64a.149.149 0 00.15.152c.043 0 .08-.015.107-.044a.146.146 0 00.043-.108v-.64c0-.105-.012-.2-.037-.286a.39.39 0 00-.132-.207c-.063-.051-.157-.077-.281-.077a.47.47 0 00-.288.095.796.796 0 00-.1.091c-.012.014-.018.026-.027.039v-.047a.149.149 0 00-.043-.109.14.14 0 00-.107-.043.148.148 0 00-.107.043.154.154 0 00-.042.109v1.033c0 .043.015.08.042.108a.145.145 0 00.107.044.149.149 0 00.108-.045zM82.039 29.729a.15.15 0 00.043-.108v-1.033a.153.153 0 00-.043-.109c-.028-.029-.064-.043-.107-.043a.146.146 0 00-.15.152v1.033a.149.149 0 00.15.152.143.143 0 00.107-.044zM81.93 28.272c.057 0 .098-.009.122-.026s.038-.05.038-.099V28.1c0-.047-.012-.079-.035-.098-.023-.018-.064-.027-.123-.027a.221.221 0 00-.119.026c-.025.018-.038.051-.038.099v.047c0 .047.011.079.034.098.023.018.064.027.121.027zM83.199 29.1a.621.621 0 00-.143-.073 2.169 2.169 0 00-.152-.047 1.864 1.864 0 01-.137-.042.282.282 0 01-.102-.055.119.119 0 01-.037-.091c0-.042.011-.072.033-.091.021-.019.047-.032.076-.038a.4.4 0 01.244.024.29.29 0 01.114.087c.021.02.049.031.083.034a.12.12 0 00.087-.026c.035-.028.051-.06.048-.095a.188.188 0 00-.033-.09c-.035-.045-.078-.082-.13-.109a.672.672 0 00-.325-.079c-.081 0-.159.016-.233.047s-.135.077-.181.135a.329.329 0 00-.07.213c0 .073.014.134.043.182a.328.328 0 00.109.116.674.674 0 00.148.071c.055.019.107.035.159.05.05.013.095.027.136.042a.326.326 0 01.1.055.114.114 0 01.037.088c0 .043-.012.075-.033.096a.16.16 0 01-.08.04.449.449 0 01-.434-.142.146.146 0 00-.087-.046.14.14 0 00-.086.021c-.041.027-.063.059-.064.095s.006.066.022.09a.504.504 0 00.245.181.898.898 0 00.295.051.601.601 0 00.23-.046.492.492 0 00.188-.136.332.332 0 00.074-.217.385.385 0 00-.039-.181.37.37 0 00-.105-.114zM85.435 29.62v-.64c0-.055.012-.104.033-.149a.26.26 0 01.102-.106c.045-.027.1-.04.162-.04.065 0 .115.013.15.04a.199.199 0 01.072.106c.014.044.02.094.02.149v.64a.149.149 0 00.15.152.142.142 0 00.107-.044.15.15 0 00.043-.108v-.64c0-.105-.012-.2-.035-.286s-.066-.155-.129-.207a.423.423 0 00-.273-.077.423.423 0 00-.199.046.538.538 0 00-.15.113.58.58 0 00-.093.124l-.005.009a.467.467 0 00-.098-.195c-.063-.064-.161-.096-.295-.096a.443.443 0 00-.28.095.614.614 0 00-.098.091c-.011.013-.017.024-.025.037v-.046a.152.152 0 00-.042-.109c-.028-.029-.063-.043-.107-.043a.145.145 0 00-.149.152v1.033a.148.148 0 00.149.152.142.142 0 00.107-.044.15.15 0 00.042-.108v-.64c0-.055.012-.104.034-.149a.254.254 0 01.102-.106.309.309 0 01.162-.04c.065 0 .115.013.15.04.034.026.06.062.072.106a.525.525 0 01.021.149v.64a.148.148 0 00.149.152.143.143 0 00.107-.044.15.15 0 00.044-.109zM87.456 29.69a.431.431 0 00.075-.072v.002a.149.149 0 00.15.152.143.143 0 00.107-.044.15.15 0 00.042-.108v-1.058c0-.045-.014-.082-.042-.11s-.064-.042-.107-.042a.145.145 0 00-.107.043.15.15 0 00-.043.109v.011c-.017-.016-.027-.033-.049-.048a.594.594 0 00-.658-.027.635.635 0 00-.219.245.762.762 0 00-.081.361.76.76 0 00.081.359.625.625 0 00.221.245.568.568 0 00.49.058.55.55 0 00.14-.076zm-.47-.223a.371.371 0 01-.129-.15.488.488 0 01-.046-.212c0-.08.016-.152.046-.215a.378.378 0 01.129-.15.334.334 0 01.19-.055c.073 0 .138.018.192.055a.378.378 0 01.129.15c.03.063.046.135.046.215a.488.488 0 01-.046.212c-.031.063-.074.113-.129.15s-.119.055-.192.055a.334.334 0 01-.19-.055zM89.32 30.023a.584.584 0 00.094-.349v-1.112c0-.045-.014-.082-.042-.11s-.064-.042-.108-.042a.146.146 0 00-.107.043.15.15 0 00-.042.109v.035c-.021-.024-.041-.048-.071-.072a.565.565 0 00-.343-.115.573.573 0 00-.313.088c-.094.06-.168.141-.223.245s-.082.225-.082.361a.76.76 0 00.082.359c.055.104.13.186.225.245a.59.59 0 00.32.089c.061 0 .117-.01.17-.031a.556.556 0 00.232-.167c.003-.003.002-.005.004-.009v.125c0 .088-.03.158-.09.208-.061.05-.152.075-.277.075a.455.455 0 01-.122-.019c-.046-.012-.088-.026-.126-.041s-.065-.025-.082-.03c-.037-.013-.072-.011-.105.006s-.058.05-.072.099a.123.123 0 00.011.104c.02.032.054.06.104.081a.89.89 0 00.109.033 1.778 1.778 0 00.283.042c.116 0 .226-.02.327-.059.1-.04.182-.103.244-.191zm-.241-.706a.356.356 0 01-.332.205.361.361 0 01-.33-.205.462.462 0 01-.048-.212.47.47 0 01.048-.215.355.355 0 01.33-.205.354.354 0 01.332.205.482.482 0 01.048.215.475.475 0 01-.048.212zM90.903 29.62v-.64c0-.105-.012-.2-.036-.286s-.068-.155-.132-.207a.444.444 0 00-.281-.077.476.476 0 00-.288.095.677.677 0 00-.1.091c-.012.014-.018.025-.027.038v-.047a.153.153 0 00-.043-.109c-.028-.029-.064-.043-.107-.043a.146.146 0 00-.15.152v1.033a.149.149 0 00.15.152.143.143 0 00.107-.044.15.15 0 00.043-.108v-.64a.31.31 0 01.036-.149.265.265 0 01.104-.106.33.33 0 01.169-.04.26.26 0 01.157.04.195.195 0 01.076.106.463.463 0 01.021.149v.64a.149.149 0 00.15.152.143.143 0 00.107-.044.138.138 0 00.044-.108zM92.161 29.62a.149.149 0 00.15.152.143.143 0 00.107-.044.15.15 0 00.042-.108v-1.058c0-.045-.014-.082-.042-.11s-.064-.042-.107-.042a.145.145 0 00-.107.043.15.15 0 00-.043.109v.011c-.017-.016-.027-.033-.049-.048a.594.594 0 00-.658-.027.635.635 0 00-.219.245.762.762 0 00-.081.361.76.76 0 00.081.359.625.625 0 00.221.245.568.568 0 00.49.058.57.57 0 00.141-.076.431.431 0 00.075-.072v.002zm-.162-.153a.335.335 0 01-.192.055.339.339 0 01-.19-.055.371.371 0 01-.129-.15.488.488 0 01-.046-.212c0-.08.016-.152.046-.215a.378.378 0 01.129-.15.334.334 0 01.19-.055c.073 0 .138.018.192.055a.378.378 0 01.129.15c.03.063.046.135.046.215a.488.488 0 01-.046.212.365.365 0 01-.129.15zM69.508 30.922a.144.144 0 00-.107.045.146.146 0 00-.045.108v1.545c0 .043.015.079.043.108s.063.044.105.044a.151.151 0 00.152-.152v-1.545c0-.044-.014-.079-.041-.108s-.063-.045-.107-.045zM71.088 31.41a.148.148 0 00-.107.043.156.156 0 00-.042.109v.011c-.017-.016-.028-.032-.049-.048a.596.596 0 00-.659-.027.653.653 0 00-.219.246.774.774 0 00-.081.361c0 .135.027.254.081.358a.635.635 0 00.222.245.572.572 0 00.49.057.556.556 0 00.141-.076.468.468 0 00.075-.071v.002c0 .043.015.079.042.108.029.029.064.044.107.044s.08-.015.107-.044a.146.146 0 00.043-.108v-1.058a.142.142 0 00-.043-.109.145.145 0 00-.108-.043zm-.313 1.057c-.055.037-.119.056-.191.056s-.136-.019-.191-.056c-.055-.036-.098-.086-.128-.149s-.046-.134-.046-.212c0-.08.016-.152.046-.215a.361.361 0 01.128-.15c.056-.037.119-.055.191-.055s.137.018.191.055.098.086.129.15a.482.482 0 01.047.215c0 .078-.016.148-.047.212s-.074.113-.129.149zM72.498 32.428a.134.134 0 00-.082.022.53.53 0 01-.063.042.266.266 0 01-.075.023.798.798 0 01-.107.007.353.353 0 01-.198-.056c-.059-.036-.104-.086-.136-.148s-.048-.133-.048-.213c0-.082.016-.154.047-.217s.077-.111.137-.148a.399.399 0 01.292-.047c.034.006.06.014.076.023.019.011.034.021.048.033s.028.021.046.029c.018.007.04.011.066.011a.1.1 0 00.087-.044.157.157 0 00.03-.094.17.17 0 00-.059-.129.432.432 0 00-.165-.084.918.918 0 00-.248-.029.624.624 0 00-.574.334.74.74 0 00-.084.361c0 .129.026.247.078.352a.616.616 0 00.567.341.91.91 0 00.246-.032.557.557 0 00.185-.082c.046-.034.069-.072.069-.113s-.012-.074-.035-.102c-.023-.027-.057-.04-.1-.04zM73.844 31.436a.147.147 0 00-.15.152v.635c0 .102-.022.177-.067.227-.045.049-.113.073-.205.073-.09 0-.157-.024-.202-.073-.045-.05-.068-.125-.068-.227v-.635c0-.044-.014-.08-.042-.109s-.063-.043-.107-.043-.079.014-.107.043-.042.065-.042.109v.635c0 .176.049.316.146.42.098.104.239.155.424.155s.327-.052.425-.155a.584.584 0 00.148-.42v-.635c0-.044-.015-.08-.043-.109s-.067-.043-.11-.043zM75.129 32.1a.661.661 0 00-.143-.072 2.555 2.555 0 00-.152-.047 2.52 2.52 0 01-.137-.042c-.043-.014-.076-.032-.102-.055s-.037-.053-.037-.091c0-.042.01-.072.032-.092.021-.02.047-.031.076-.037s.056-.01.081-.01c.063 0 .117.012.164.033s.086.051.113.088c.021.02.049.031.083.033a.12.12 0 00.087-.026c.035-.028.051-.06.048-.095s-.015-.064-.032-.09a.387.387 0 00-.131-.109.721.721 0 00-.324-.079.6.6 0 00-.234.047.459.459 0 00-.181.135.33.33 0 00-.069.213c0 .074.014.135.042.183s.065.087.11.116.094.053.148.071c.054.019.107.035.158.05a1.4 1.4 0 01.137.043c.041.015.074.033.099.055s.038.051.038.088c0 .043-.012.075-.034.096a.159.159 0 01-.079.041.456.456 0 01-.282-.029.587.587 0 01-.153-.113.13.13 0 00-.172-.024c-.041.026-.063.059-.064.095a.149.149 0 00.021.09.504.504 0 00.246.182.895.895 0 00.295.052.594.594 0 00.229-.047.468.468 0 00.188-.136.332.332 0 00.075-.218.373.373 0 00-.04-.181.33.33 0 00-.104-.118zM77.158 32.428a.134.134 0 00-.082.022.53.53 0 01-.063.042.266.266 0 01-.075.023.798.798 0 01-.107.007.353.353 0 01-.198-.056c-.059-.036-.104-.086-.136-.148s-.048-.133-.048-.213c0-.082.016-.154.047-.217s.077-.111.137-.148a.399.399 0 01.292-.047c.034.006.06.014.076.023.019.011.034.021.048.033s.028.021.046.029c.018.007.04.011.066.011a.1.1 0 00.087-.044.157.157 0 00.03-.094.17.17 0 00-.059-.129.432.432 0 00-.165-.084.918.918 0 00-.248-.029.624.624 0 00-.574.334.74.74 0 00-.084.361c0 .129.026.247.078.352a.616.616 0 00.567.341.91.91 0 00.246-.032.557.557 0 00.185-.082c.046-.034.069-.072.069-.113s-.012-.074-.035-.102c-.023-.027-.057-.04-.1-.04zM78.46 31.498a.68.68 0 00-.344-.088.678.678 0 00-.344.088.672.672 0 00-.245.246c-.061.104-.092.225-.092.361s.031.257.092.361a.65.65 0 00.245.243.678.678 0 00.344.088.68.68 0 00.344-.088.65.65 0 00.245-.243c.061-.104.091-.225.091-.361s-.03-.258-.091-.361a.672.672 0 00-.245-.246zm-.015.826a.38.38 0 01-.138.146.364.364 0 01-.191.053.367.367 0 01-.329-.199.466.466 0 01-.051-.219.47.47 0 01.051-.222.374.374 0 01.52-.146.388.388 0 01.138.146.47.47 0 01.051.222.451.451 0 01-.051.219zM80.043 31.487c-.064-.052-.158-.077-.281-.077a.503.503 0 00-.158.025.536.536 0 00-.23.16c-.013.015-.019.026-.028.04v-.048c0-.044-.014-.08-.042-.109s-.063-.043-.107-.043-.079.014-.107.043-.042.065-.042.109v1.032c0 .043.014.079.042.108s.063.044.107.044.079-.015.107-.044.042-.065.042-.108v-.64c0-.056.013-.105.037-.149a.271.271 0 01.104-.106.34.34 0 01.169-.039c.068 0 .121.013.158.039a.214.214 0 01.076.106.492.492 0 01.021.149v.64c0 .043.015.079.042.108a.145.145 0 00.108.044c.043 0 .079-.015.107-.044s.042-.065.042-.108v-.64c0-.105-.012-.201-.036-.287s-.068-.153-.131-.205zM81.563 31.438c-.06-.004-.104.028-.132.095l-.343.787-.345-.79a.145.145 0 00-.061-.07.17.17 0 00-.088-.023.138.138 0 00-.107.043.134.134 0 00-.039.089c0 .019.002.034.006.048l.011.032.466 1.03a.152.152 0 00.065.077.14.14 0 00.091.018c.059-.003.102-.035.128-.095l.468-1.03a.335.335 0 00.014-.038.13.13 0 00-.033-.133.128.128 0 00-.101-.04zM83.023 31.41a.146.146 0 00-.15.152v.011c-.017-.017-.027-.032-.049-.048a.59.59 0 00-.658-.027.645.645 0 00-.219.246.763.763 0 00-.082.361c0 .135.027.254.082.358a.625.625 0 00.221.245.574.574 0 00.49.057.505.505 0 00.216-.147v.002c0 .043.015.079.043.108s.064.044.107.044.079-.015.107-.044.043-.065.043-.108v-1.058a.146.146 0 00-.151-.152zm-.312 1.057a.336.336 0 01-.192.056.332.332 0 01-.19-.056.368.368 0 01-.129-.149.488.488 0 01-.046-.212c0-.08.016-.152.046-.215.031-.064.074-.113.129-.15s.119-.055.19-.055c.073 0 .138.018.192.055s.098.086.129.15a.482.482 0 01.046.215c0 .078-.015.148-.046.212s-.074.113-.129.149zM83.676 30.922a.146.146 0 00-.108.045.145.145 0 00-.044.108v1.545c0 .043.014.079.043.108a.138.138 0 00.104.044c.044 0 .079-.015.108-.044s.044-.065.044-.108v-1.545c0-.044-.014-.079-.041-.108s-.063-.045-.106-.045zM84.351 30.922c-.043 0-.079.016-.108.045s-.044.064-.044.108v1.545c0 .043.015.079.042.108a.144.144 0 00.105.044.15.15 0 00.152-.152v-1.545c0-.044-.014-.079-.041-.108s-.062-.045-.106-.045zM84.98 31.436c-.043 0-.079.014-.107.043s-.043.065-.043.109v1.032c0 .043.015.079.043.108s.064.044.107.044.079-.015.107-.044.043-.065.043-.108v-1.032c0-.044-.015-.08-.043-.109s-.064-.043-.107-.043zM84.98 30.975a.23.23 0 00-.119.026c-.025.018-.038.051-.038.099v.048c0 .047.011.079.034.098s.064.027.121.027.098-.009.122-.026.038-.051.038-.099V31.1c0-.047-.012-.078-.035-.098-.023-.018-.064-.027-.123-.027zM86.248 32.1a.639.639 0 00-.143-.072 2.169 2.169 0 00-.152-.047 2.52 2.52 0 01-.137-.042.277.277 0 01-.101-.055.116.116 0 01-.038-.091c0-.042.011-.072.032-.092a.158.158 0 01.077-.037.398.398 0 01.244.023.282.282 0 01.114.088c.021.02.049.031.082.033s.063-.006.088-.026c.035-.028.051-.06.048-.095a.191.191 0 00-.033-.09c-.035-.045-.078-.082-.13-.109a.672.672 0 00-.325-.079.599.599 0 00-.233.047.47.47 0 00-.182.135.336.336 0 00-.069.213c0 .074.014.135.042.183s.065.087.11.116.095.053.148.071c.055.019.107.035.159.05.05.014.095.027.136.043a.309.309 0 01.099.055.11.11 0 01.038.088c0 .043-.012.075-.034.096a.16.16 0 01-.078.041.456.456 0 01-.283-.029.583.583 0 01-.152-.113.144.144 0 00-.087-.045.13.13 0 00-.085.021c-.042.026-.063.059-.065.095a.142.142 0 00.022.09c.065.088.146.147.245.182s.196.052.295.052a.599.599 0 00.23-.047.482.482 0 00.188-.136.331.331 0 00.074-.218.362.362 0 00-.04-.181.33.33 0 00-.104-.118zM88.426 31.436a.14.14 0 00-.107.043.156.156 0 00-.039.099c-.018-.017-.029-.034-.053-.052a.594.594 0 00-.658-.027.645.645 0 00-.219.246.762.762 0 00-.081.361c0 .135.026.254.081.358a.625.625 0 00.221.245.576.576 0 00.49.057.54.54 0 00.216-.147v.502c0 .043.015.079.043.108s.063.044.107.044c.043 0 .079-.015.107-.044s.042-.065.042-.108v-1.532c0-.045-.014-.082-.042-.11s-.065-.043-.108-.043zm-.313 1.031a.336.336 0 01-.192.056.332.332 0 01-.19-.056.368.368 0 01-.129-.149.488.488 0 01-.046-.212c0-.08.016-.152.046-.215a.371.371 0 01.129-.15.334.334 0 01.19-.055c.073 0 .138.018.192.055s.098.086.129.15c.03.063.046.135.046.215a.492.492 0 01-.046.212.368.368 0 01-.129.149zM89.894 31.436c-.044 0-.079.014-.107.043s-.043.065-.043.109v.635c0 .102-.022.177-.067.227-.045.049-.113.073-.205.073-.09 0-.157-.024-.202-.073-.045-.05-.067-.125-.067-.227v-.635c0-.044-.015-.08-.043-.109s-.064-.043-.107-.043-.079.014-.107.043-.046.065-.046.109v.635c0 .176.049.316.146.42s.239.155.424.155c.186 0 .327-.052.425-.155a.583.583 0 00.147-.42v-.635c0-.044-.014-.08-.042-.109s-.063-.043-.106-.043zM90.501 30.975a.228.228 0 00-.119.026c-.025.018-.038.051-.038.099v.048c0 .047.012.079.035.098s.063.027.12.027c.057 0 .097-.009.122-.026s.037-.051.037-.099V31.1c0-.047-.012-.078-.034-.098-.023-.018-.064-.027-.123-.027zM90.501 31.436c-.043 0-.079.014-.107.043s-.043.065-.043.109v1.032c0 .043.015.079.043.108s.064.044.107.044.079-.015.107-.044.043-.065.043-.108v-1.032c0-.044-.015-.08-.043-.109s-.064-.043-.107-.043zM91.769 32.1a.639.639 0 00-.143-.072 2.169 2.169 0 00-.152-.047 2.52 2.52 0 01-.137-.042.277.277 0 01-.101-.055.116.116 0 01-.038-.091c0-.042.011-.072.032-.092a.158.158 0 01.077-.037.398.398 0 01.244.023.282.282 0 01.114.088c.021.02.049.031.082.033s.063-.006.088-.026c.035-.028.051-.06.048-.095a.191.191 0 00-.033-.09c-.035-.045-.078-.082-.13-.109a.672.672 0 00-.325-.079.599.599 0 00-.233.047.47.47 0 00-.182.135.336.336 0 00-.069.213c0 .074.014.135.042.183s.065.087.11.116.095.053.148.071c.055.019.107.035.159.05.05.014.095.027.136.043a.309.309 0 01.099.055.11.11 0 01.038.088c0 .043-.012.075-.034.096a.16.16 0 01-.078.041.456.456 0 01-.283-.029.583.583 0 01-.152-.113.144.144 0 00-.087-.045.13.13 0 00-.085.021c-.042.026-.063.059-.065.095a.142.142 0 00.022.09c.065.088.146.147.245.182s.196.052.295.052a.599.599 0 00.23-.047.482.482 0 00.188-.136.331.331 0 00.074-.218.362.362 0 00-.04-.181.33.33 0 00-.104-.118zM92.328 32.428h-.032c-.048 0-.085.013-.111.039a.153.153 0 00-.039.111v.042c0 .048.014.085.039.111a.154.154 0 00.111.038h.032c.049 0 .086-.013.111-.038.026-.026.039-.063.039-.111v-.042c0-.049-.013-.086-.039-.111-.025-.027-.062-.039-.111-.039z"/><path fill="none" stroke="#000" stroke-width=".5" stroke-miterlimit="10" d="M92.584 47.094c0 2.156-1.953 3.906-4.363 3.906h-13.58c-2.41 0-4.363-1.75-4.363-3.906h0c0-2.157 1.953-3.907 4.363-3.907h13.58c2.41 0 4.363 1.75 4.363 3.907h0z"/><g><path d="M74.611 47.13h-.41a.149.149 0 00-.152.15.149.149 0 00.152.15h.235v.32a.574.574 0 01-.125.034 1.01 1.01 0 01-.165.015.557.557 0 01-.297-.081.594.594 0 01-.212-.219.588.588 0 01-.079-.3.599.599 0 01.291-.519.555.555 0 01.297-.081.698.698 0 01.279.057.214.214 0 00.042.016.2.2 0 00.041.005.13.13 0 00.103-.048.163.163 0 00.04-.107.143.143 0 00-.019-.068.136.136 0 00-.057-.054c-.062-.033-.129-.059-.202-.075s-.148-.025-.227-.025a.892.892 0 00-.644.263.868.868 0 00-.267.637.872.872 0 00.267.637.921.921 0 00.93.221c.091-.027.175-.064.251-.111a.204.204 0 00.054-.052.13.13 0 00.024-.083v-.53c0-.043-.015-.079-.043-.108s-.064-.044-.107-.044zM76.051 46.612c.043 0 .08-.013.109-.038a.13.13 0 00.043-.102c0-.043-.014-.079-.043-.106s-.066-.041-.109-.041h-.838a.143.143 0 00-.107.044.148.148 0 00-.045.108v1.445c0 .043.016.079.045.108a.143.143 0 00.107.044h.838c.043 0 .08-.014.109-.04s.043-.061.043-.103a.142.142 0 00-.043-.102.153.153 0 00-.109-.043h-.678v-.463h.565a.154.154 0 00.108-.039.129.129 0 00.044-.101c0-.044-.015-.079-.044-.106s-.064-.041-.108-.041h-.565v-.426h.678zM77.641 46.325h-1.109a.158.158 0 00-.109.039c-.029.025-.043.061-.043.104s.014.078.043.104c.029.027.066.04.109.04h.393v1.311c0 .043.015.079.045.108a.157.157 0 00.115.044.168.168 0 00.119-.044.144.144 0 00.045-.108v-1.311h.393a.16.16 0 00.109-.038.134.134 0 00.044-.104c0-.043-.015-.078-.044-.104s-.066-.041-.11-.041zM79.812 47.214a.626.626 0 00-.188-.096 1.961 1.961 0 00-.264-.065 1.335 1.335 0 01-.198-.052c-.055-.019-.097-.045-.126-.077s-.044-.073-.044-.124a.17.17 0 01.038-.109.237.237 0 01.111-.075.504.504 0 01.181-.027c.044 0 .09.007.14.021a.896.896 0 01.143.052.45.45 0 01.107.066.107.107 0 00.068.022c.038 0 .071-.015.1-.045s.043-.063.043-.1c0-.05-.025-.095-.073-.133a.712.712 0 00-.226-.124.93.93 0 00-.303-.048.808.808 0 00-.315.061.53.53 0 00-.226.175.457.457 0 00-.084.277c0 .072.012.137.035.194a.406.406 0 00.104.149c.046.043.103.078.171.105s.148.048.238.061c.095.014.173.032.234.057.063.024.107.054.138.089s.045.077.045.127a.152.152 0 01-.048.111.311.311 0 01-.125.078.481.481 0 01-.17.028.575.575 0 01-.23-.04.765.765 0 01-.189-.117.124.124 0 00-.084-.03.145.145 0 00-.127.215.186.186 0 00.05.063c.085.073.174.125.268.154s.198.044.314.044a.789.789 0 00.316-.063.565.565 0 00.236-.181.438.438 0 00.09-.279.563.563 0 00-.037-.217.4.4 0 00-.113-.147zM81.398 46.325h-1.109a.157.157 0 00-.109.039c-.029.025-.043.061-.043.104s.014.078.043.104c.029.027.065.04.109.04h.393v1.311a.14.14 0 00.045.108.156.156 0 00.114.044.168.168 0 00.119-.044.145.145 0 00.046-.108v-1.311h.393c.043 0 .08-.013.109-.038a.133.133 0 00.043-.104c0-.043-.014-.078-.043-.104s-.067-.041-.11-.041zM82.57 46.415c-.012-.031-.029-.056-.056-.073s-.054-.026-.083-.026c-.032-.004-.063.004-.09.022s-.047.044-.061.077l-.623 1.495a.166.166 0 00-.008.048.14.14 0 00.033.092c.021.025.055.038.1.038.029 0 .055-.009.079-.026s.042-.042.054-.074l.13-.305h.745l.13.303a.179.179 0 00.056.075.137.137 0 00.082.027c.035 0 .066-.014.096-.04s.044-.063.044-.107a.163.163 0 00-.013-.061l-.615-1.465zm-.402.981l.248-.585.252.585h-.5zM84.74 47.78a.322.322 0 01-.016-.08 1.141 1.141 0 00-.014-.11.376.376 0 00-.103-.236c-.021-.023-.052-.042-.08-.061.038-.023.078-.047.109-.083a.55.55 0 00.105-.162.544.544 0 00-.031-.464c-.047-.081-.107-.145-.184-.19s-.157-.068-.244-.068h-.72c-.043 0-.079.015-.108.044s-.044.065-.044.108v1.445c0 .043.019.079.056.108a.195.195 0 00.125.044c.041 0 .073-.015.097-.044s.035-.065.035-.108v-.485h.468c.038 0 .071.005.1.014.028.01.052.022.07.04a.213.213 0 01.043.063c.01.024.014.051.014.079 0 .087.01.157.027.212a.345.345 0 00.153.205.215.215 0 00.069.024.208.208 0 00.086 0 .128.128 0 00.07-.042c.027-.031.037-.067.028-.108s-.032-.072-.069-.094a.1.1 0 01-.042-.051zm-.311-.754c-.019.048-.042.085-.07.112s-.058.042-.087.042h-.548v-.568h.548c.045 0 .087.025.126.074s.059.11.059.184a.456.456 0 01-.028.156zM86.278 46.325h-1.11a.156.156 0 00-.108.039c-.029.025-.044.061-.044.104s.015.078.044.104c.029.027.065.04.108.04h.393v1.311c0 .043.016.079.045.108.03.029.068.044.115.044.049 0 .088-.015.119-.044s.046-.065.046-.108v-1.311h.393a.158.158 0 00.108-.038.134.134 0 00.045-.104c0-.043-.016-.078-.045-.104s-.065-.041-.109-.041zM87.684 46.612c.043 0 .08-.013.109-.038a.13.13 0 00.043-.102c0-.043-.014-.079-.043-.106s-.066-.041-.109-.041h-.838a.145.145 0 00-.108.044.147.147 0 00-.044.108v1.445c0 .043.015.079.044.108a.145.145 0 00.108.044h.838c.043 0 .08-.014.109-.04s.043-.061.043-.103a.142.142 0 00-.043-.102.153.153 0 00-.109-.043h-.678v-.463h.566a.153.153 0 00.107-.039.13.13 0 00.045-.101c0-.044-.016-.079-.045-.106s-.064-.041-.107-.041h-.566v-.426h.678zM89.574 46.861a.811.811 0 00-.145-.28c-.064-.08-.143-.144-.236-.188s-.199-.067-.32-.067h-.598c-.043 0-.078.015-.107.044s-.045.065-.045.108v1.445c0 .043.016.079.045.108s.064.044.107.044h.598a.696.696 0 00.41-.117.752.752 0 00.252-.316c.059-.133.088-.279.088-.441a1.14 1.14 0 00-.049-.34zm-.322.63a.467.467 0 01-.146.215.39.39 0 01-.258.082h-.412v-1.176h.412a.396.396 0 01.344.177.55.55 0 01.08.188.904.904 0 01-.02.514z"/></g><g><path d="M47.084 11.003a.507.507 0 00-.352.14.45.45 0 00-.152.348v1.84h-2.552v-1.84a.457.457 0 00-.148-.348.482.482 0 00-.34-.14.508.508 0 00-.368.14.465.465 0 00-.144.348v4.624c0 .139.045.254.136.348.091.094.211.14.36.14.133 0 .25-.046.352-.14a.454.454 0 00.152-.348v-1.864h2.552v1.864c0 .139.049.254.148.348.099.094.212.14.34.14a.502.502 0 00.372-.14.473.473 0 00.14-.348v-4.624a.477.477 0 00-.136-.348.48.48 0 00-.36-.14zM51.932 12.872a2.081 2.081 0 00-.644-.46 1.821 1.821 0 00-.772-.168c-.352 0-.685.091-1 .272s-.569.441-.764.78c-.194.339-.292.748-.292 1.228 0 .411.089.779.268 1.104.179.326.435.583.768.772.333.189.727.284 1.18.284.268 0 .525-.044.776-.132.251-.088.445-.191.584-.308.149-.117.224-.248.224-.392 0-.106-.039-.2-.115-.28a.393.393 0 00-.293-.12.604.604 0 00-.271.072 3.397 3.397 0 00-.195.116 1.085 1.085 0 01-.285.116 1.85 1.85 0 01-.471.048 1.23 1.23 0 01-1.068-.612 1.22 1.22 0 01-.142-.396h2.635c.127 0 .239-.04.336-.12a.409.409 0 00.151-.312c0-.288-.055-.56-.164-.816a2.259 2.259 0 00-.446-.676zm-2.224.531a.867.867 0 01.36-.216c.139-.042.287-.064.447-.064.166 0 .322.036.469.108.146.072.27.169.367.292.1.123.154.261.164.416v.056h-2.089c.013-.063.023-.13.042-.184.059-.17.139-.306.24-.408zM56.836 12.244a.455.455 0 00-.344.14.48.48 0 00-.137.348v.034c-.053-.051-.088-.103-.155-.154-.142-.106-.308-.194-.5-.264s-.403-.104-.632-.104c-.357 0-.684.095-.977.284a2.018 2.018 0 00-.699.784 2.463 2.463 0 00-.261 1.156c0 .432.087.815.261 1.148.173.333.408.595.707.784.299.189.633.284 1 .284.203 0 .391-.034.564-.1s.324-.148.452-.244c.101-.075.172-.153.239-.23v.006a.48.48 0 00.137.348c.09.094.205.14.344.14s.254-.046.344-.14a.478.478 0 00.137-.348v-3.384a.476.476 0 00-.137-.352.46.46 0 00-.343-.136zm-1 3.383a1.078 1.078 0 01-.615.176c-.23 0-.433-.059-.609-.176-.176-.117-.313-.277-.411-.48s-.147-.429-.147-.68c0-.256.049-.485.147-.688a1.19 1.19 0 01.411-.48c.177-.117.379-.176.609-.176.234 0 .439.059.615.176.176.118.313.277.412.48.099.203.148.432.148.688 0 .251-.05.478-.148.68s-.236.363-.412.48zM61.82 10.684a.474.474 0 00-.481.488v1.594c-.053-.051-.089-.104-.156-.154a1.923 1.923 0 00-.5-.264 1.85 1.85 0 00-.632-.104c-.357 0-.683.095-.976.284-.293.189-.527.451-.7.784s-.261.719-.261 1.156c0 .432.088.815.261 1.148.173.333.409.595.708.784.299.189.632.284 1 .284.203 0 .391-.034.564-.1.173-.066.324-.148.451-.244a1.52 1.52 0 00.24-.23v.006a.476.476 0 00.481.488.457.457 0 00.344-.14.481.481 0 00.136-.348v-4.944a.48.48 0 00-.136-.352.461.461 0 00-.343-.136zm-1 4.943a1.08 1.08 0 01-.616.176c-.229 0-.433-.059-.608-.176a1.187 1.187 0 01-.412-.48 1.528 1.528 0 01-.147-.68c0-.256.049-.485.147-.688a1.2 1.2 0 01.412-.48c.176-.117.379-.176.608-.176.234 0 .44.059.616.176.176.118.313.277.412.48.098.203.147.432.147.688 0 .251-.05.478-.147.68a1.187 1.187 0 01-.412.48zM63.764 10.852c-.17 0-.297.028-.38.084s-.124.161-.124.316v.152c0 .149.037.253.111.312.075.059.203.088.385.088s.313-.028.393-.084c.08-.056.119-.162.119-.316v-.152c0-.149-.037-.253-.111-.312-.076-.059-.206-.088-.393-.088zM63.764 12.324a.455.455 0 00-.344.14.48.48 0 00-.137.348v3.304a.48.48 0 00.137.348c.09.094.205.14.344.14s.254-.046.344-.14a.478.478 0 00.137-.348v-3.304a.48.48 0 00-.137-.348.457.457 0 00-.344-.14zM68.416 12.492c-.205-.166-.506-.248-.9-.248-.182 0-.35.028-.504.084a1.633 1.633 0 00-.416.22 2.011 2.011 0 00-.32.292c-.038.044-.058.082-.088.124v-.152a.482.482 0 00-.135-.348c-.092-.093-.206-.14-.345-.14s-.253.046-.345.14a.482.482 0 00-.135.348v3.304c0 .139.045.254.135.348.092.094.206.14.345.14s.253-.046.345-.14a.48.48 0 00.135-.348v-2.048a.97.97 0 01.117-.476.864.864 0 01.336-.34c.146-.085.326-.128.539-.128.219 0 .387.043.504.128a.658.658 0 01.244.34c.045.142.068.3.068.476v2.048c0 .139.045.254.136.348.091.094.206.14.345.14s.253-.046.344-.14a.481.481 0 00.136-.348v-2.048c0-.336-.038-.641-.116-.916a1.266 1.266 0 00-.425-.66zM73.539 12.244a.457.457 0 00-.344.14.483.483 0 00-.136.348v.111c-.067-.077-.131-.155-.228-.231a1.774 1.774 0 00-1.1-.368c-.368 0-.701.095-1 .284-.299.189-.536.451-.712.784s-.264.719-.264 1.156c0 .432.088.815.264 1.148.176.333.416.595.721.784.303.189.645.284 1.023.284.191 0 .373-.034.544-.1s.318-.148.444-.244c.125-.096.224-.193.295-.292.009-.011.005-.018.013-.029v.401c0 .283-.097.504-.288.664s-.488.24-.888.24a1.5 1.5 0 01-.388-.06 3.996 3.996 0 01-.404-.132 4.098 4.098 0 00-.264-.096.398.398 0 00-.336.02c-.107.056-.185.161-.232.316a.398.398 0 00.035.332c.063.104.173.19.332.26.08.032.197.067.353.104.155.038.317.069.488.096.171.026.31.04.416.04.373 0 .723-.063 1.048-.188.325-.125.588-.328.788-.608.2-.28.3-.652.3-1.116v-3.56a.463.463 0 00-.48-.488zm-.592 2.903a1.191 1.191 0 01-.424.48 1.149 1.149 0 01-.64.176 1.14 1.14 0 01-1.056-.656 1.49 1.49 0 01-.152-.68c0-.256.051-.485.152-.688a1.14 1.14 0 011.056-.656c.245 0 .458.059.64.176.182.118.322.277.424.48.102.203.152.432.152.688.001.251-.05.478-.152.68zM81.408 11.799a.423.423 0 00.14-.332.437.437 0 00-.14-.336.5.5 0 00-.349-.128h-3.552a.508.508 0 00-.348.124c-.094.083-.141.193-.141.332s.047.251.141.336a.497.497 0 00.348.128h1.256v4.192c0 .139.049.254.145.348.096.094.219.14.367.14a.533.533 0 00.381-.14.46.46 0 00.147-.348v-4.192h1.256a.507.507 0 00.349-.124zM84.588 12.872a2.121 2.121 0 00-.645-.46 1.817 1.817 0 00-.771-.168c-.353 0-.686.091-1 .272s-.57.441-.765.78c-.194.339-.292.748-.292 1.228 0 .411.09.779.268 1.104.18.326.436.583.769.772.333.189.727.284 1.181.284.266 0 .525-.044.775-.132.25-.088.445-.191.584-.308.149-.117.225-.248.225-.392a.39.39 0 00-.117-.28.385.385 0 00-.291-.12.608.608 0 00-.272.072c-.059.032-.124.071-.196.116s-.166.084-.283.116a1.863 1.863 0 01-.473.048 1.239 1.239 0 01-1.069-.612 1.267 1.267 0 01-.142-.396h2.634c.129 0 .24-.04.336-.12a.41.41 0 00.152-.312c0-.288-.055-.56-.164-.816a2.272 2.272 0 00-.444-.676zm-2.225.531a.867.867 0 01.36-.216 1.54 1.54 0 01.448-.064 1.076 1.076 0 01.836.4.744.744 0 01.164.416v.056H82.08c.013-.063.023-.13.042-.184.06-.17.14-.306.241-.408zM87.996 14.413l1.104-1.345c.043-.048.072-.099.088-.152s.023-.106.023-.16c0-.112-.043-.212-.131-.3s-.196-.132-.324-.132c-.149 0-.277.072-.385.216l-.91 1.208-.985-1.224a.485.485 0 00-.732-.064.444.444 0 00-.148.344c0 .106.035.203.104.288l1.152 1.432-1.111 1.36a.471.471 0 00-.121.304c0 .117.053.217.156.3a.464.464 0 00.7-.076l.939-1.188.956 1.188a.48.48 0 00.393.208.479.479 0 00.336-.144.456.456 0 00.048-.632l-1.152-1.431zM92.56 15.804c-.062-.069-.13-.104-.204-.104a.444.444 0 00-.184.036.426.426 0 01-.176.036.42.42 0 01-.164-.032.25.25 0 01-.121-.104.35.35 0 01-.043-.184v-2.168h.567a.444.444 0 00.32-.124.414.414 0 00.128-.308.435.435 0 00-.448-.448h-.567v-.512c0-.139-.045-.255-.133-.348s-.201-.14-.34-.14-.254.047-.348.14-.141.209-.141.348v.512h-.366a.442.442 0 00-.32.124.41.41 0 00-.128.308c0 .128.042.235.128.32a.433.433 0 00.32.128h.367v2.208c0 .261.041.467.121.616.08.149.18.26.299.332a.999.999 0 00.385.136 2.7 2.7 0 00.371.028c.188 0 .361-.048.525-.144.162-.096.243-.219.243-.368a.42.42 0 00-.091-.288z"/></g></svg>